<?xml version="1.0" encoding="utf-8"?>
<!-- Generator: Adobe Illustrator 16.0.0, SVG Export Plug-In . SVG Version: 6.00 Build 0)  -->
<!DOCTYPE svg PUBLIC "-//W3C//DTD SVG 1.1//EN" "http://www.w3.org/Graphics/SVG/1.1/DTD/svg11.dtd">
<svg version="1.1" id="レイヤー_1" xmlns="http://www.w3.org/2000/svg" xmlns:xlink="http://www.w3.org/1999/xlink" x="0px"
	 y="0px" width="200px" height="200px" viewBox="0 0 200 200" enable-background="new 0 0 200 200" xml:space="preserve">
<path fill="#3E3E40" d="M199.939,92.699c-0.26-1.516-1.306-2.78-2.748-3.316L157.748,74.7l-21.391-24.21L115.73,23.247
	c-0.553-0.729-1.32-1.264-2.196-1.526l-25.658-7.709c-0.02-0.006-0.039-0.004-0.058-0.009c-0.026-0.008-0.052-0.018-0.078-0.024
	c-0.021-0.006-0.043-0.014-0.064-0.021c-0.311-0.075-0.632-0.11-0.96-0.116c-0.043-0.001-0.085-0.007-0.128-0.006
	c-0.038,0-0.075,0.002-0.114,0.004c-0.046,0.002-0.092-0.004-0.139-0.001c-0.138,0.009-0.26,0.064-0.393,0.088
	c-0.064,0.01-0.127,0.018-0.191,0.031c-0.119,0.024-0.244,0.022-0.361,0.058c-0.008,0.003-0.017,0.002-0.024,0.004l-30.952,9.541
	c-0.134,0.041-0.255,0.109-0.382,0.162c-0.089,0.037-0.177,0.069-0.263,0.112c-0.304,0.15-0.59,0.327-0.848,0.542
	c-0.013,0.012-0.026,0.018-0.039,0.028c-0.269,0.229-0.5,0.499-0.706,0.79c-0.021,0.03-0.052,0.051-0.073,0.082L32.641,54.271
	l-12.76,5.316L3.534,62.581c-1.344,0.246-2.493,1.116-3.094,2.344c-0.603,1.228-0.587,2.668,0.043,3.882l6.005,11.59
	c0.001,0.002,0.002,0.003,0.003,0.004c0.001,0.002,0.001,0.005,0.002,0.006l10.795,20.709c0.708,1.356,2.081,2.237,3.61,2.313
	l24.324,1.208l8.43,4.966c0.673,0.396,1.429,0.596,2.188,0.596c0.591,0,1.184-0.121,1.738-0.367l8.142-3.586h0.144l0.358,5.119
	c0.106,1.526,1.013,2.881,2.382,3.561l12.994,6.46c0.599,0.298,1.256,0.45,1.919,0.45c0.221,0,0.442-0.018,0.662-0.051l9.619-1.496
	c0.529-0.081,1.039-0.263,1.503-0.53l1.262-0.732l19.002,28.995l9.925,23.484c0.235,0.559,0.586,1.061,1.03,1.475l12.903,12.027
	c0.81,0.754,1.864,1.158,2.94,1.158c0.397,0,0.799-0.055,1.192-0.168c1.456-0.42,2.584-1.571,2.975-3.035l14.716-55.282
	l37.198-30.94C199.628,95.755,200.197,94.216,199.939,92.699z M104.448,110.159l14.554-27.438l32.114-0.041l1.749,37.243
	l-21.783-4.394L104.448,110.159z M129.581,55.826c0.066,0.087,0.135,0.17,0.208,0.252l15.889,17.986l-26.592,0.033L98.462,32.346
	l-3.567-7.221l14.81,4.45L129.581,55.826z M70.479,53.291l-4.79-12.078l-4.277-10.785l18.508-5.704L70.479,53.291z M37.155,61.731
	c0.781-0.325,1.45-0.874,1.922-1.576l15.618-23.267l1.412,3.558l9.87,24.89L51.648,85.617l-5.116,7.243L27.694,65.673L37.155,61.731
	z M23.794,94.938l-8.41-16.134l5.622-7.641l16.961,24.479L23.794,94.938z M63.075,97.987l-6.95,3.061l-3.402-2.003l13.435-19.016
	L65.854,91.41l-0.166,6.21h-0.874C64.215,97.62,63.622,97.745,63.075,97.987z M84.21,113.051l-9.557-4.75l-0.451-6.461l0.939-35.173
	l12.287-37.184l14.428,29.21l9.707,19.65l-16.864,31.79l-3.026,1.759L84.21,113.051z M140.047,173.796l-6.972-6.497l-9.718-22.995
	c-0.101-0.239-0.223-0.469-0.365-0.684l-15.798-24.109l39.437,7.952l5.456,1.1L140.047,173.796z M161.334,116.39l-1.489-31.708
	l27.362,10.187L161.334,116.39z"/>
</svg>
