<?xml version="1.0" encoding="utf-8"?>
<!-- Generator: Adobe Illustrator 16.0.0, SVG Export Plug-In . SVG Version: 6.00 Build 0)  -->
<!DOCTYPE svg PUBLIC "-//W3C//DTD SVG 1.1//EN" "http://www.w3.org/Graphics/SVG/1.1/DTD/svg11.dtd">
<svg version="1.1" id="レイヤー_1" xmlns="http://www.w3.org/2000/svg" xmlns:xlink="http://www.w3.org/1999/xlink" x="0px"
	 y="0px" width="200px" height="200px" viewBox="0 0 200 200" enable-background="new 0 0 200 200" xml:space="preserve">
<g>
	<path fill="#3E3E40" d="M19.31,22.728C8.659,22.728,0,31.38,0,42.044c0,10.67,8.659,19.316,19.31,19.316
		c10.677,0,19.323-8.646,19.323-19.316C38.633,31.38,29.987,22.728,19.31,22.728z"/>
	<path fill="#3E3E40" d="M19.31,80.684C8.659,80.684,0,89.33,0,100s8.659,19.316,19.31,19.316c10.677,0,19.323-8.646,19.323-19.316
		S29.987,80.684,19.31,80.684z"/>
	<path fill="#3E3E40" d="M19.31,138.639C8.659,138.639,0,147.285,0,157.956c0,10.664,8.659,19.316,19.31,19.316
		c10.677,0,19.323-8.652,19.323-19.316C38.633,147.285,29.987,138.639,19.31,138.639z"/>
	<path fill="#3E3E40" d="M182.435,22.728h-59.218H69.558c-9.662,0-17.565,7.903-17.565,17.559v3.516
		c0,9.661,7.904,17.559,17.565,17.559h53.659h59.218H200V22.728H182.435z M189.453,50.827h-7.019h-59.218H69.558
		c-3.802,0-7.019-3.216-7.019-7.024v-3.516c0-3.802,3.216-7.025,7.019-7.025h53.659h59.218h7.019V50.827z"/>
	<path fill="#3E3E40" d="M123.217,80.684H69.558c-9.662,0-17.565,7.904-17.565,17.559v3.516c0,9.655,7.904,17.559,17.565,17.559
		h53.659h59.218H200V80.684h-17.565H123.217z M189.453,91.217v17.565h-7.019h-59.218H69.558c-3.802,0-7.019-3.216-7.019-7.025
		v-3.516c0-3.809,3.216-7.025,7.019-7.025h53.659h59.218H189.453z"/>
	<path fill="#3E3E40" d="M123.217,138.639H69.558c-9.662,0-17.565,7.897-17.565,17.559v3.516c0,9.655,7.904,17.559,17.565,17.559
		h53.659h59.218H200v-38.633h-17.565H123.217z M189.453,149.173v17.565h-7.019h-59.218H69.558c-3.802,0-7.019-3.223-7.019-7.025
		v-3.516c0-3.809,3.216-7.024,7.019-7.024h53.659h59.218H189.453z"/>
</g>
</svg>
