<?xml version="1.0" encoding="utf-8"?>
<!-- Generator: Adobe Illustrator 16.0.0, SVG Export Plug-In . SVG Version: 6.00 Build 0)  -->
<!DOCTYPE svg PUBLIC "-//W3C//DTD SVG 1.1//EN" "http://www.w3.org/Graphics/SVG/1.1/DTD/svg11.dtd">
<svg version="1.1" id="レイヤー_1" xmlns="http://www.w3.org/2000/svg" xmlns:xlink="http://www.w3.org/1999/xlink" x="0px"
	 y="0px" width="200px" height="200px" viewBox="0 0 200 200" enable-background="new 0 0 200 200" xml:space="preserve">
<path fill="#3E3E40" d="M100.006,0.006C44.867,0.006,0,44.867,0,100c0,55.14,44.867,99.994,100.006,99.994
	c4.778,0,9.466-0.358,14.062-1.009v-67.658h-22.85v-28.384h22.85V88.666c0-20.467,15.377-37.126,34.269-37.126h22.85v28.292h-22.85
	c-2.695,0-5.716,3.665-5.716,8.567v14.543h28.566v28.384h-28.566v59.11C176.512,174.403,200,139.906,200,100
	C200,44.867,155.146,0.006,100.006,0.006z"/>
</svg>
