<?xml version="1.0" encoding="utf-8"?>
<!-- Generator: Adobe Illustrator 16.0.0, SVG Export Plug-In . SVG Version: 6.00 Build 0)  -->
<!DOCTYPE svg PUBLIC "-//W3C//DTD SVG 1.1//EN" "http://www.w3.org/Graphics/SVG/1.1/DTD/svg11.dtd">
<svg version="1.1" id="レイヤー_1" xmlns="http://www.w3.org/2000/svg" xmlns:xlink="http://www.w3.org/1999/xlink" x="0px"
	 y="0px" width="200px" height="200px" viewBox="0 0 200 200" enable-background="new 0 0 200 200" xml:space="preserve">
<g>
	<path fill="#3E3E40" d="M30.74,44.847c-5.273,0-10.95,2.637-14.192,6.692c-3.463,4.264-4.466,9.746-4.466,15.019
		c0,13.593,7.903,36.118,25.35,36.118c5.078,0,10.56-2.448,13.814-5.684c4.648-4.674,5.064-11.165,5.064-14.816
		C56.311,67.567,47.588,44.847,30.74,44.847z"/>
	<path fill="#3E3E40" d="M67.469,162.313c0-10.344-6.692-15.813-22.121-26.769c-1.615-0.208-2.643-0.208-4.661-0.208
		c-1.823,0-12.786,0.403-21.314,3.249c-2.031,0.735-5.859,2.174-9.413,4.882c7.942,16.392,20.246,30.278,35.375,40.199
		C59.827,181.505,67.469,173.12,67.469,162.313z"/>
	<path fill="#3E3E40" d="M6.562,135.564c11.379-4.622,24.334-5.41,31.886-5.917c-2.838-3.646-6.08-7.5-6.08-13.782
		c0-3.457,1.016-5.481,2.031-7.916c-2.239,0.195-4.466,0.404-6.497,0.404c-12.733,0-22.16-5.645-27.759-13.515
		C0.052,96.55,0,98.269,0,100C0,112.525,2.343,124.503,6.562,135.564z"/>
	<path fill="#3E3E40" d="M100.006,0.006c-33.826,0-63.759,16.9-81.87,42.673c8.698-3.724,17.733-4.524,25.389-4.524H85.32
		l-12.98,7.304H59.762c4.661,3.854,14.4,11.966,14.4,27.388c0,15.012-8.528,22.115-17.043,28.807
		c-2.63,2.637-5.677,5.481-5.677,9.941c0,4.466,3.047,6.901,5.273,8.724l7.304,5.683c8.932,7.506,17.03,14.413,17.03,28.41
		c0,13.625-9.466,27.322-27.589,34.054c13.906,7.35,29.75,11.529,46.546,11.529C155.146,199.994,200,155.14,200,100
		C200,44.867,155.146,0.006,100.006,0.006z M155.211,73.14h-26.313v26.313h-8.672V73.14H93.913v-8.665h26.313v-26.32h8.672v26.32
		h26.313V73.14z"/>
</g>
</svg>
