<?xml version="1.0" encoding="utf-8"?>
<!-- Generator: Adobe Illustrator 16.0.0, SVG Export Plug-In . SVG Version: 6.00 Build 0)  -->
<!DOCTYPE svg PUBLIC "-//W3C//DTD SVG 1.1//EN" "http://www.w3.org/Graphics/SVG/1.1/DTD/svg11.dtd">
<svg version="1.1" id="レイヤー_1" xmlns="http://www.w3.org/2000/svg" xmlns:xlink="http://www.w3.org/1999/xlink" x="0px"
	 y="0px" width="200px" height="200px" viewBox="0 0 200 200" enable-background="new 0 0 200 200" xml:space="preserve">
<g>
	<g>
		<path fill-rule="evenodd" clip-rule="evenodd" fill="#3E3E40" d="M169.235,40.625V9.979h-10.119v30.647h-30.76v10.095h30.76
			v30.647h10.119V50.721h30.77V40.625H169.235z M118.315,9.979H69.475c-12.806,0-28.923,1.885-42.441,12.992
			c-10.198,8.742-15.18,20.791-15.18,31.663c0,18.422,14.222,37.094,39.365,37.094c2.363,0,4.981-0.238,7.59-0.469
			c-1.192,2.838-2.374,5.191-2.374,9.217c0,7.32,3.79,11.805,7.111,16.053c-10.667,0.714-30.594,1.896-45.285,10.873
			c-13.987,8.273-18.266,20.326-18.266,28.834c0,17.484,16.605,33.787,50.979,33.787c40.781,0,62.358-22.445,62.358-44.648
			c0-16.313-9.465-24.342-19.917-33.094l-8.537-6.613c-2.598-2.125-6.153-4.957-6.153-10.164c0-5.191,3.556-8.498,6.642-11.574
			c9.944-7.795,19.907-16.064,19.907-33.554c0-17.954-11.38-27.404-16.83-31.893h14.701L118.315,9.979z M97.45,154.574
			c0,14.652-12.083,25.523-34.852,25.523c-25.367,0-41.739-12.053-41.739-28.824c0-16.782,15.18-22.447,20.396-24.332
			c9.964-3.322,22.76-3.791,24.899-3.791c2.373,0,3.564,0,5.46,0.244C89.626,136.152,97.45,142.531,97.45,154.574z M78.491,78.496
			c-3.8,3.775-10.208,6.617-16.137,6.617c-20.387,0-29.637-26.231-29.637-42.06c0-6.145,1.182-12.528,5.217-17.485
			c3.799-4.728,10.432-7.8,16.605-7.8c19.683,0,29.87,26.461,29.87,43.478C84.41,65.5,83.932,73.055,78.491,78.496z"/>
	</g>
</g>
</svg>
