<?xml version="1.0" encoding="utf-8"?>
<!-- Generator: Adobe Illustrator 16.0.0, SVG Export Plug-In . SVG Version: 6.00 Build 0)  -->
<!DOCTYPE svg PUBLIC "-//W3C//DTD SVG 1.1//EN" "http://www.w3.org/Graphics/SVG/1.1/DTD/svg11.dtd">
<svg version="1.1" id="レイヤー_1" xmlns="http://www.w3.org/2000/svg" xmlns:xlink="http://www.w3.org/1999/xlink" x="0px"
	 y="0px" width="200px" height="200px" viewBox="0 0 200 200" enable-background="new 0 0 200 200" xml:space="preserve">
<g>
	<path fill="#3E3E40" d="M123.75,60.366c-10.512,0-19.557,8.551-23.746,17.48c-4.193-8.93-13.241-17.48-23.754-17.48
		C61.76,60.366,50,72.131,50,86.62c0,29.479,29.738,37.204,50.004,66.35C119.159,124.009,150,115.158,150,86.62
		C150,72.131,138.238,60.366,123.75,60.366z"/>
	<path fill="#3E3E40" d="M100,15c46.869,0,85,38.131,85,85s-38.131,85-85,85s-85-38.131-85-85S53.131,15,100,15 M100,0
		C44.771,0,0,44.771,0,100s44.771,100,100,100s100-44.771,100-100S155.229,0,100,0L100,0z"/>
</g>
</svg>
