<?xml version="1.0" encoding="utf-8"?>
<!-- Generator: Adobe Illustrator 16.0.0, SVG Export Plug-In . SVG Version: 6.00 Build 0)  -->
<!DOCTYPE svg PUBLIC "-//W3C//DTD SVG 1.1//EN" "http://www.w3.org/Graphics/SVG/1.1/DTD/svg11.dtd">
<svg version="1.1" id="レイヤー_1" xmlns="http://www.w3.org/2000/svg" xmlns:xlink="http://www.w3.org/1999/xlink" x="0px"
	 y="0px" width="200px" height="200px" viewBox="0 0 200 200" enable-background="new 0 0 200 200" xml:space="preserve">
<g>
	<g>
		<path fill="#3E3E40" d="M200,85.865c0-44.743-44.858-81.148-99.999-81.148C44.865,4.717,0,41.122,0,85.865
			c0,40.112,35.578,73.719,83.631,80.07c3.255,0.697,7.688,2.155,8.812,4.935c1.011,2.522,0.661,6.479,0.324,9.034
			c0,0-1.171,7.06-1.426,8.569c-0.438,2.523-2.012,9.882,8.66,5.385c10.673-4.495,57.587-33.912,78.566-58.064h-0.007
			C193.058,119.908,200,103.776,200,85.865z M60.854,112.487H40.986c-2.887,0-5.238-2.35-5.238-5.248V67.504
			c0-2.888,2.352-5.245,5.238-5.245c2.894,0,5.241,2.357,5.241,5.245v34.494h14.627c2.896,0,5.241,2.354,5.241,5.241
			C66.096,110.138,63.751,112.487,60.854,112.487z M81.405,107.239c0,2.898-2.352,5.248-5.241,5.248
			c-2.891,0-5.238-2.35-5.238-5.248V67.504c0-2.888,2.348-5.245,5.238-5.245c2.89,0,5.241,2.357,5.241,5.245V107.239z
			 M129.238,107.239c0,2.268-1.438,4.267-3.586,4.979c-0.538,0.181-1.104,0.269-1.665,0.269c-1.637,0-3.202-0.78-4.188-2.1
			L99.432,82.662v24.577c0,2.898-2.349,5.248-5.242,5.248c-2.89,0-5.245-2.35-5.245-5.248V67.504c0-2.258,1.445-4.255,3.59-4.975
			c0.538-0.178,1.099-0.271,1.662-0.271c1.634,0,3.205,0.784,4.187,2.103l20.366,27.735V67.504c0-2.888,2.354-5.245,5.244-5.245
			c2.894,0,5.245,2.357,5.245,5.245V107.239z M161.388,82.133c2.893,0,5.244,2.349,5.244,5.245c0,2.887-2.352,5.241-5.244,5.241
			h-14.623v9.379h14.623c2.887,0,5.244,2.354,5.244,5.241c0,2.898-2.357,5.248-5.244,5.248h-19.871c-2.888,0-5.242-2.35-5.242-5.248
			V87.391c0-0.007,0-0.007,0-0.013c0,0,0-0.01,0-0.013V67.527c0-0.013,0-0.018,0-0.023c0-2.888,2.352-5.245,5.242-5.245h19.871
			c2.893,0,5.244,2.357,5.244,5.245c0,2.895-2.352,5.248-5.244,5.248h-14.623v9.381H161.388z"/>
	</g>
</g>
</svg>
