<?xml version="1.0" encoding="utf-8"?>
<!-- Generator: Adobe Illustrator 16.0.0, SVG Export Plug-In . SVG Version: 6.00 Build 0)  -->
<!DOCTYPE svg PUBLIC "-//W3C//DTD SVG 1.1//EN" "http://www.w3.org/Graphics/SVG/1.1/DTD/svg11.dtd">
<svg version="1.1" id="レイヤー_1" xmlns="http://www.w3.org/2000/svg" xmlns:xlink="http://www.w3.org/1999/xlink" x="0px"
	 y="0px" width="200px" height="200px" viewBox="0 0 200 200" enable-background="new 0 0 200 200" xml:space="preserve">
<g>
	<path fill="#3E3E40" d="M85.644,124.754c-2.663,0-5.326-1.019-7.354-3.044c-19.029-19.03-19.029-49.988,0-69.014l38.397-38.401
		C125.906,5.076,138.163,0,151.201,0s25.289,5.076,34.514,14.295c19.025,19.025,19.025,49.982,0,69.015l-17.563,17.551
		c-4.062,4.063-10.638,4.063-14.7,0c-4.068-4.063-4.068-10.638,0-14.708l17.551-17.556c10.919-10.913,10.919-28.676,0-39.595
		c-5.288-5.288-12.318-8.201-19.801-8.201c-7.481,0-14.513,2.913-19.801,8.201l-38.401,38.4c-10.919,10.92-10.919,28.683,0,39.596
		c4.063,4.063,4.063,10.644,0,14.712C90.969,123.735,88.306,124.754,85.644,124.754z"/>
	<path fill="#3E3E40" d="M48.799,200c-13.038,0-25.295-5.075-34.512-14.287c-19.028-19.032-19.028-49.989,0-69.016l17.558-17.557
		c4.063-4.068,10.65-4.068,14.706,0c4.06,4.063,4.066,10.645,0,14.707l-17.554,17.558c-10.918,10.918-10.918,28.682,0,39.594
		c5.285,5.287,12.319,8.201,19.802,8.201c7.48,0,14.509-2.914,19.8-8.201l38.401-38.4c10.919-10.913,10.919-28.677,0-39.596
		c-4.063-4.068-4.063-10.644,0-14.706s10.644-4.063,14.713,0c19.025,19.025,19.025,49.982,0,69.014l-38.404,38.402
		C74.093,194.925,61.837,200,48.799,200z"/>
</g>
</svg>
