<?xml version="1.0" encoding="utf-8"?><svg version="1.1" xmlns="http://www.w3.org/2000/svg" width="500px" height="100px" viewBox="0 0 500 100"><path fill="#FFFFFF" d="M244.5,51.8c0,8-2.7,14-8,18.2c-4.8,3.7-11.2,5.6-19.3,5.6v16.3c0,1-0.5,1.4-1.4,1.4h-7.1c-1,0-1.4-0.5-1.4-1.4V29.6c0-1,0.5-1.5,1.4-1.5h8.9c8.4,0,14.9,1.9,19.5,5.6C242,37.8,244.5,43.8,244.5,51.8zM233.9,51.9c0-6.4-1.2-10.8-3.4-13.3c-2.5-2.6-6.9-4-13.3-4v34.2h0.3C228.5,68.8,233.9,63.2,233.9,51.9zM265.7,16.8c0,1-0.5,1.4-1.4,1.4h-7c-1,0-1.4-0.5-1.4-1.4v-10c0-1,0.5-1.4,1.4-1.4h7c1,0,1.4,0.5,1.4,1.4V16.8zM265.7,74.5c0,1-0.5,1.5-1.4,1.5h-7c-1,0-1.4-0.5-1.4-1.5V29.6c0-1,0.5-1.5,1.4-1.5h7c1,0,1.4,0.5,1.4,1.5V74.5zM316.5,51.8c0,8-2.7,14-8,18.2c-4.8,3.7-11.2,5.6-19.3,5.6v16.3c0,1-0.5,1.4-1.4,1.4h-7.1c-1,0-1.4-0.5-1.4-1.4V29.6c0-1,0.5-1.5,1.4-1.5h8.9c8.4,0,14.9,1.9,19.5,5.6C314,37.8,316.5,43.8,316.5,51.8zM305.9,51.9c0-6.4-1.1-10.8-3.4-13.3c-2.4-2.6-6.9-4-13.3-4v34.2h0.3C300.4,68.8,305.9,63.2,305.9,51.9zM366.8,50.5c0,2-0.5,3-1.4,3h-28.2v2.6c0,3.7,1.1,6.8,3.2,9.2c2.3,2.6,5.5,4,9.5,4h9.6c1,0,1.5,0.5,1.5,1.4v3.7c0,1-0.5,1.4-1.5,1.4h-9.1c-6.8,0-12.3-1.9-16.6-5.8c-4.5-4-6.6-9.4-6.5-16.1v-5.7c0.1-6.7,2.1-11.9,6-15.7c3.7-3.6,8.6-5.4,14.7-5.4c5.7,0,10.2,1.9,13.7,5.6c3.5,3.7,5.2,8.7,5.2,14.8V50.5zM357.2,47.2v-1.8c0-3.6-0.8-6.6-2.5-8.9c-1.8-2.4-4.2-3.6-7.3-3.6c-3.2,0-5.7,1.1-7.5,3.4c-1.8,2.3-2.7,5.3-2.7,9v1.8H357.2zM388.5,16.8c0,1-0.5,1.4-1.4,1.4h-7c-1,0-1.4-0.5-1.4-1.4v-10c0-1,0.5-1.4,1.4-1.4h7c1,0,1.4,0.5,1.4,1.4V16.8zM388.5,74.5c0,1-0.5,1.5-1.4,1.5h-7c-0.9,0-1.4-0.5-1.4-1.5V29.6c0-1,0.5-1.5,1.4-1.5h7c1,0,1.4,0.5,1.4,1.5V74.5zM448.2,70.4l-0.3,4c-0.1,1-0.6,1.4-1.6,1.3c-4.8-0.4-8.1-1.9-9.9-4.6c-1.5-2.3-2.3-6.3-2.3-11.8v-7.7c0-6.2-0.6-10.5-1.8-13c-1.4-2.9-3.9-4.4-7.5-4.4c-3.7,0-6.2,1.5-7.6,4.4c-1.3,2.6-1.9,6.9-1.9,13v22.6c0,1-0.5,1.4-1.4,1.4h-7.1c-1,0-1.5-0.5-1.5-1.4V51.7c0-5.4-0.4-9.2-1.3-11.6c-0.8-2-2.2-3.4-4.2-4.2c-0.9-0.4-1.2-0.9-1.1-1.6l1-3.9c0.3-1,0.9-1.3,1.8-1.1c4.6,1.2,7.7,3.5,9.2,6.9c3.1-5.6,8.2-8.4,15.3-8.4c6.5,0,11.1,1.8,14.1,5.5c2.8,3.5,4.2,9.2,4.2,16.9v11.5c0,2.8,0.2,4.8,0.7,5.8c0.3,0.7,1,1.2,2,1.5C447.8,69.3,448.3,69.8,448.2,70.4zM500,70l-0.3,4c-0.1,1-0.6,1.4-1.6,1.3c-4.8-0.4-8-1.9-9.8-4.5c-3,3.4-7.4,5.1-13,5.1c-6.5,0-11.1-1.8-14.1-5.5c-2.8-3.5-4.2-9.2-4.2-16.9V29.4c0-1,0.5-1.4,1.4-1.4h7.1c1,0,1.4,0.5,1.4,1.4v22.8c0,6.2,0.6,10.5,1.8,13c1.4,2.9,3.9,4.4,7.5,4.4c3.7,0,6.2-1.5,7.6-4.4c1.3-2.6,1.9-6.9,1.9-13.1V29.5c0-1,0.5-1.5,1.5-1.5h7c1,0,1.5,0.5,1.5,1.5v31.9c0,2.9,0.2,4.8,0.7,5.8c0.3,0.7,1,1.2,2,1.5C499.6,68.9,500.1,69.4,500,70zM382.3,98.2c-2.4,0-3.6-0.8-3.6-3.2v-9.4h1.7v2.9h9.5V90h-9.5v4.7c0,1.5,0.7,1.9,2.2,1.9h7.6v1.5L382.3,98.2zM388.7,88c-0.8,0-1.5-0.7-1.5-1.5c0-0.9,0.7-1.6,1.5-1.6c0.8,0,1.5,0.7,1.5,1.6C390.2,87.3,389.5,88,388.7,88zM388.7,85.6c-0.5,0-0.8,0.4-0.8,0.8c0,0.5,0.4,0.8,0.8,0.8c0.5,0,0.8-0.3,0.8-0.8C389.5,86,389.2,85.6,388.7,85.6zM420.9,91.2c-1.4-2.6-1.8-2.9-3.2-2.9h-0.5l-1.8,3.9c-0.6,1.2-1.4,2.1-2.6,2.5V93c0.6-0.4,1-1.1,1.3-1.9l2-4.4h1.3c2.3,0,3.3,0.2,5,3.5c1.5,2.9,2.9,5.2,4.6,6.1v1.8C424.5,97.2,422.7,94.6,420.9,91.2zM423.6,88.7c-0.9,0-1.6-0.7-1.6-1.6c0-0.9,0.7-1.6,1.6-1.6c0.9,0,1.6,0.7,1.6,1.6C425.2,88,424.5,88.7,423.6,88.7zM423.6,86.3c-0.5,0-0.9,0.4-0.9,0.8c0,0.5,0.4,0.9,0.9,0.9c0.5,0,0.8-0.4,0.8-0.9C424.4,86.7,424.1,86.3,423.6,86.3zM457.1,90.3v8.4h-1.7v-7.3c-1.9,1-4.2,1.7-6.6,2.2V92c5.7-1.2,8.8-3.6,10.4-6.5h1.9C460.1,87.6,458.7,89.1,457.1,90.3zM492.7,94.2c-1.9,2.2-4.5,3.5-7.8,4.1v-1.6c2.7-0.7,4.8-1.7,6.4-3.5c-1.3-0.8-2.7-1.5-4.2-2.1v-1.6c1.9,0.8,3.4,1.5,5.1,2.6c0.9-1.4,1.4-3.1,1.7-4.6h-8.4V86h10.3c-0.4,2.5-0.9,4.8-2.3,6.9c1.4,0.9,2.5,1.8,3.7,2.8v2.1C495.8,96.6,494.4,95.4,492.7,94.2z"/><path fill="#EE7800" d="M7.2,19.4l-4.6,6.3L0,20.7L7.2,19.4zM77.1,91.9l1.8,4.5l2-1.2l1.5,2.2l3.5-6.5l-2.8-8l-5-4.1l-6,6L77.1,91.9zM160,43.7l5.1-4.3l-0.8-7.9l-5.7-3.4l-2.9,0.9l1.1,1.6l3.1,1.7l1.1,4.6l-5.4,2.9l-8.7,0.6l5.5,5.1L160,43.7zM122.8,79.6L118.5,90l-4.6,0.8l-2.4,3.6l11.1,0.2l14.8-11.3l-3.7-12.8l-12.5,4.9L122.8,79.6z"/><path fill="#FFE9A9" d="M7.2,19.4L18,35.1L7.2,34.5l-4.6-8.8L7.2,19.4zM35.1,0l-6.7,20.4l-0.4,15.4l0.3,3.9l5.5,2.8l4.1-0.6l2-1.2l7.9-14.8L35.1,0zM81.6,32.1l-17.2-6.4l0.9,20L81.6,32.1zM146.9,40.3l-65.3-8.3L110,51.5L146.9,40.3zM166.3,71.8l-24.6,4.8l13.1,4.6l1.7,8.1l-4.6,4.3l-2.8,1l1,2.8l12.3-0.3l4.2-16.6L166.3,71.8zM58.7,90.2l-3.3,3.7L51.7,96l-2,3.1l7.1,0.8l10.5-1.2l0.8-5.3l4-8.8l6-6v-4.8l-18.6,6.8L58.7,90.2z"/><path fill="#FABE00" d="M65.3,45.6l-25.4-5.1l7.9-14.8l16.5,0L65.3,45.6zM110,51.5L81.6,32.1L65.3,45.6L110,51.5zM58.8,69.8l0.7,11l18.6-6.8L65.3,45.6L58.8,69.8zM157.5,65.3l-5.1-19.9l-10.7,31.2l24.6-4.8L157.5,65.3zM21.9,4.1l-8.6,12.8l-6.1,2.6L18,35.1l10.4-14.7L21.9,4.1z"/><path fill="#C14D97" d="M110,51.5l23.7,18.9l-12.5,4.9l-27.4-7.4L110,51.5zM78.1,73.9l15.8-6L65.3,45.6L78.1,73.9zM64.3,25.7L54.9,15L46,3.3L35.1,0l12.7,25.7L64.3,25.7zM18,35.1l4,2.3l3.8-1.7h2.2l0.4-15.4L18,35.1zM35.1,0L21.9,4.1l6.5,16.3L35.1,0z"/><path fill="#61C1BE" d="M152.4,45.4l-10.7,31.2l-8-6.1L110,51.5l36.8-11.2L152.4,45.4zM65.3,45.6l28.7,22.3L110,51.5L65.3,45.6zM39.9,40.5l9.1,14l4.3,10.2l5.5,5.1l6.4-24.1L39.9,40.5z"/></svg>