<?xml version="1.0" encoding="utf-8"?><svg version="1.1" xmlns="http://www.w3.org/2000/svg" width="200px" height="190px" viewBox="0 0 200 190"><path fill="#EE7800" d="M8.6,23.3l-5.5,7.5L0,24.9L8.6,23.3zM92.6,110.4l2.2,5.4l2.4-1.4l1.8,2.6l4.2-7.8l-3.4-9.6l-6-5l-7.2,7.2L92.6,110.4zM192.2,52.5l6.2-5.2l-0.9-9.5l-6.9-4.1l-3.5,1.1l1.3,1.9l3.7,2.1l1.3,5.5l-6.5,3.4l-10.4,0.7l6.6,6.1L192.2,52.5zM147.5,95.6l-5.2,12.5l-5.5,1l-2.8,4.3l13.3,0.2l17.8-13.6l-4.4-15.4l-15,5.9L147.5,95.6z"/><path fill="#FFE9A9" d="M8.6,23.3l13,18.8l-13-0.6L3.1,30.9L8.6,23.3zM42.1,0l-8.1,24.5l-0.5,18.4l0.3,4.7l6.7,3.3l4.9-0.8l2.5-1.4l9.5-17.8L42.1,0zM98,38.5l-20.7-7.7l1.1,24L98,38.5zM176.5,48.5L98,38.5l34.2,23.4L176.5,48.5zM199.8,86.2L170.3,92l15.8,5.6l2,9.8l-5.6,5.2l-3.4,1.2l1.2,3.4l14.8-0.4l5-20L199.8,86.2zM70.5,108.4l-4,4.4l-4.4,2.6l-2.4,3.8l8.6,1l12.6-1.4l1-6.4l4.8-10.6l7.2-7.2v-5.8L71.5,97L70.5,108.4z"/><path fill="#FABE00" d="M78.4,54.8l-30.5-6.1l9.5-17.8l19.9,0L78.4,54.8zM132.2,61.9L98,38.5L78.4,54.8L132.2,61.9zM70.7,83.8L71.5,97l22.4-8.2l-15.4-34L70.7,83.8zM189.2,78.4l-6.2-23.9L170.3,92l29.5-5.8L189.2,78.4zM26.3,4.9L16,20.3l-7.4,3.1l13,18.8l12.5-17.6L26.3,4.9z"/><path fill="#C14D97" d="M132.2,61.9l28.5,22.7l-15,5.9l-32.9-8.9L132.2,61.9zM93.8,88.8l19-7.2L78.4,54.8L93.8,88.8zM77.3,30.8L65.9,18l-10.6-14L42.1,0l15.2,30.9L77.3,30.8zM21.6,42.1l4.8,2.8l4.6-2h2.6l0.5-18.4L21.6,42.1zM42.1,0L26.3,4.9l7.8,19.6L42.1,0z"/><path fill="#61C1BE" d="M183.1,54.6L170.3,92l-9.6-7.4l-28.5-22.7l44.3-13.5L183.1,54.6zM78.4,54.8l34.4,26.7l19.4-19.7L78.4,54.8zM47.9,48.7l11,16.8l5.2,12.2l6.6,6.2l7.7-29L47.9,48.7z"/><path fill="#413F40" d="M25.5,159.1c0,5.4-1.8,9.6-5.5,12.4c-3.3,2.5-7.7,3.8-13.2,3.8v11.1c0,0.7-0.3,1-1,1H1c-0.7,0-1-0.3-1-1v-42.6c0-0.7,0.3-1,1-1h6.1c5.7,0,10.2,1.3,13.3,3.9C23.8,149.5,25.5,153.6,25.5,159.1zM18.3,159.2c0-4.4-0.8-7.4-2.4-9.1c-1.7-1.8-4.7-2.7-9.1-2.7v23.3h0.2C14.5,170.7,18.3,166.9,18.3,159.2zM39.9,135.2c0,0.7-0.3,1-1,1h-4.8c-0.7,0-1-0.3-1-1v-6.8c0-0.7,0.3-1,1-1H39c0.7,0,1,0.3,1,1V135.2zM39.9,174.6c0,0.7-0.3,1-1,1h-4.8c-0.6,0-1-0.3-1-1V144c0-0.7,0.3-1,1-1H39c0.6,0,1,0.3,1,1V174.6zM74.6,159.1c0,5.4-1.8,9.6-5.5,12.4c-3.3,2.5-7.7,3.8-13.2,3.8v11.1c0,0.7-0.3,1-1,1h-4.9c-0.7,0-1-0.3-1-1v-42.6c0-0.7,0.3-1,1-1h6.1c5.7,0,10.2,1.3,13.3,3.9C73,149.5,74.6,153.6,74.6,159.1zM67.4,159.2c0-4.4-0.8-7.4-2.4-9.1c-1.7-1.8-4.7-2.7-9.1-2.7v23.3h0.2C63.7,170.7,67.4,166.9,67.4,159.2zM109,158.2c0,1.4-0.3,2-1,2H88.8v1.8c0,2.5,0.7,4.6,2.2,6.3c1.6,1.8,3.7,2.7,6.5,2.7h6.6c0.7,0,1,0.3,1,1v2.6c0,0.7-0.3,1-1,1h-6.2c-4.6,0-8.4-1.3-11.4-3.9c-3-2.8-4.5-6.4-4.4-11v-3.9c0.1-4.6,1.4-8.2,4.1-10.7c2.5-2.4,5.9-3.7,10.1-3.7c3.9,0,7,1.3,9.4,3.8c2.4,2.6,3.6,5.9,3.6,10.1V158.2zM102.5,156v-1.2c0-2.5-0.6-4.5-1.7-6.1c-1.2-1.6-2.9-2.4-5-2.4c-2.2,0-3.9,0.8-5.1,2.3c-1.3,1.6-1.9,3.6-1.9,6.2v1.2H102.5zM123.8,135.2c0,0.7-0.3,1-1,1h-4.8c-0.7,0-1-0.3-1-1v-6.8c0-0.7,0.3-1,1-1h4.8c0.7,0,1,0.3,1,1V135.2zM123.8,174.6c0,0.7-0.3,1-1,1h-4.8c-0.6,0-1-0.3-1-1V144c0-0.7,0.3-1,1-1h4.8c0.6,0,1,0.3,1,1V174.6zM164.6,171.8l-0.2,2.8c-0.1,0.7-0.4,1-1.1,0.9c-3.3-0.3-5.5-1.3-6.8-3.1c-1.1-1.6-1.6-4.3-1.6-8.1V159c0-4.2-0.4-7.2-1.2-8.9c-0.9-2-2.7-3-5.1-3c-2.5,0-4.2,1-5.2,3c-0.9,1.8-1.3,4.7-1.3,8.9v15.5c0,0.7-0.3,1-1,1h-4.8c-0.7,0-1-0.3-1-1V159c0-3.7-0.3-6.3-0.9-7.9c-0.5-1.4-1.5-2.3-2.9-2.9c-0.6-0.3-0.9-0.6-0.7-1.1l0.7-2.6c0.2-0.7,0.6-0.9,1.2-0.7c3.1,0.8,5.2,2.4,6.3,4.7c2.1-3.8,5.6-5.7,10.5-5.7c4.4,0,7.6,1.3,9.6,3.8c1.9,2.4,2.9,6.3,2.9,11.5v7.8c0,1.9,0.2,3.3,0.5,3.9c0.2,0.5,0.7,0.8,1.4,1S164.7,171.4,164.6,171.8zM200,171.6l-0.2,2.7c-0.1,0.7-0.4,1-1.1,0.9c-3.3-0.3-5.5-1.3-6.7-3.1c-2.1,2.3-5,3.5-8.9,3.5c-4.4,0-7.6-1.3-9.6-3.8c-1.9-2.4-2.9-6.3-2.9-11.5v-16.5c0-0.7,0.3-1,1-1h4.9c0.7,0,1,0.3,1,1v15.5c0,4.2,0.4,7.2,1.2,8.9c0.9,2,2.7,3,5.1,3c2.5,0,4.2-1,5.2-3c0.9-1.8,1.3-4.7,1.3-8.9v-15.5c0-0.7,0.3-1,1-1h4.8c0.7,0,1,0.3,1,1v21.8c0,2,0.2,3.3,0.5,4c0.2,0.5,0.7,0.8,1.4,1C199.7,170.8,200,171.1,200,171.6zM119.6,189.6c-1.6,0-2.5-0.6-2.5-2.2V181h1.1v2h6.5v1h-6.5v3.2c0,1,0.5,1.3,1.5,1.3h5.2v1L119.6,189.6zM124,182.6c-0.6,0-1-0.5-1-1c0-0.6,0.5-1.1,1-1.1c0.6,0,1.1,0.5,1.1,1.1C125,182.1,124.5,182.6,124,182.6zM124,181c-0.3,0-0.5,0.3-0.5,0.6c0,0.3,0.2,0.6,0.5,0.6c0.3,0,0.6-0.2,0.6-0.6C124.5,181.3,124.3,181,124,181zM145.9,184.8c-1-1.8-1.2-2-2.2-2h-0.3l-1.2,2.7c-0.4,0.8-0.9,1.5-1.8,1.7V186c0.4-0.3,0.7-0.8,0.9-1.3l1.3-3h0.9c1.5,0,2.2,0.1,3.4,2.4c1.1,2,2,3.5,3.1,4.2v1.2C148.4,188.9,147.2,187.2,145.9,184.8zM147.8,183.1c-0.6,0-1.1-0.5-1.1-1.1c0-0.6,0.5-1.1,1.1-1.1c0.6,0,1.1,0.5,1.1,1.1C148.9,182.7,148.4,183.1,147.8,183.1zM147.8,181.5c-0.3,0-0.6,0.3-0.6,0.6c0,0.3,0.3,0.6,0.6,0.6c0.3,0,0.6-0.3,0.6-0.6C148.4,181.7,148.1,181.5,147.8,181.5zM170.6,184.2v5.8h-1.2v-5c-1.3,0.7-2.9,1.2-4.5,1.5v-1.1c3.9-0.8,6-2.4,7.1-4.4h1.3C172.7,182.4,171.8,183.4,170.6,184.2zM195,186.9c-1.3,1.5-3.1,2.4-5.3,2.8v-1.1c1.8-0.5,3.3-1.1,4.4-2.4c-0.9-0.6-1.8-1-2.8-1.4v-1.1c1.3,0.5,2.3,1.1,3.5,1.7c0.6-1,1-2.1,1.2-3.1h-5.7v-1h7c-0.2,1.7-0.6,3.3-1.6,4.7c0.9,0.6,1.7,1.2,2.5,1.9v1.4C197.1,188.5,196.2,187.7,195,186.9z"/></svg>