<?xml version="1.0" encoding="utf-8"?>
<!-- Generator: Adobe Illustrator 16.0.0, SVG Export Plug-In . SVG Version: 6.00 Build 0)  -->
<!DOCTYPE svg PUBLIC "-//W3C//DTD SVG 1.1//EN" "http://www.w3.org/Graphics/SVG/1.1/DTD/svg11.dtd">
<svg version="1.1" id="レイヤー_1" xmlns="http://www.w3.org/2000/svg" xmlns:xlink="http://www.w3.org/1999/xlink" x="0px"
	 y="0px" width="200px" height="190px" viewBox="0 0 200 190" enable-background="new 0 0 200 190" xml:space="preserve">
<g>
	<g>
		<g>
			<g>
				<path fill="#403E3F" d="M26.215,159.086c0,5.435-1.819,9.567-5.457,12.402c-3.271,2.547-7.669,3.82-13.191,3.82v11.144
					c0,0.655-0.331,0.983-0.989,0.983H1.712c-0.661,0-0.99-0.328-0.99-0.983v-42.566c0-0.683,0.328-1.023,0.983-1.023h6.099
					c5.743,0,10.189,1.286,13.336,3.859C24.523,149.478,26.215,153.6,26.215,159.086z M18.977,159.15
					c0-4.354-0.784-7.382-2.353-9.088c-1.673-1.809-4.692-2.713-9.056-2.713v23.328h0.235
					C15.252,170.677,18.977,166.835,18.977,159.15z"/>
				<path fill="#403E3F" d="M40.661,135.192c0,0.655-0.328,0.983-0.983,0.983h-4.761c-0.655,0-0.983-0.328-0.983-0.983v-6.807
					c0-0.656,0.328-0.982,0.983-0.982h4.761c0.655,0,0.983,0.326,0.983,0.982V135.192z M40.661,174.573
					c0,0.681-0.324,1.022-0.972,1.022h-4.783c-0.649,0-0.973-0.342-0.973-1.022v-30.647c0-0.683,0.324-1.023,0.973-1.023h4.783
					c0.648,0,0.972,0.341,0.972,1.023V174.573z"/>
				<path fill="#403E3F" d="M75.369,159.086c0,5.435-1.818,9.567-5.457,12.402c-3.271,2.547-7.669,3.82-13.19,3.82v11.144
					c0,0.655-0.33,0.983-0.989,0.983h-4.867c-0.66,0-0.989-0.328-0.989-0.983v-42.566c0-0.683,0.328-1.023,0.983-1.023h6.099
					c5.742,0,10.189,1.286,13.336,3.859C73.677,149.478,75.369,153.6,75.369,159.086z M68.129,159.15
					c0-4.354-0.784-7.382-2.353-9.088c-1.673-1.809-4.691-2.713-9.056-2.713v23.328h0.235
					C64.404,170.677,68.129,166.835,68.129,159.15z"/>
				<path fill="#403E3F" d="M109.746,158.167c0,1.364-0.327,2.045-0.981,2.045H89.486v1.771c0,2.545,0.719,4.644,2.158,6.296
					c1.569,1.81,3.728,2.714,6.476,2.714h6.553c0.681,0,1.021,0.329,1.021,0.984v2.557c0,0.655-0.342,0.983-1.022,0.983h-6.216
					c-4.643,0-8.433-1.312-11.369-3.934c-3.043-2.754-4.525-6.426-4.446-11.016v-3.895c0.079-4.592,1.446-8.157,4.104-10.703
					c2.498-2.438,5.853-3.657,10.061-3.657c3.866,0,6.99,1.279,9.371,3.835c2.38,2.559,3.57,5.934,3.57,10.132V158.167z
					 M103.176,155.924v-1.219c0-2.493-0.566-4.511-1.696-6.06c-1.21-1.625-2.881-2.439-5.011-2.439
					c-2.157,0-3.861,0.781-5.109,2.342c-1.25,1.561-1.874,3.613-1.874,6.157v1.219H103.176z"/>
				<path fill="#403E3F" d="M124.565,135.192c0,0.655-0.328,0.983-0.983,0.983h-4.761c-0.656,0-0.983-0.328-0.983-0.983v-6.807
					c0-0.656,0.327-0.982,0.983-0.982h4.761c0.655,0,0.983,0.326,0.983,0.982V135.192z M124.565,174.573
					c0,0.681-0.324,1.022-0.972,1.022h-4.783c-0.648,0-0.973-0.342-0.973-1.022v-30.647c0-0.683,0.324-1.023,0.973-1.023h4.783
					c0.647,0,0.972,0.341,0.972,1.023V174.573z"/>
				<path fill="#403E3F" d="M165.37,171.779l-0.238,2.754c-0.052,0.655-0.421,0.957-1.105,0.904
					c-3.266-0.288-5.517-1.323-6.754-3.107c-1.055-1.6-1.58-4.289-1.58-8.064v-5.272c0-4.223-0.405-7.186-1.216-8.891
					c-0.942-1.992-2.655-2.99-5.138-2.99c-2.511,0-4.25,0.998-5.217,2.99c-0.863,1.758-1.295,4.722-1.295,8.891v15.461
					c0,0.655-0.328,0.983-0.983,0.983h-4.839c-0.683,0-1.022-0.328-1.022-0.983v-15.461c0-3.672-0.302-6.308-0.905-7.907
					c-0.524-1.363-1.482-2.321-2.872-2.872c-0.604-0.262-0.853-0.63-0.747-1.102l0.669-2.636c0.184-0.655,0.59-0.905,1.219-0.747
					c3.147,0.812,5.233,2.387,6.256,4.721c2.099-3.803,5.586-5.705,10.464-5.705c4.406,0,7.607,1.259,9.6,3.776
					c1.914,2.414,2.872,6.256,2.872,11.528v7.828c0,1.941,0.157,3.253,0.472,3.936c0.236,0.471,0.695,0.805,1.377,1.002
					S165.395,171.333,165.37,171.779z"/>
				<path fill="#403E3F" d="M200.717,171.535l-0.236,2.72c-0.053,0.659-0.407,0.96-1.063,0.908
					c-3.253-0.263-5.481-1.284-6.688-3.069c-2.071,2.309-5.036,3.462-8.891,3.462c-4.406,0-7.606-1.259-9.599-3.776
					c-1.916-2.413-2.873-6.255-2.873-11.527v-16.483c0-0.655,0.329-0.984,0.989-0.984h4.867c0.658,0,0.988,0.329,0.988,0.984v15.54
					c0,4.223,0.405,7.187,1.217,8.891c0.941,1.994,2.653,2.99,5.139,2.99c2.509,0,4.248-1,5.216-2.998
					c0.862-1.761,1.294-4.733,1.294-8.917v-15.463c0-0.685,0.341-1.027,1.022-1.027h4.801c0.681,0,1.022,0.343,1.022,1.025v21.771
					c0,1.971,0.157,3.3,0.473,3.983c0.235,0.472,0.695,0.809,1.377,1.004C200.455,170.764,200.769,171.087,200.717,171.535z"/>
			</g>
		</g>
		<g>
			<g>
				<path fill="#403E3F" d="M120.3,189.571c-1.628,0-2.463-0.56-2.463-2.188v-6.427h1.142v1.997h6.511v1.036h-6.511v3.214
					c0,0.994,0.465,1.332,1.532,1.332h5.18v1.047L120.3,189.571z M124.686,182.574c-0.57,0-1.045-0.475-1.045-1.047
					c0-0.592,0.475-1.067,1.045-1.067c0.582,0,1.058,0.476,1.058,1.067C125.744,182.099,125.268,182.574,124.686,182.574z
					 M124.686,180.957c-0.306,0-0.549,0.264-0.549,0.57c0,0.319,0.243,0.551,0.549,0.551c0.318,0,0.572-0.231,0.572-0.551
					C125.258,181.22,125.004,180.957,124.686,180.957z"/>
				<path fill="#403E3F" d="M146.648,184.761c-0.973-1.796-1.248-1.976-2.21-1.976h-0.349l-1.204,2.652
					c-0.392,0.835-0.942,1.459-1.776,1.691v-1.142c0.401-0.254,0.687-0.782,0.909-1.3l1.331-2.991h0.856
					c1.543,0,2.22,0.149,3.383,2.367c1.057,1.966,1.997,3.53,3.15,4.187v1.236C149.111,188.884,147.937,187.129,146.648,184.761z
					 M148.519,183.091c-0.603,0-1.089-0.485-1.089-1.088c0-0.592,0.486-1.1,1.089-1.1s1.088,0.508,1.088,1.1
					C149.607,182.606,149.122,183.091,148.519,183.091z M148.519,181.432c-0.317,0-0.582,0.254-0.582,0.571
					c0,0.327,0.265,0.582,0.582,0.582c0.316,0,0.57-0.255,0.57-0.582C149.089,181.686,148.835,181.432,148.519,181.432z"/>
				<path fill="#403E3F" d="M171.367,184.202v5.751h-1.174v-5.011c-1.32,0.697-2.854,1.162-4.482,1.469v-1.077
					c3.881-0.804,6.017-2.432,7.126-4.419h1.311C173.471,182.309,172.518,183.377,171.367,184.202z"/>
				<path fill="#403E3F" d="M195.695,186.855c-1.269,1.47-3.096,2.357-5.306,2.822v-1.067c1.85-0.455,3.266-1.142,4.376-2.367
					c-0.898-0.551-1.839-1.037-2.844-1.448v-1.121c1.278,0.518,2.326,1.057,3.468,1.743c0.623-0.973,0.981-2.146,1.174-3.139h-5.719
					v-1.024h7.05c-0.243,1.691-0.634,3.265-1.576,4.734c0.932,0.613,1.734,1.236,2.516,1.913v1.448
					C197.82,188.452,196.888,187.679,195.695,186.855z"/>
			</g>
		</g>
	</g>
	<g>
		<g>
			<polygon fill="#ED7700" points="0.722,24.876 3.798,30.812 9.324,23.301 			"/>
			<polygon fill="#ED7700" points="93.358,110.309 95.555,115.702 97.956,114.297 99.749,116.893 103.936,109.117 100.551,99.529 
				94.563,94.545 87.375,101.721 			"/>
			<polygon fill="#ED7700" points="192.969,52.424 199.139,47.25 198.229,37.771 191.35,33.673 187.858,34.8 189.157,36.672 
				192.842,38.742 194.137,44.251 187.622,47.688 177.19,48.409 183.782,54.529 			"/>
			<polygon fill="#ED7700" points="148.239,95.536 143.083,108.019 137.538,108.973 134.698,113.302 148.036,113.499 
				165.807,99.934 161.413,84.566 146.444,90.474 			"/>
		</g>
		<g>
			<polygon fill="#FFE8A9" points="3.798,30.812 9.324,41.416 22.32,42.059 9.324,23.301 			"/>
			<polygon fill="#FFE8A9" points="42.873,-0.047 34.787,24.412 34.296,42.853 34.624,47.527 41.278,50.835 46.202,50.069 
				48.653,48.646 58.118,30.812 			"/>
			<polygon fill="#FFE8A9" points="98.709,38.497 77.997,30.787 79.118,54.789 			"/>
			<polygon fill="#FFE8A9" points="177.19,48.409 98.709,38.497 132.926,61.86 			"/>
			<polygon fill="#FFE8A9" points="200.532,86.156 170.991,91.951 186.754,97.537 188.752,107.318 183.168,112.505 179.776,113.695 
				180.959,117.098 195.727,116.699 200.723,96.742 			"/>
			<polygon fill="#FFE8A9" points="71.211,108.312 67.219,112.704 62.827,115.304 60.442,119.083 69.024,120.085 81.586,118.692 
				82.584,112.301 87.375,101.721 94.563,94.545 94.563,88.758 72.206,96.938 			"/>
		</g>
		<g>
			<polygon fill="#F9BE00" points="77.997,30.787 58.118,30.812 48.653,48.646 79.118,54.789 			"/>
			<polygon fill="#F9BE00" points="132.926,61.86 98.709,38.497 79.118,54.789 			"/>
			<polygon fill="#F9BE00" points="71.407,83.772 72.206,96.938 94.563,88.758 79.118,54.789 			"/>
			<polygon fill="#F9BE00" points="189.954,78.385 183.782,54.529 170.991,91.951 200.532,86.156 			"/>
			<polygon fill="#F9BE00" points="27.022,4.836 16.69,20.233 9.324,23.301 22.32,42.059 34.787,24.412 			"/>
		</g>
		<g>
			<polygon fill="#BF4D96" points="113.557,81.539 146.444,90.474 161.413,84.566 132.926,61.86 			"/>
			<polygon fill="#BF4D96" points="94.563,88.758 113.557,81.539 79.118,54.789 			"/>
			<polygon fill="#BF4D96" points="77.997,30.787 66.618,17.915 56.008,3.898 42.873,-0.047 58.118,30.812 			"/>
			<polygon fill="#BF4D96" points="22.32,42.059 27.105,44.877 31.698,42.853 34.296,42.853 34.787,24.412 			"/>
			<polygon fill="#BF4D96" points="42.873,-0.047 27.022,4.836 34.787,24.412 			"/>
		</g>
		<g>
			<polygon fill="#60C0BD" points="177.19,48.409 132.926,61.86 161.413,84.566 170.991,91.951 183.782,54.529 			"/>
			<polygon fill="#60C0BD" points="79.118,54.789 113.557,81.539 132.926,61.86 			"/>
			<polygon fill="#60C0BD" points="48.653,48.646 59.643,65.406 64.799,77.616 71.407,83.772 79.118,54.789 			"/>
		</g>
	</g>
</g>
</svg>
