<?xml version="1.0" encoding="utf-8"?>
<!-- Generator: Adobe Illustrator 16.0.0, SVG Export Plug-In . SVG Version: 6.00 Build 0)  -->
<!DOCTYPE svg PUBLIC "-//W3C//DTD SVG 1.1//EN" "http://www.w3.org/Graphics/SVG/1.1/DTD/svg11.dtd">
<svg version="1.1" id="レイヤー_1" xmlns="http://www.w3.org/2000/svg" xmlns:xlink="http://www.w3.org/1999/xlink" x="0px"
	 y="0px" width="200px" height="200px" viewBox="0 0 200 200" enable-background="new 0 0 200 200" xml:space="preserve">
<g>
	<path fill="#3E3E40" d="M50,69.427c0-4.792,3.921-8.713,8.713-8.713h82.574c4.792,0,8.713,3.921,8.713,8.713v4.003
		c0,4.792-3.921,8.713-8.713,8.713H58.713c-4.792,0-8.713-3.921-8.713-8.713V69.427z M50,97.998c0-4.791,3.921-8.712,8.713-8.712
		h82.574c4.792,0,8.713,3.921,8.713,8.712v4.004c0,4.791-3.921,8.712-8.713,8.712H58.713c-4.792,0-8.713-3.921-8.713-8.712V97.998z
		 M50,126.569c0-4.792,3.921-8.713,8.713-8.713h82.574c4.792,0,8.713,3.921,8.713,8.713v4.004c0,4.792-3.921,8.713-8.713,8.713
		H58.713c-4.792,0-8.713-3.921-8.713-8.713V126.569z"/>
	<path fill="#3E3E40" d="M100,15c46.869,0,85,38.131,85,85s-38.131,85-85,85s-85-38.131-85-85S53.131,15,100,15 M100,0
		C44.771,0,0,44.771,0,100s44.771,100,100,100s100-44.771,100-100S155.229,0,100,0L100,0z"/>
</g>
</svg>
