<?xml version="1.0" encoding="utf-8"?>
<!-- Generator: Adobe Illustrator 16.0.0, SVG Export Plug-In . SVG Version: 6.00 Build 0)  -->
<!DOCTYPE svg PUBLIC "-//W3C//DTD SVG 1.1//EN" "http://www.w3.org/Graphics/SVG/1.1/DTD/svg11.dtd">
<svg version="1.1" id="レイヤー_1" xmlns="http://www.w3.org/2000/svg" xmlns:xlink="http://www.w3.org/1999/xlink" x="0px"
	 y="0px" width="200px" height="200px" viewBox="0 0 200 200" enable-background="new 0 0 200 200" xml:space="preserve">
<path fill="#3E3E40" d="M156.098,118.731c-24.141,0-43.707-19.566-43.707-43.707s19.566-43.707,43.707-43.707
	s43.707,19.566,43.707,43.707L200,81.269c0,48.28-39.135,87.414-87.414,87.414v-24.976c16.676,0,32.354-6.493,44.146-18.292
	c2.273-2.269,4.341-4.684,6.219-7.22C160.72,118.549,158.427,118.731,156.098,118.731z M43.707,118.731
	C19.566,118.731,0,99.165,0,75.024s19.566-43.707,43.707-43.707s43.707,19.566,43.707,43.707l0.195,6.244
	c0,48.28-39.134,87.414-87.414,87.414v-24.976c16.677,0,32.354-6.493,44.146-18.292c2.273-2.269,4.342-4.684,6.219-7.22
	C48.329,118.549,46.037,118.731,43.707,118.731z"/>
</svg>
