<?xml version="1.0" encoding="utf-8"?>
<!-- Generator: Adobe Illustrator 16.0.0, SVG Export Plug-In . SVG Version: 6.00 Build 0)  -->
<!DOCTYPE svg PUBLIC "-//W3C//DTD SVG 1.1//EN" "http://www.w3.org/Graphics/SVG/1.1/DTD/svg11.dtd">
<svg version="1.1" id="レイヤー_1" xmlns="http://www.w3.org/2000/svg" xmlns:xlink="http://www.w3.org/1999/xlink" x="0px"
	 y="0px" width="200px" height="200px" viewBox="0 0 200 200" enable-background="new 0 0 200 200" xml:space="preserve">
<path fill="#3E3E40" d="M43.902,81.269c24.135,0,43.707,19.566,43.707,43.707s-19.572,43.707-43.707,43.707
	c-24.141,0-43.707-19.566-43.707-43.707L0,118.731c0-48.28,39.135-87.414,87.414-87.414v24.976
	c-16.676,0-32.354,6.493-44.146,18.292c-2.279,2.269-4.341,4.684-6.219,7.22C39.28,81.451,41.573,81.269,43.902,81.269z
	 M156.293,81.269c24.134,0,43.707,19.566,43.707,43.707s-19.573,43.707-43.707,43.707c-24.141,0-43.707-19.566-43.707-43.707
	l-0.195-6.244c0-48.28,39.134-87.414,87.414-87.414v24.976c-16.677,0-32.354,6.493-44.146,18.292
	c-2.28,2.269-4.342,4.684-6.219,7.22C151.677,81.451,153.963,81.269,156.293,81.269L156.293,81.269z"/>
</svg>
