<?xml version="1.0" encoding="utf-8"?>
<!-- Generator: Adobe Illustrator 16.0.0, SVG Export Plug-In . SVG Version: 6.00 Build 0)  -->
<!DOCTYPE svg PUBLIC "-//W3C//DTD SVG 1.1//EN" "http://www.w3.org/Graphics/SVG/1.1/DTD/svg11.dtd">
<svg version="1.1" id="レイヤー_1" xmlns="http://www.w3.org/2000/svg" xmlns:xlink="http://www.w3.org/1999/xlink" x="0px"
	 y="0px" width="200px" height="200px" viewBox="0 0 200 200" enable-background="new 0 0 200 200" xml:space="preserve">
<g>
	<path fill="#3E3E40" d="M123.332,99.997c0,3.223-1.152,6.455-3.438,9.033l-76.952,86.425c-5,5.596-13.574,6.094-19.18,1.104
		c-5.586-4.98-6.094-13.564-1.094-19.16l68.905-77.401L22.669,22.606c-5-5.605-4.492-14.189,1.094-19.17
		c5.605-4.98,14.18-4.492,19.18,1.113l76.952,86.425C122.18,93.543,123.332,96.775,123.332,99.997z"/>
	<path fill="#3E3E40" d="M200,99.997c0,3.223-1.152,6.455-3.438,9.033l-76.951,86.425c-5,5.596-13.574,6.094-19.18,1.104
		c-5.586-4.98-6.094-13.564-1.094-19.16l68.905-77.401L99.337,22.606c-5-5.605-4.492-14.189,1.094-19.17
		c5.606-4.98,14.18-4.492,19.18,1.113l76.951,86.425C198.848,93.543,200,96.775,200,99.997z"/>
</g>
</svg>
