<?xml version="1.0" encoding="utf-8"?>
<!-- Generator: Adobe Illustrator 16.0.0, SVG Export Plug-In . SVG Version: 6.00 Build 0)  -->
<!DOCTYPE svg PUBLIC "-//W3C//DTD SVG 1.1//EN" "http://www.w3.org/Graphics/SVG/1.1/DTD/svg11.dtd">
<svg version="1.1" id="レイヤー_1" xmlns="http://www.w3.org/2000/svg" xmlns:xlink="http://www.w3.org/1999/xlink" x="0px"
	 y="0px" width="200px" height="200px" viewBox="0 0 200 200" enable-background="new 0 0 200 200" xml:space="preserve">
<path fill="#3E3E40" d="M188.835,117.707C188.835,57.94,140.234,9.3,80.533,9.3V0.158C34.625,9.589,0,50.309,0,98.962
	c0,55.628,45.265,100.88,100.893,100.88c49.219,0,90.293-35.439,99.107-82.136H188.835z M93.131,117.602
	c-6.976,0-12.637-5.622-12.637-12.597c0-6.935,5.661-12.61,12.637-12.61c7,0,12.662,5.675,12.662,12.61
	C105.793,111.979,100.131,117.602,93.131,117.602z M124.904,117.707c0-11.888-4.623-23.079-13.004-31.459
	c-8.393-8.394-19.531-13.03-31.393-13.03V55.024c34.545,0,62.668,28.11,62.668,62.682H124.904z M157.191,117.707
	c0-42.309-34.401-76.737-76.658-76.737V22.764c52.332,0,94.916,42.611,94.916,94.943H157.191z"/>
</svg>
