<?xml version="1.0" encoding="utf-8"?>
<!-- Generator: Adobe Illustrator 16.0.0, SVG Export Plug-In . SVG Version: 6.00 Build 0)  -->
<!DOCTYPE svg PUBLIC "-//W3C//DTD SVG 1.1//EN" "http://www.w3.org/Graphics/SVG/1.1/DTD/svg11.dtd">
<svg version="1.1" id="レイヤー_1" xmlns="http://www.w3.org/2000/svg" xmlns:xlink="http://www.w3.org/1999/xlink" x="0px"
	 y="0px" width="200px" height="200px" viewBox="0 0 200 200" enable-background="new 0 0 200 200" xml:space="preserve">
<g>
	<path fill="#3E3E40" d="M77.695,39.31c21.185,0,38.424,17.24,38.424,38.425s-17.239,38.425-38.424,38.425
		c-21.198,0-38.438-17.24-38.438-38.425S56.497,39.31,77.695,39.31 M77.695,25.026c-29.115,0-52.722,23.606-52.722,52.708
		c0,29.128,23.606,52.708,52.722,52.708c29.114,0,52.708-23.58,52.708-52.708C130.403,48.633,106.81,25.026,77.695,25.026
		L77.695,25.026z"/>
	<path fill="#3E3E40" d="M169.947,199.948l-3.932-0.248l-52.891-52.903c-10.977,5.664-23.112,8.62-35.43,8.62
		C34.844,155.417,0,120.573,0,77.734S34.844,0.052,77.695,0.052c42.838,0,77.695,34.844,77.695,77.683
		c0,12.331-2.969,24.453-8.62,35.417L200,166.38l-0.092,3.086c-0.039,1.303-0.638,13.086-9.531,21.979
		C182.695,199.128,173.528,199.948,169.947,199.948z M115.416,128.894l56.615,56.602c2.174-0.352,5.43-1.342,8.255-4.167
		c3.021-3.021,4.349-6.94,4.922-9.544l-56.341-56.342l2.93-4.791c6.08-9.961,9.31-21.328,9.31-32.917
		c0-34.961-28.45-63.398-63.411-63.398c-34.975,0-63.412,28.438-63.412,63.398s28.438,63.398,63.412,63.398
		c11.563,0,22.955-3.216,32.93-9.31L115.416,128.894z"/>
</g>
</svg>
