<svg class="defs" version="1.1" xmlns="http://www.w3.org/2000/svg" xmlns:xlink="http://www.w3.org/1999/xlink" width="200" height="200" >

<defs>
<symbol id="home" viewBox="0 0 200 200"><path d="M83.8,145.9h32.4V108H83.8V145.9zM100,18.7L0,116.2h30.5v65.1h139.1v-65.1H200L100,18.7zM148.9,97.2v65.1H51V97.2h-0.5L100,48.9l49.5,48.2H148.9z"/></symbol>
<symbol id="cat" viewBox="0 0 200 200"><path d="M38.6,42c0,10.7-8.6,19.3-19.3,19.3C8.7,61.4,0,52.7,0,42c0-10.7,8.7-19.3,19.3-19.3C30,22.7,38.6,31.4,38.6,42zM19.3,80.7C8.7,80.7,0,89.3,0,100s8.7,19.3,19.3,19.3c10.7,0,19.3-8.6,19.3-19.3S30,80.7,19.3,80.7zM19.3,138.6C8.7,138.6,0,147.3,0,158c0,10.7,8.7,19.3,19.3,19.3c10.7,0,19.3-8.7,19.3-19.3C38.6,147.3,30,138.6,19.3,138.6zM200,22.7v38.6H69.6c-9.7,0-17.6-7.9-17.6-17.6v-3.5c0-9.7,7.9-17.6,17.6-17.6H200zM189.5,33.3H69.6c-3.8,0-7,3.2-7,7v3.5c0,3.8,3.2,7,7,7h119.9V33.3zM200,80.7v38.6H69.6c-9.7,0-17.6-7.9-17.6-17.6v-3.5c0-9.7,7.9-17.6,17.6-17.6H200zM69.6,91.2c-3.8,0-7,3.2-7,7v3.5c0,3.8,3.2,7,7,7h119.9V91.2H69.6zM200,138.6v38.6H69.6c-9.7,0-17.6-7.9-17.6-17.6v-3.5c0-9.7,7.9-17.6,17.6-17.6H200zM69.6,149.2c-3.8,0-7,3.2-7,7v3.5c0,3.8,3.2,7,7,7h119.9v-17.6H69.6z"/></symbol>
<symbol id="dogs" viewBox="0 0 200 200"><path d="M200,81.2c0,17.7-9.7,32.1-21.8,32.1c-12,0-21.8-14.4-21.8-32.1c0-17.7,9.7-32.1,21.8-32.1C190.3,49.2,200,63.5,200,81.2zM133.1,0c-12,0-21.8,14.4-21.8,32.1s9.7,32.1,21.8,32.1c12,0,21.8-14.4,21.8-32.1S145.2,0,133.1,0zM0,81.2c0,17.7,9.7,32.1,21.8,32.1S43.5,99,43.5,81.2c0-17.7-9.7-32.1-21.8-32.1S0,63.5,0,81.2zM45.1,32.1c0,17.7,9.7,32.1,21.8,32.1s21.8-14.4,21.8-32.1S78.9,0,66.9,0S45.1,14.4,45.1,32.1zM99.6,96.5c-4.3,0-9.5,4.1-13.8,10.9l-33.6,53.5c-4.7,7.4-5.1,12.6-4.3,14.1c0.8,1.5,5.4,3.9,14.2,3.9H137c8.8,0,13.4-2.4,14.2-3.9c0.8-1.5,0.4-6.7-4.3-14.1l-33.6-53.5C109.1,100.5,103.9,96.5,99.6,96.5M99.6,75.3c11.5,0,23,6.9,31.7,20.8l33.6,53.5c17.4,27.7,4.9,50.4-27.9,50.4H62.2c-32.7,0-45.3-22.7-27.9-50.4l33.6-53.5C76.6,82.2,88.1,75.3,99.6,75.3L99.6,75.3z"/></symbol>
<symbol id="pipeinu" viewBox="0 0 200 200"><path d="M199.9,92.7c-0.3-1.5-1.3-2.8-2.7-3.3l-39.4-14.7l-21.4-24.2l-20.6-27.2c-0.6-0.7-1.3-1.3-2.2-1.5L87.9,14c0,0,0,0-0.1,0c0,0-0.1,0-0.1,0c0,0,0,0-0.1,0c-0.3-0.1-0.6-0.1-1-0.1c0,0-0.1,0-0.1,0c0,0-0.1,0-0.1,0c0,0-0.1,0-0.1,0c-0.1,0-0.3,0.1-0.4,0.1c-0.1,0-0.1,0-0.2,0c-0.1,0-0.2,0-0.4,0.1c0,0,0,0,0,0l-31,9.5c-0.1,0-0.3,0.1-0.4,0.2c-0.1,0-0.2,0.1-0.3,0.1c-0.3,0.2-0.6,0.3-0.8,0.5c0,0,0,0,0,0c-0.3,0.2-0.5,0.5-0.7,0.8c0,0-0.1,0.1-0.1,0.1l-19.5,29l-12.8,5.3l-16.3,3c-1.3,0.2-2.5,1.1-3.1,2.3c-0.6,1.2-0.6,2.7,0,3.9l6,11.6c0,0,0,0,0,0c0,0,0,0,0,0l10.8,20.7c0.7,1.4,2.1,2.2,3.6,2.3l24.3,1.2l8.4,5c0.7,0.4,1.4,0.6,2.2,0.6c0.6,0,1.2-0.1,1.7-0.4l8.1-3.6h0.1l0.4,5.1c0.1,1.5,1,2.9,2.4,3.6l13,6.5c0.6,0.3,1.3,0.5,1.9,0.5c0.2,0,0.4,0,0.7-0.1l9.6-1.5c0.5-0.1,1-0.3,1.5-0.5l1.3-0.7l19,29l9.9,23.5c0.2,0.6,0.6,1.1,1,1.5l12.9,12c0.8,0.8,1.9,1.2,2.9,1.2c0.4,0,0.8-0.1,1.2-0.2c1.5-0.4,2.6-1.6,3-3l14.7-55.3l37.2-30.9C199.6,95.8,200.2,94.2,199.9,92.7zM104.4,110.2L119,82.7l32.1,0l1.7,37.2l-21.8-4.4L104.4,110.2zM129.6,55.8c0.1,0.1,0.1,0.2,0.2,0.3l15.9,18l-26.6,0L98.5,32.3l-3.6-7.2l14.8,4.5L129.6,55.8zM70.5,53.3l-4.8-12.1l-4.3-10.8l18.5-5.7L70.5,53.3zM37.2,61.7c0.8-0.3,1.5-0.9,1.9-1.6l15.6-23.3l1.4,3.6L66,65.3L51.6,85.6l-5.1,7.2L27.7,65.7L37.2,61.7zM23.8,94.9l-8.4-16.1l5.6-7.6l17,24.5L23.8,94.9zM63.1,98l-7,3.1l-3.4-2l13.4-19l-0.3,11.4l-0.2,6.2h-0.9C64.2,97.6,63.6,97.7,63.1,98zM84.2,113.1l-9.6-4.8l-0.5-6.5l0.9-35.2l12.3-37.2l14.4,29.2l9.7,19.7l-16.9,31.8l-3,1.8L84.2,113.1zM140,173.8l-7-6.5l-9.7-23c-0.1-0.2-0.2-0.5-0.4-0.7l-15.8-24.1l39.4,8l5.5,1.1L140,173.8zM161.3,116.4l-1.5-31.7l27.4,10.2L161.3,116.4z"/></symbol>
<symbol id="mail" viewBox="0 0 200 200"><path d="M177.6,143.2l-11.9,5.6l-28.1-60.2L100,107.3L62.4,88.5l-28.1,60.2l-12-5.5l28.3-60.6L0,57.4V160h200V57.3l-50.6,25.3L177.6,143.2zM0,40v2.7l100,50l100-50V40H0z"/></symbol>
<symbol id="like" viewBox="0 0 200 200"><path d="M89.3,90.5l47.3-65.6h22.6l-18.3,49.5H200l-14.8,91.4H89.3V90.5zM0,175.1h71.7V89.8H0V175.1z"/></symbol>
<symbol id="fb1" viewBox="0 0 200 200"><path d="M123.8,38.1h31.7V0h-31.7C97.6,0,76.2,22.4,76.2,50v19.2H44.4v38.2h31.7V200h39.7v-92.5h39.7V69.2h-39.7V49.6C115.9,43,120.1,38.1,123.8,38.1z"/></symbol>
<symbol id="tw1" viewBox="0 0 200 200"><path d="M200,40.3c-7.4,3.1-15.3,5.3-23.6,6.2c8.5-4.9,15-12.6,18-21.9c-7.9,4.5-16.7,7.8-26.1,9.6c-7.5-7.7-18.1-12.5-30-12.5c-22.7,0-41,17.7-41,39.5c0,3.1,0.4,6.1,1.1,9C64.4,68.6,34.2,52.9,13.9,29c-3.5,5.8-5.6,12.6-5.6,19.9c0,13.7,7.2,25.8,18.3,32.9c-6.7-0.2-13.1-2-18.6-4.9c0,0.2,0,0.3,0,0.5c0,19.1,14.1,35.1,32.9,38.7c-3.4,0.9-7.1,1.4-10.8,1.4c-2.6,0-5.2-0.2-7.7-0.7c5.2,15.7,20.4,27.1,38.3,27.4C46.7,154.7,29,161,9.8,161c-3.3,0-6.6-0.2-9.8-0.6c18.2,11.2,39.7,17.7,62.9,17.7c75.5,0,116.7-60.2,116.7-112.4c0-1.7,0-3.4-0.1-5.1C187.5,55.2,194.5,48.2,200,40.3z"/></symbol>
<symbol id="line" viewBox="0 0 200 200"><path d="M200,85.9c0-44.7-44.9-81.1-100-81.1C44.9,4.7,0,41.1,0,85.9c0,40.1,35.6,73.7,83.6,80.1c3.3,0.7,7.7,2.2,8.8,4.9c1,2.5,0.7,6.5,0.3,9c0,0-1.2,7.1-1.4,8.6c-0.4,2.5-2,9.9,8.7,5.4c10.7-4.5,57.6-33.9,78.6-58.1h0C193.1,119.9,200,103.8,200,85.9zM60.9,112.5H41c-2.9,0-5.2-2.3-5.2-5.2V67.5c0-2.9,2.4-5.2,5.2-5.2c2.9,0,5.2,2.4,5.2,5.2V102h14.6c2.9,0,5.2,2.4,5.2,5.2C66.1,110.1,63.8,112.5,60.9,112.5zM81.4,107.2c0,2.9-2.4,5.2-5.2,5.2c-2.9,0-5.2-2.3-5.2-5.2V67.5c0-2.9,2.3-5.2,5.2-5.2c2.9,0,5.2,2.4,5.2,5.2V107.2zM129.2,107.2c0,2.3-1.4,4.3-3.6,5c-0.5,0.2-1.1,0.3-1.7,0.3c-1.6,0-3.2-0.8-4.2-2.1L99.4,82.7v24.6c0,2.9-2.3,5.2-5.2,5.2c-2.9,0-5.2-2.3-5.2-5.2V67.5c0-2.3,1.4-4.3,3.6-5c0.5-0.2,1.1-0.3,1.7-0.3c1.6,0,3.2,0.8,4.2,2.1l20.4,27.7V67.5c0-2.9,2.4-5.2,5.2-5.2c2.9,0,5.2,2.4,5.2,5.2V107.2zM161.4,82.1c2.9,0,5.2,2.3,5.2,5.2c0,2.9-2.4,5.2-5.2,5.2h-14.6v9.4h14.6c2.9,0,5.2,2.4,5.2,5.2c0,2.9-2.4,5.2-5.2,5.2h-19.9c-2.9,0-5.2-2.3-5.2-5.2V87.4c0,0,0,0,0,0c0,0,0,0,0,0V67.5c0,0,0,0,0,0c0-2.9,2.4-5.2,5.2-5.2h19.9c2.9,0,5.2,2.4,5.2,5.2c0,2.9-2.4,5.2-5.2,5.2h-14.6v9.4H161.4z"/></symbol>
<symbol id="gplus1" viewBox="0 0 200 200"><path d="M169.2,40.6V10h-10.1v30.6h-30.8v10.1h30.8v30.6h10.1V50.7H200V40.6H169.2zM118.3,10H69.5C56.7,10,40.6,11.9,27,23c-10.2,8.7-15.2,20.8-15.2,31.7c0,18.4,14.2,37.1,39.4,37.1c2.4,0,5-0.2,7.6-0.5c-1.2,2.8-2.4,5.2-2.4,9.2c0,7.3,3.8,11.8,7.1,16.1c-10.7,0.7-30.6,1.9-45.3,10.9C4.3,135.7,0,147.7,0,156.2C0,173.7,16.6,190,51,190c40.8,0,62.4-22.4,62.4-44.6c0-16.3-9.5-24.3-19.9-33.1l-8.5-6.6c-2.6-2.1-6.2-5-6.2-10.2c0-5.2,3.6-8.5,6.6-11.6c9.9-7.8,19.9-16.1,19.9-33.6c0-18-11.4-27.4-16.8-31.9h14.7L118.3,10zM97.5,154.6c0,14.7-12.1,25.5-34.9,25.5c-25.4,0-41.7-12.1-41.7-28.8c0-16.8,15.2-22.4,20.4-24.3c10-3.3,22.8-3.8,24.9-3.8c2.4,0,3.6,0,5.5,0.2C89.6,136.2,97.5,142.5,97.5,154.6zM78.5,78.5c-3.8,3.8-10.2,6.6-16.1,6.6c-20.4,0-29.6-26.2-29.6-42.1c0-6.1,1.2-12.5,5.2-17.5c3.8-4.7,10.4-7.8,16.6-7.8c19.7,0,29.9,26.5,29.9,43.5C84.4,65.5,83.9,73.1,78.5,78.5z"/></symbol>
<symbol id="date" viewBox="0 0 200 200"><path d="M54.5,36.4H0V0h54.5V36.4zM127.3,0H72.7v36.4h54.5V0zM200,0h-54.5v36.4H200V0zM54.5,54.5H0v36.4h54.5V54.5zM127.3,54.5H72.7v36.4h54.5V54.5zM200,54.5h-54.5v36.4H200V54.5zM54.5,109.1H0v36.4h54.5V109.1zM127.3,109.1H72.7v36.4h54.5V109.1zM200,109.1h-54.5v36.4H200V109.1zM54.5,163.6H0V200h54.5V163.6zM127.3,163.6H72.7V200h54.5V163.6zM200,163.6h-54.5V200H200V163.6z"/></symbol>
<symbol id="tag" viewBox="0 0 200 200"><path d="M187.5,16.5l-5,68.2L75.9,183.6l-63.4-68.3l106.6-98.8L187.5,16.5M188,4c-0.2,0-0.3,0-0.5,0l-68.4-0.1c-3.2,0-6.2,1.2-8.5,3.3L4,106.1c-5.1,4.7-5.4,12.6-0.7,17.7l63.4,68.3c2.3,2.4,5.4,3.9,8.7,4c3.3,0.1,6.5-1.1,9-3.3L191,93.9c2.3-2.2,3.7-5.1,4-8.3l5-68.2c0.3-3.5-0.9-6.9-3.3-9.4C194.4,5.6,191.3,4.1,188,4L188,4zM161,41.1c-8-8.6-21.4-9.1-30-1.1c-8.6,8-9.1,21.4-1.1,30c8,8.6,21.4,9.1,30,1.1C168.4,63.1,168.9,49.7,161,41.1z"/></symbol>
<symbol id="menu" viewBox="0 0 200 200"><path d="M50,69.4c0-4.8,3.9-8.7,8.7-8.7h82.6c4.8,0,8.7,3.9,8.7,8.7v4c0,4.8-3.9,8.7-8.7,8.7H58.7c-4.8,0-8.7-3.9-8.7-8.7V69.4zM50,98c0-4.8,3.9-8.7,8.7-8.7h82.6c4.8,0,8.7,3.9,8.7,8.7v4c0,4.8-3.9,8.7-8.7,8.7H58.7c-4.8,0-8.7-3.9-8.7-8.7V98zM50,126.6c0-4.8,3.9-8.7,8.7-8.7h82.6c4.8,0,8.7,3.9,8.7,8.7v4c0,4.8-3.9,8.7-8.7,8.7H58.7c-4.8,0-8.7-3.9-8.7-8.7V126.6zM100,15c46.9,0,85,38.1,85,85s-38.1,85-85,85s-85-38.1-85-85S53.1,15,100,15M100,0C44.8,0,0,44.8,0,100s44.8,100,100,100s100-44.8,100-100S155.2,0,100,0L100,0z"/></symbol>
<symbol id="heart" viewBox="0 0 200 200"><path d="M150,86.6c0,28.5-30.8,37.4-50,66.3c-20.3-29.1-50-36.9-50-66.3c0-14.5,11.8-26.3,26.3-26.3c10.5,0,19.6,8.6,23.8,17.5c4.2-8.9,13.2-17.5,23.7-17.5C138.2,60.4,150,72.1,150,86.6zM100,15c-46.9,0-85,38.1-85,85s38.1,85,85,85s85-38.1,85-85S146.9,15,100,15M100,0c55.2,0,100,44.8,100,100s-44.8,100-100,100S0,155.2,0,100S44.8,0,100,0L100,0z"/></symbol>
<symbol id="pagetop" viewBox="0 0 200 200"><path d="M100,66.9c1.6,0,3.2,0.6,4.5,1.7l43.2,38.5c2.8,2.5,3,6.8,0.5,9.6c-2.5,2.8-6.8,3-9.6,0.6L100,82.8l-38.7,34.5c-2.8,2.5-7.1,2.2-9.6-0.6c-2.5-2.8-2.2-7.1,0.6-9.6l43.2-38.5C96.8,67.5,98.4,66.9,100,66.9zM100,15c-46.9,0-85,38.1-85,85s38.1,85,85,85s85-38.1,85-85S146.9,15,100,15M100,0c55.2,0,100,44.8,100,100s-44.8,100-100,100S0,155.2,0,100S44.8,0,100,0L100,0z"/></symbol>
</defs>
</svg>