<?xml version="1.0" encoding="utf-8"?>
<!DOCTYPE svg PUBLIC "-//W3C//DTD SVG 1.1//EN" "http://www.w3.org/Graphics/SVG/1.1/DTD/svg11.dtd">
<svg class="defs" version="1.1" xmlns="http://www.w3.org/2000/svg" xmlns:xlink="http://www.w3.org/1999/xlink" width="200" height="200" >

<defs>
<symbol id="home" viewBox="0 0 200 200"><path d="M83.8,145.9h32.4V108H83.8V145.9zM100,18.7L0,116.2h30.5v65.1h139.1v-65.1H200L100,18.7zM148.9,97.2v65.1H51V97.2h-0.5L100,48.9l49.5,48.2H148.9z"/></symbol>
<symbol id="cat" viewBox="0 0 200 200"><path d="M38.6,42c0,10.7-8.6,19.3-19.3,19.3C8.7,61.4,0,52.7,0,42c0-10.7,8.7-19.3,19.3-19.3C30,22.7,38.6,31.4,38.6,42zM19.3,80.7C8.7,80.7,0,89.3,0,100s8.7,19.3,19.3,19.3c10.7,0,19.3-8.6,19.3-19.3S30,80.7,19.3,80.7zM19.3,138.6C8.7,138.6,0,147.3,0,158c0,10.7,8.7,19.3,19.3,19.3c10.7,0,19.3-8.7,19.3-19.3C38.6,147.3,30,138.6,19.3,138.6zM200,22.7v38.6H69.6c-9.7,0-17.6-7.9-17.6-17.6v-3.5c0-9.7,7.9-17.6,17.6-17.6H200zM189.5,33.3H69.6c-3.8,0-7,3.2-7,7v3.5c0,3.8,3.2,7,7,7h119.9V33.3zM200,80.7v38.6H69.6c-9.7,0-17.6-7.9-17.6-17.6v-3.5c0-9.7,7.9-17.6,17.6-17.6H200zM69.6,91.2c-3.8,0-7,3.2-7,7v3.5c0,3.8,3.2,7,7,7h119.9V91.2H69.6zM200,138.6v38.6H69.6c-9.7,0-17.6-7.9-17.6-17.6v-3.5c0-9.7,7.9-17.6,17.6-17.6H200zM69.6,149.2c-3.8,0-7,3.2-7,7v3.5c0,3.8,3.2,7,7,7h119.9v-17.6H69.6z"/></symbol>
<symbol id="dogs" viewBox="0 0 200 200"><path d="M200,81.2c0,17.7-9.7,32.1-21.8,32.1c-12,0-21.8-14.4-21.8-32.1c0-17.7,9.7-32.1,21.8-32.1C190.3,49.2,200,63.5,200,81.2zM133.1,0c-12,0-21.8,14.4-21.8,32.1s9.7,32.1,21.8,32.1c12,0,21.8-14.4,21.8-32.1S145.2,0,133.1,0zM0,81.2c0,17.7,9.7,32.1,21.8,32.1S43.5,99,43.5,81.2c0-17.7-9.7-32.1-21.8-32.1S0,63.5,0,81.2zM45.1,32.1c0,17.7,9.7,32.1,21.8,32.1s21.8-14.4,21.8-32.1S78.9,0,66.9,0S45.1,14.4,45.1,32.1zM99.6,96.5c-4.3,0-9.5,4.1-13.8,10.9l-33.6,53.5c-4.7,7.4-5.1,12.6-4.3,14.1c0.8,1.5,5.4,3.9,14.2,3.9H137c8.8,0,13.4-2.4,14.2-3.9c0.8-1.5,0.4-6.7-4.3-14.1l-33.6-53.5C109.1,100.5,103.9,96.5,99.6,96.5M99.6,75.3c11.5,0,23,6.9,31.7,20.8l33.6,53.5c17.4,27.7,4.9,50.4-27.9,50.4H62.2c-32.7,0-45.3-22.7-27.9-50.4l33.6-53.5C76.6,82.2,88.1,75.3,99.6,75.3L99.6,75.3z"/></symbol>
<symbol id="pipeinu" viewBox="0 0 200 200"><path d="M199.9,92.7c-0.3-1.5-1.3-2.8-2.7-3.3l-39.4-14.7l-21.4-24.2l-20.6-27.2c-0.6-0.7-1.3-1.3-2.2-1.5L87.9,14c0,0,0,0-0.1,0c0,0-0.1,0-0.1,0c0,0,0,0-0.1,0c-0.3-0.1-0.6-0.1-1-0.1c0,0-0.1,0-0.1,0c0,0-0.1,0-0.1,0c0,0-0.1,0-0.1,0c-0.1,0-0.3,0.1-0.4,0.1c-0.1,0-0.1,0-0.2,0c-0.1,0-0.2,0-0.4,0.1c0,0,0,0,0,0l-31,9.5c-0.1,0-0.3,0.1-0.4,0.2c-0.1,0-0.2,0.1-0.3,0.1c-0.3,0.2-0.6,0.3-0.8,0.5c0,0,0,0,0,0c-0.3,0.2-0.5,0.5-0.7,0.8c0,0-0.1,0.1-0.1,0.1l-19.5,29l-12.8,5.3l-16.3,3c-1.3,0.2-2.5,1.1-3.1,2.3c-0.6,1.2-0.6,2.7,0,3.9l6,11.6c0,0,0,0,0,0c0,0,0,0,0,0l10.8,20.7c0.7,1.4,2.1,2.2,3.6,2.3l24.3,1.2l8.4,5c0.7,0.4,1.4,0.6,2.2,0.6c0.6,0,1.2-0.1,1.7-0.4l8.1-3.6h0.1l0.4,5.1c0.1,1.5,1,2.9,2.4,3.6l13,6.5c0.6,0.3,1.3,0.5,1.9,0.5c0.2,0,0.4,0,0.7-0.1l9.6-1.5c0.5-0.1,1-0.3,1.5-0.5l1.3-0.7l19,29l9.9,23.5c0.2,0.6,0.6,1.1,1,1.5l12.9,12c0.8,0.8,1.9,1.2,2.9,1.2c0.4,0,0.8-0.1,1.2-0.2c1.5-0.4,2.6-1.6,3-3l14.7-55.3l37.2-30.9C199.6,95.8,200.2,94.2,199.9,92.7zM104.4,110.2L119,82.7l32.1,0l1.7,37.2l-21.8-4.4L104.4,110.2zM129.6,55.8c0.1,0.1,0.1,0.2,0.2,0.3l15.9,18l-26.6,0L98.5,32.3l-3.6-7.2l14.8,4.5L129.6,55.8zM70.5,53.3l-4.8-12.1l-4.3-10.8l18.5-5.7L70.5,53.3zM37.2,61.7c0.8-0.3,1.5-0.9,1.9-1.6l15.6-23.3l1.4,3.6L66,65.3L51.6,85.6l-5.1,7.2L27.7,65.7L37.2,61.7zM23.8,94.9l-8.4-16.1l5.6-7.6l17,24.5L23.8,94.9zM63.1,98l-7,3.1l-3.4-2l13.4-19l-0.3,11.4l-0.2,6.2h-0.9C64.2,97.6,63.6,97.7,63.1,98zM84.2,113.1l-9.6-4.8l-0.5-6.5l0.9-35.2l12.3-37.2l14.4,29.2l9.7,19.7l-16.9,31.8l-3,1.8L84.2,113.1zM140,173.8l-7-6.5l-9.7-23c-0.1-0.2-0.2-0.5-0.4-0.7l-15.8-24.1l39.4,8l5.5,1.1L140,173.8zM161.3,116.4l-1.5-31.7l27.4,10.2L161.3,116.4z"/></symbol>
<symbol id="mail" viewBox="0 0 200 200"><path d="M177.6,143.2l-11.9,5.6l-28.1-60.2L100,107.3L62.4,88.5l-28.1,60.2l-12-5.5l28.3-60.6L0,57.4V160h200V57.3l-50.6,25.3L177.6,143.2zM0,40v2.7l100,50l100-50V40H0z"/></symbol>
<symbol id="fb2" viewBox="0 0 200 200"><path d="M100,0C44.9,0,0,44.9,0,100c0,55.1,44.9,100,100,100c4.8,0,9.5-0.4,14.1-1v-67.7H91.2v-28.4h22.8V88.7c0-20.5,15.4-37.1,34.3-37.1h22.8v28.3h-22.8c-2.7,0-5.7,3.7-5.7,8.6v14.5h28.6v28.4h-28.6v59.1c33.9-16,57.4-50.5,57.4-90.4C200,44.9,155.1,0,100,0z"/></symbol>
<symbol id="tw2" viewBox="0 0 200 200"><path d="M100,0C44.9,0,0,44.9,0,100c0,32.3,15.4,61.1,39.3,79.4c12-1.1,22.9-5.6,31.9-12.6c-13.2-0.2-24.4-9-28.2-21c1.8,0.4,3.7,0.5,5.7,0.5c2.8,0,5.4-0.4,8-1.1c-13.8-2.8-24.2-15-24.2-29.6c0-0.1,0-0.3,0-0.4c4.1,2.3,8.7,3.6,13.7,3.8c-8.1-5.4-13.4-14.6-13.4-25.1c0-5.5,1.5-10.7,4.1-15.2C51.6,97,73.8,109,98.9,110.3c-0.5-2.2-0.8-4.5-0.8-6.9c0-16.7,13.5-30.2,30.2-30.2c8.7,0,16.5,3.7,22,9.5c6.9-1.4,13.3-3.9,19.2-7.3c-2.3,7-7,13-13.3,16.7c6.1-0.7,11.9-2.4,17.3-4.8c-4,6.1-9.2,11.4-15.1,15.6c0.1,1.3,0.1,2.6,0.1,3.9c0,39.9-30.4,85.9-85.9,85.9c-4.1,0-8.2-0.3-12.1-0.9C72.7,197.1,86,200,100,200c55.1,0,100-44.9,100-100C200,44.9,155.1,0,100,0z"/></symbol>
<symbol id="gplus2" viewBox="0 0 200 200"><path d="M56.3,82.2c0,3.7-0.4,10.1-5.1,14.8c-3.3,3.2-8.7,5.7-13.8,5.7c-17.4,0-25.3-22.5-25.3-36.1c0-5.3,1-10.8,4.5-15c3.2-4.1,8.9-6.7,14.2-6.7C47.6,44.8,56.3,67.6,56.3,82.2zM67.5,162.3c0-10.3-6.7-15.8-22.1-26.8c-1.6-0.2-2.6-0.2-4.7-0.2c-1.8,0-12.8,0.4-21.3,3.2c-2,0.7-5.9,2.2-9.4,4.9c7.9,16.4,20.2,30.3,35.4,40.2C59.8,181.5,67.5,173.1,67.5,162.3zM6.6,135.6c11.4-4.6,24.3-5.4,31.9-5.9c-2.8-3.6-6.1-7.5-6.1-13.8c0-3.5,1-5.5,2-7.9c-2.2,0.2-4.5,0.4-6.5,0.4c-12.7,0-22.2-5.6-27.8-13.5C0.1,96.5,0,98.3,0,100C0,112.5,2.3,124.5,6.6,135.6zM200,100c0,55.1-44.9,100-100,100c-16.8,0-32.6-4.2-46.5-11.5C71.6,181.7,81,168,81,154.4c0-14-8.1-20.9-17-28.4l-7.3-5.7c-2.2-1.8-5.3-4.3-5.3-8.7c0-4.5,3-7.3,5.7-9.9c8.5-6.7,17-13.8,17-28.8c0-15.4-9.7-23.5-14.4-27.4h12.6l13-7.3H43.5c-7.7,0-16.7,0.8-25.4,4.5C36.2,16.9,66.2,0,100,0C155.1,0,200,44.9,200,100zM155.2,64.5h-26.3V38.2h-8.7v26.3H93.9v8.7h26.3v26.3h8.7V73.1h26.3V64.5z"/></symbol>
<symbol id="rss" viewBox="0 0 200 200"><path d="M188.8,117.7c0-59.8-48.6-108.4-108.3-108.4V0.2C34.6,9.6,0,50.3,0,99c0,55.6,45.3,100.9,100.9,100.9c49.2,0,90.3-35.4,99.1-82.1H188.8zM93.1,117.6c-7,0-12.6-5.6-12.6-12.6c0-6.9,5.7-12.6,12.6-12.6c7,0,12.7,5.7,12.7,12.6C105.8,112,100.1,117.6,93.1,117.6zM124.9,117.7c0-11.9-4.6-23.1-13-31.5c-8.4-8.4-19.5-13-31.4-13V55c34.5,0,62.7,28.1,62.7,62.7H124.9zM157.2,117.7c0-42.3-34.4-76.7-76.7-76.7V22.8c52.3,0,94.9,42.6,94.9,94.9H157.2z"/></symbol>
<symbol id="like" viewBox="0 0 200 200"><path d="M89.3,90.5l47.3-65.6h22.6l-18.3,49.5H200l-14.8,91.4H89.3V90.5zM0,175.1h71.7V89.8H0V175.1z"/></symbol>
<symbol id="fb1" viewBox="0 0 200 200"><path d="M123.8,38.1h31.7V0h-31.7C97.6,0,76.2,22.4,76.2,50v19.2H44.4v38.2h31.7V200h39.7v-92.5h39.7V69.2h-39.7V49.6C115.9,43,120.1,38.1,123.8,38.1z"/></symbol>
<symbol id="tw1" viewBox="0 0 200 200"><path d="M200,40.3c-7.4,3.1-15.3,5.3-23.6,6.2c8.5-4.9,15-12.6,18-21.9c-7.9,4.5-16.7,7.8-26.1,9.6c-7.5-7.7-18.1-12.5-30-12.5c-22.7,0-41,17.7-41,39.5c0,3.1,0.4,6.1,1.1,9C64.4,68.6,34.2,52.9,13.9,29c-3.5,5.8-5.6,12.6-5.6,19.9c0,13.7,7.2,25.8,18.3,32.9c-6.7-0.2-13.1-2-18.6-4.9c0,0.2,0,0.3,0,0.5c0,19.1,14.1,35.1,32.9,38.7c-3.4,0.9-7.1,1.4-10.8,1.4c-2.6,0-5.2-0.2-7.7-0.7c5.2,15.7,20.4,27.1,38.3,27.4C46.7,154.7,29,161,9.8,161c-3.3,0-6.6-0.2-9.8-0.6c18.2,11.2,39.7,17.7,62.9,17.7c75.5,0,116.7-60.2,116.7-112.4c0-1.7,0-3.4-0.1-5.1C187.5,55.2,194.5,48.2,200,40.3z"/></symbol>
<symbol id="line" viewBox="0 0 200 200"><path d="M200,85.9c0-44.7-44.9-81.1-100-81.1C44.9,4.7,0,41.1,0,85.9c0,40.1,35.6,73.7,83.6,80.1c3.3,0.7,7.7,2.2,8.8,4.9c1,2.5,0.7,6.5,0.3,9c0,0-1.2,7.1-1.4,8.6c-0.4,2.5-2,9.9,8.7,5.4c10.7-4.5,57.6-33.9,78.6-58.1h0C193.1,119.9,200,103.8,200,85.9zM60.9,112.5H41c-2.9,0-5.2-2.3-5.2-5.2V67.5c0-2.9,2.4-5.2,5.2-5.2c2.9,0,5.2,2.4,5.2,5.2V102h14.6c2.9,0,5.2,2.4,5.2,5.2C66.1,110.1,63.8,112.5,60.9,112.5zM81.4,107.2c0,2.9-2.4,5.2-5.2,5.2c-2.9,0-5.2-2.3-5.2-5.2V67.5c0-2.9,2.3-5.2,5.2-5.2c2.9,0,5.2,2.4,5.2,5.2V107.2zM129.2,107.2c0,2.3-1.4,4.3-3.6,5c-0.5,0.2-1.1,0.3-1.7,0.3c-1.6,0-3.2-0.8-4.2-2.1L99.4,82.7v24.6c0,2.9-2.3,5.2-5.2,5.2c-2.9,0-5.2-2.3-5.2-5.2V67.5c0-2.3,1.4-4.3,3.6-5c0.5-0.2,1.1-0.3,1.7-0.3c1.6,0,3.2,0.8,4.2,2.1l20.4,27.7V67.5c0-2.9,2.4-5.2,5.2-5.2c2.9,0,5.2,2.4,5.2,5.2V107.2zM161.4,82.1c2.9,0,5.2,2.3,5.2,5.2c0,2.9-2.4,5.2-5.2,5.2h-14.6v9.4h14.6c2.9,0,5.2,2.4,5.2,5.2c0,2.9-2.4,5.2-5.2,5.2h-19.9c-2.9,0-5.2-2.3-5.2-5.2V87.4c0,0,0,0,0,0c0,0,0,0,0,0V67.5c0,0,0,0,0,0c0-2.9,2.4-5.2,5.2-5.2h19.9c2.9,0,5.2,2.4,5.2,5.2c0,2.9-2.4,5.2-5.2,5.2h-14.6v9.4H161.4z"/></symbol>
<symbol id="gplus1" viewBox="0 0 200 200"><path d="M169.2,40.6V10h-10.1v30.6h-30.8v10.1h30.8v30.6h10.1V50.7H200V40.6H169.2zM118.3,10H69.5C56.7,10,40.6,11.9,27,23c-10.2,8.7-15.2,20.8-15.2,31.7c0,18.4,14.2,37.1,39.4,37.1c2.4,0,5-0.2,7.6-0.5c-1.2,2.8-2.4,5.2-2.4,9.2c0,7.3,3.8,11.8,7.1,16.1c-10.7,0.7-30.6,1.9-45.3,10.9C4.3,135.7,0,147.7,0,156.2C0,173.7,16.6,190,51,190c40.8,0,62.4-22.4,62.4-44.6c0-16.3-9.5-24.3-19.9-33.1l-8.5-6.6c-2.6-2.1-6.2-5-6.2-10.2c0-5.2,3.6-8.5,6.6-11.6c9.9-7.8,19.9-16.1,19.9-33.6c0-18-11.4-27.4-16.8-31.9h14.7L118.3,10zM97.5,154.6c0,14.7-12.1,25.5-34.9,25.5c-25.4,0-41.7-12.1-41.7-28.8c0-16.8,15.2-22.4,20.4-24.3c10-3.3,22.8-3.8,24.9-3.8c2.4,0,3.6,0,5.5,0.2C89.6,136.2,97.5,142.5,97.5,154.6zM78.5,78.5c-3.8,3.8-10.2,6.6-16.1,6.6c-20.4,0-29.6-26.2-29.6-42.1c0-6.1,1.2-12.5,5.2-17.5c3.8-4.7,10.4-7.8,16.6-7.8c19.7,0,29.9,26.5,29.9,43.5C84.4,65.5,83.9,73.1,78.5,78.5z"/></symbol>
<symbol id="date" viewBox="0 0 200 200"><path d="M54.5,36.4H0V0h54.5V36.4zM127.3,0H72.7v36.4h54.5V0zM200,0h-54.5v36.4H200V0zM54.5,54.5H0v36.4h54.5V54.5zM127.3,54.5H72.7v36.4h54.5V54.5zM200,54.5h-54.5v36.4H200V54.5zM54.5,109.1H0v36.4h54.5V109.1zM127.3,109.1H72.7v36.4h54.5V109.1zM200,109.1h-54.5v36.4H200V109.1zM54.5,163.6H0V200h54.5V163.6zM127.3,163.6H72.7V200h54.5V163.6zM200,163.6h-54.5V200H200V163.6z"/></symbol>
<symbol id="write" viewBox="0 0 200 200"><path d="M84.3,168.4l-3.9,1.5l-44,16.6l-22.8-22.3l18-48.6L84.3,168.4zM22.6,162.3c1.8,1.8,13.7,13.4,15.5,15.1c2.4-0.9,26.7-10.1,32.1-12.1c-4.3-4.3-31.3-31.3-35.5-35.5C32.7,135.3,23.5,159.9,22.6,162.3zM11.5,171.4L0,200l28.6-11.3L11.5,171.4zM72,145.1l-17-17L163.5,19.5l17,17L72,145.1zM91.4,164.6l-12.7-12.7L187.3,43.4L200,56L91.4,164.6zM156.7,12.7L48.1,121.2l-12.7-12.7L144,0L156.7,12.7z"/></symbol>
<symbol id="tag" viewBox="0 0 200 200"><path d="M187.5,16.5l-5,68.2L75.9,183.6l-63.4-68.3l106.6-98.8L187.5,16.5M188,4c-0.2,0-0.3,0-0.5,0l-68.4-0.1c-3.2,0-6.2,1.2-8.5,3.3L4,106.1c-5.1,4.7-5.4,12.6-0.7,17.7l63.4,68.3c2.3,2.4,5.4,3.9,8.7,4c3.3,0.1,6.5-1.1,9-3.3L191,93.9c2.3-2.2,3.7-5.1,4-8.3l5-68.2c0.3-3.5-0.9-6.9-3.3-9.4C194.4,5.6,191.3,4.1,188,4L188,4zM161,41.1c-8-8.6-21.4-9.1-30-1.1c-8.6,8-9.1,21.4-1.1,30c8,8.6,21.4,9.1,30,1.1C168.4,63.1,168.9,49.7,161,41.1z"/></symbol>
<symbol id="right" viewBox="0 0 200 200"><path d="M152.1,100c0,3.2-1.2,6.5-3.4,9l-77,86.4c-5,5.6-13.6,6.1-19.2,1.1c-5.6-5-6.1-13.6-1.1-19.2l68.9-77.4L51.4,22.6c-5-5.6-4.5-14.2,1.1-19.2c5.6-5,14.2-4.5,19.2,1.1l77,86.4C150.9,93.5,152.1,96.8,152.1,100z"/></symbol>
<symbol id="w-right" viewBox="0 0 200 200"><path d="M113.7,100c0,3.2-1.2,6.5-3.4,9l-77,86.4c-5,5.6-13.6,6.1-19.2,1.1c-5.6-5-6.1-13.6-1.1-19.2L82,100L13.1,22.6C8.1,17,8.6,8.4,14.2,3.4c5.6-5,14.2-4.5,19.2,1.1l77,86.4C112.6,93.5,113.7,96.8,113.7,100zM187,91L110,4.5c-5-5.6-13.6-6.1-19.2-1.1c-5.6,5-6.1,13.6-1.1,19.2l68.9,77.4l-68.9,77.4c-5,5.6-4.5,14.2,1.1,19.2c5.6,5,14.2,4.5,19.2-1.1l77-86.4c2.3-2.6,3.4-5.8,3.4-9C190.4,96.8,189.2,93.5,187,91z"/></symbol>
<symbol id="menu" viewBox="0 0 200 200"><path d="M50,69.4c0-4.8,3.9-8.7,8.7-8.7h82.6c4.8,0,8.7,3.9,8.7,8.7v4c0,4.8-3.9,8.7-8.7,8.7H58.7c-4.8,0-8.7-3.9-8.7-8.7V69.4zM50,98c0-4.8,3.9-8.7,8.7-8.7h82.6c4.8,0,8.7,3.9,8.7,8.7v4c0,4.8-3.9,8.7-8.7,8.7H58.7c-4.8,0-8.7-3.9-8.7-8.7V98zM50,126.6c0-4.8,3.9-8.7,8.7-8.7h82.6c4.8,0,8.7,3.9,8.7,8.7v4c0,4.8-3.9,8.7-8.7,8.7H58.7c-4.8,0-8.7-3.9-8.7-8.7V126.6zM100,15c46.9,0,85,38.1,85,85s-38.1,85-85,85s-85-38.1-85-85S53.1,15,100,15M100,0C44.8,0,0,44.8,0,100s44.8,100,100,100s100-44.8,100-100S155.2,0,100,0L100,0z"/></symbol>
<symbol id="heart" viewBox="0 0 200 200"><path d="M150,86.6c0,28.5-30.8,37.4-50,66.3c-20.3-29.1-50-36.9-50-66.3c0-14.5,11.8-26.3,26.3-26.3c10.5,0,19.6,8.6,23.8,17.5c4.2-8.9,13.2-17.5,23.7-17.5C138.2,60.4,150,72.1,150,86.6zM100,15c-46.9,0-85,38.1-85,85s38.1,85,85,85s85-38.1,85-85S146.9,15,100,15M100,0c55.2,0,100,44.8,100,100s-44.8,100-100,100S0,155.2,0,100S44.8,0,100,0L100,0z"/></symbol>
<symbol id="pagetop" viewBox="0 0 200 200"><path d="M100,66.9c1.6,0,3.2,0.6,4.5,1.7l43.2,38.5c2.8,2.5,3,6.8,0.5,9.6c-2.5,2.8-6.8,3-9.6,0.6L100,82.8l-38.7,34.5c-2.8,2.5-7.1,2.2-9.6-0.6c-2.5-2.8-2.2-7.1,0.6-9.6l43.2-38.5C96.8,67.5,98.4,66.9,100,66.9zM100,15c-46.9,0-85,38.1-85,85s38.1,85,85,85s85-38.1,85-85S146.9,15,100,15M100,0c55.2,0,100,44.8,100,100s-44.8,100-100,100S0,155.2,0,100S44.8,0,100,0L100,0z"/></symbol>
<symbol id="lineQR" viewBox="0 0 200 200"><path fill-rule="evenodd" clip-rule="evenodd" d="M37.8,0H0v37.8h37.8V0zM32.4,32.4h-27v-27h27V32.4zM48.6,10.8h-5.4V0h5.4V10.8zM70.3,5.4v5.4h-5.4V5.4H54.1V0h21.6v5.4H70.3zM86.5,16.2v-5.4h5.4V0h5.4v10.8h5.4V5.4h16.2v5.4h5.4v5.4h-21.6v5.4H91.9v-5.4H86.5zM129.7,10.8h-5.4V0h10.8v5.4h-5.4V10.8zM135.1,10.8V5.4h5.4V0h10.8v5.4h5.4v5.4h-5.4v5.4h-5.4v-5.4H135.1zM162.2,0v37.8H200V0H162.2zM194.6,32.4h-27v-27h27V32.4zM75.7,10.8V5.4h10.8v5.4H75.7zM27,27H10.8V10.8H27V27zM81.1,27h-5.4v-5.4H59.5v-5.4h10.8v-5.4h5.4v5.4h10.8v5.4h-5.4V27zM189.2,27H173V10.8h16.2V27zM48.6,16.2v21.6h-5.4V16.2H48.6zM124.3,21.6v-5.4h5.4v5.4H124.3zM135.1,16.2h10.8v5.4h10.8v16.2h-5.4v-5.4h-5.4V27h-5.4v-5.4h-5.4V16.2zM86.5,21.6h5.4V27h-5.4V21.6zM113.5,27h-5.4v-5.4h5.4V27zM70.3,32.4v5.4h-5.4V27h10.8v5.4H70.3zM102.7,37.8h-5.4V27h5.4V37.8zM124.3,27v10.8h-5.4V27H124.3zM135.1,27h-5.4v10.8h-5.4v5.4h5.4v16.2h-10.8v5.4h5.4v16.2h5.4v-5.4h5.4v10.8h5.4V64.9h10.8v-5.4h-10.8v-5.4h-5.4V43.2h5.4v-5.4h-5.4V27zM135.1,70.3h-5.4v-5.4h5.4V70.3zM48.6,81.1h-5.4V70.3h5.4v-5.4h-5.4v5.4H32.4v-5.4h5.4v-5.4h5.4v-5.4h-5.4v-5.4h16.2v-5.4h-5.4v-5.4h5.4v-5.4h5.4v10.8h10.8v-5.4h5.4v-5.4h5.4v5.4h5.4v-5.4h5.4v10.8H75.7v10.8h5.4v21.6h-5.4v-5.4h-5.4v-5.4h5.4v-5.4h-5.4V48.6H59.5v5.4h-5.4v10.8h5.4v5.4h-5.4v5.4h-5.4V81.1zM113.5,37.8h-5.4v-5.4h5.4V37.8zM140.5,32.4h5.4v5.4h-5.4V32.4zM21.6,54.1h-5.4V43.2h5.4V54.1zM37.8,48.6h-5.4v-5.4h5.4V48.6zM102.7,48.6h-5.4v-5.4h5.4V48.6zM108.1,43.2h16.2v5.4h-16.2V43.2zM140.5,48.6v-5.4h10.8v10.8h-5.4v-5.4H140.5zM178.4,54.1H173v-5.4h-5.4v-5.4h16.2v5.4h-5.4V54.1zM189.2,43.2H200v16.2h-16.2v-5.4h5.4V43.2zM10.8,48.6v5.4H5.4v-5.4H10.8zM32.4,48.6v5.4H27v-5.4H32.4zM86.5,54.1h-5.4v-5.4h16.2v5.4h-5.4v10.8h-5.4V54.1zM162.2,54.1h-5.4v-5.4h5.4V54.1zM5.4,64.9v5.4H0V59.5h10.8v-5.4h5.4v10.8H5.4zM37.8,54.1v5.4h-5.4v-5.4H37.8zM118.9,54.1v5.4h-10.8v-5.4H118.9zM151.4,59.5v-5.4h5.4v5.4H151.4zM162.2,59.5v-5.4H173v5.4H162.2zM21.6,70.3v10.8H10.8v-5.4h5.4V64.9h5.4v-5.4H27v10.8H21.6zM64.9,64.9h-5.4v-5.4h5.4V64.9zM113.5,64.9h5.4v10.8h-5.4v16.2h-10.8v-5.4h5.4V75.7H97.3v-5.4h-5.4v-5.4h5.4v-5.4h5.4v5.4h5.4v5.4h5.4V64.9zM178.4,59.5h5.4v16.2h-5.4V59.5zM151.4,70.3v-5.4h5.4v5.4H151.4zM167.6,97.3h-5.4v-5.4h-5.4V81.1h5.4V64.9h5.4v16.2h5.4v5.4h-5.4V97.3zM183.8,81.1v-5.4h5.4V64.9H200v16.2H183.8zM10.8,70.3v5.4H5.4v-5.4H10.8zM64.9,70.3h5.4v10.8h-5.4V70.3zM97.3,75.7v5.4H81.1v-5.4h5.4v-5.4h5.4v5.4H97.3zM37.8,81.1H27v-5.4h10.8V81.1zM16.2,102.7v5.4h-5.4v5.4H5.4v5.4H0v-16.2h5.4V91.9H0V81.1h5.4v5.4h16.2v-5.4H27v5.4h10.8v-5.4h5.4v5.4h5.4v5.4H32.4v5.4H21.6v-5.4H10.8v10.8H16.2zM48.6,81.1h16.2v10.8h-5.4v-5.4H48.6V81.1zM102.7,81.1v5.4h-5.4v-5.4H102.7zM124.3,81.1v5.4h-5.4v-5.4H124.3zM145.9,86.5v-5.4h5.4v5.4H145.9zM75.7,86.5v5.4h-5.4v-5.4H75.7zM86.5,91.9h-5.4v-5.4h5.4V91.9zM91.9,86.5h5.4v10.8h-5.4V86.5zM124.3,86.5h10.8v5.4h-10.8V86.5zM178.4,86.5H200v16.2h-5.4v5.4h-10.8v-5.4h5.4v-5.4h5.4v-5.4h-5.4v5.4h-5.4v-5.4h-5.4V86.5zM48.6,91.9h10.8v5.4H48.6V91.9zM32.4,97.3h16.2v5.4h16.2v-5.4h10.8v-5.4h5.4v10.8H70.3v5.4h-5.4v5.4h-5.4v-5.4H43.2v-5.4H32.4V97.3zM167.6,102.7v-5.4h5.4v-5.4h5.4v10.8H167.6zM21.6,97.3v5.4h-5.4v-5.4H21.6zM91.9,97.3v5.4h-5.4v-5.4H91.9zM97.3,102.7v-5.4h5.4v5.4H97.3zM140.5,124.3v5.4h-21.6v-5.4h16.2v-5.4h-16.2v-5.4h-5.4V97.3h10.8v5.4h-5.4v5.4h5.4v5.4h5.4v-5.4h5.4v5.4h5.4v-5.4h5.4v16.2H140.5zM135.1,102.7h-5.4v-5.4h5.4V102.7zM140.5,97.3h5.4v5.4h-5.4V97.3zM162.2,97.3v5.4h-5.4v10.8h-5.4V97.3H162.2zM27,102.7v5.4h-5.4v-5.4H27zM97.3,102.7v5.4h-5.4v-5.4H97.3zM102.7,108.1v-5.4h5.4v5.4H102.7zM124.3,108.1v-5.4h5.4v5.4H124.3zM178.4,113.5h16.2v5.4h5.4v5.4h-10.8v-5.4h-5.4v10.8h-5.4v5.4H173v-10.8h-10.8v-21.6h5.4v5.4h10.8V113.5h-10.8v5.4h10.8V113.5zM21.6,108.1v5.4h-5.4v-5.4H21.6zM70.3,162.2v5.4H59.5v-5.4h5.4v-10.8h-5.4v5.4h-5.4v5.4H43.2v-5.4H27v-16.2h-5.4v10.8H10.8v5.4H0v-5.4h5.4v-5.4h10.8v-5.4h-5.4v-10.8h10.8v5.4h10.8v5.4h5.4v5.4h-5.4v5.4h5.4v-5.4h5.4v5.4h5.4v-5.4h16.2v-5.4H48.6v5.4h-5.4v-5.4h-5.4v-5.4h16.2v-10.8h-5.4v-5.4h-5.4v10.8h-5.4v-5.4h-5.4v-5.4h5.4v-5.4H27v-5.4h16.2v5.4h16.2v21.6h10.8v16.2h5.4v5.4h16.2v-5.4h5.4v-10.8h10.8v-5.4H91.9v5.4H81.1v5.4h-5.4v-10.8h10.8v-5.4H75.7v-10.8h5.4v5.4h10.8v5.4h5.4v-10.8h5.4v10.8h5.4v-10.8h5.4v32.4h-5.4v-5.4h-5.4v10.8h-5.4v10.8h-5.4v5.4h-5.4v-5.4h-5.4v-5.4H70.3zM70.3,118.9v-10.8h16.2v5.4h5.4v5.4H81.1v-5.4h-5.4v5.4H70.3zM97.3,108.1h5.4v5.4h-5.4V108.1zM194.6,113.5v-5.4h5.4v5.4H194.6zM27,118.9h-5.4v-5.4H27V118.9zM21.6,118.9v5.4h-5.4v-5.4H21.6zM64.9,118.9h5.4v5.4h-5.4V118.9zM156.8,118.9h-5.4v10.8h-10.8v5.4h-5.4v5.4h10.8v5.4h5.4v5.4h-5.4v5.4h-16.2v5.4h10.8v5.4h5.4v-5.4h5.4v16.2h-5.4v10.8h5.4v-5.4h10.8v-5.4H173v10.8h5.4v-10.8h5.4V173h-5.4v-16.2h16.2v-5.4h-27v-5.4h-5.4v-5.4h-10.8v-5.4h5.4v-5.4h5.4v-5.4h-5.4V118.9zM156.8,156.8H173V173h-16.2V156.8zM5.4,135.1H0v-10.8h5.4V135.1zM27,129.7h-5.4v-5.4H27V129.7zM32.4,129.7h5.4v5.4h-5.4V129.7zM162.2,135.1v-5.4h5.4v5.4H162.2zM113.5,156.8v-5.4h5.4v-10.8h5.4v-5.4h5.4v16.2h-5.4v5.4H113.5zM178.4,140.5v-5.4h10.8v10.8h-5.4v-5.4H178.4zM200,151.4h-5.4v-16.2h5.4V151.4zM5.4,140.5v5.4H0v-5.4H5.4zM173,140.5h5.4v5.4H173V140.5zM145.9,145.9v5.4h-10.8v-5.4H145.9zM102.7,156.8h10.8v10.8h-10.8V156.8zM194.6,162.2v-5.4h5.4V173h-16.2v-10.8H194.6zM0,200h37.8v-37.8H0V200zM5.4,167.6h27v27h-27V167.6zM162.2,162.2h5.4v5.4h-5.4V162.2zM81.1,167.6v5.4H70.3v-5.4H81.1zM97.3,167.6h5.4v5.4h-5.4V167.6zM10.8,173H27v16.2H10.8V173zM59.5,173h5.4v21.6h-5.4v-10.8H43.2v-5.4h5.4V173h5.4v5.4h5.4V173zM86.5,194.6h5.4v5.4H75.7v-5.4h5.4v-5.4h-5.4v-5.4h5.4V173h5.4V194.6zM97.3,183.8h5.4v5.4h-5.4v5.4h-5.4V173h5.4V183.8zM124.3,173h16.2v21.6h-10.8v5.4h-5.4v-16.2h-10.8v10.8h-5.4v-10.8h-5.4V173h5.4v5.4h16.2V173zM183.8,189.2v-10.8H200v10.8h-5.4v-5.4h-5.4v5.4H183.8zM151.4,194.6v-5.4h10.8v5.4H173v5.4h-27v-5.4H151.4zM48.6,194.6h5.4v5.4h-5.4V194.6zM97.3,200v-5.4h5.4v5.4H97.3zM189.2,194.6H200v5.4h-10.8V194.6z"/>
</symbol>
</defs>
</svg>