<svg class="defs" version="1.1" xmlns="http://www.w3.org/2000/svg" xmlns:xlink="http://www.w3.org/1999/xlink" width="1200px" height="200px">

<defs>
<symbol id="g1" viewBox="490 0 220 200"><path fill="#FA5064" d="M162.2,0c-23.1,0-43,18.5-52.2,37.8C100.8,18.5,80.9,0,57.7,0C25.9,0,0,25.4,0,56.7c0,63.7,65.4,80.4,110,143.3c42.1-62.5,110-81.7,110-143.3C220,25.4,194.1,0,162.2,0z"/></symbol>
<symbol id="g2" viewBox="490 0 220 200"><path fill="#FA5064" d="M407.2,0c-23.1,0-43,18.5-52.2,37.8C345.8,18.5,325.9,0,302.7,0C270.9,0,245,25.4,245,56.7c0,63.7,65.4,80.4,110,143.3c42.1-62.5,110-81.7,110-143.3C465,25.4,439.1,0,407.2,0z"/></symbol>
<symbol id="g3" viewBox="490 0 220 200"><path fill="#FA5064" d="M652.2,0c-23.1,0-43,18.5-52.2,37.8C590.8,18.5,570.9,0,547.7,0C515.9,0,490,25.4,490,56.7c0,63.7,65.4,80.4,110,143.3c42.1-62.5,110-81.7,110-143.3C710,25.4,684.1,0,652.2,0z"/></symbol>
<symbol id="g4" viewBox="490 0 220 200"><path fill="#FA5064" d="M897.2,0c-23.1,0-43,18.5-52.2,37.8C835.8,18.5,815.9,0,792.7,0C760.9,0,735,25.4,735,56.7c0,63.7,65.4,80.4,110,143.3c42.1-62.5,110-81.7,110-143.3C955,25.4,929.1,0,897.2,0z"/></symbol>
<symbol id="g5" viewBox="490 0 220 200"><path fill="#FA5064" d="M1142.2,0c-23.1,0-43,18.5-52.2,37.8c-9.2-19.3-29.1-37.8-52.3-37.8C1005.9,0,980,25.4,980,56.7c0,63.7,65.4,80.4,110,143.3c42.1-62.5,110-81.7,110-143.3C1200,25.4,1174.1,0,1142.2,0z"/></symbol>
<symbol id="b1" viewBox="490 0 220 200"><path fill="#3296C8" d="M162.2,0c32,0,57.8,25.4,57.8,56.7c0,61.6-67.9,80.8-110,143.3C65.4,137.1,0,120.4,0,56.7C0,25.4,25.9,0,57.7,0c13,0,24.9,5.8,34.5,14.3L75.6,40.5l48.1,27L96.2,135l75.6-81l-48.1-27L137,7.4C144.7,2.8,154.3,0,162.2,0z"/></symbol>
<symbol id="b2" viewBox="490 0 220 200"><path fill="#3296C8" d="M407.2,0c32,0,57.8,25.4,57.8,56.7c0,61.6-67.9,80.8-110,143.3c-44.6-62.9-110-79.6-110-143.3C245,25.4,270.9,0,302.7,0c13,0,24.9,5.8,34.5,14.3l-16.7,26.2l48.1,27L341.2,135l75.6-81l-48.1-27L382,7.4C389.7,2.8,399.3,0,407.2,0z"/></symbol>
<symbol id="b3" viewBox="490 0 220 200"><path fill="#3296C8" d="M652.2,0c32,0,57.8,25.4,57.8,56.7c0,61.6-67.9,80.8-110,143.3c-44.6-62.9-110-79.6-110-143.3C490,25.4,515.9,0,547.7,0c13,0,24.9,5.8,34.5,14.3l-16.7,26.2l48.1,27L586.3,135l75.6-81l-48.1-27L627,7.4C634.7,2.8,644.3,0,652.2,0z"/></symbol>
<symbol id="b4" viewBox="490 0 220 200"><path fill="#3296C8" d="M897.2,0c32,0,57.8,25.4,57.8,56.7c0,61.6-67.9,80.8-110,143.3c-44.6-62.9-110-79.6-110-143.3C735,25.4,760.9,0,792.7,0c13,0,24.9,5.8,34.5,14.3l-16.7,26.2l48.1,27L831.3,135l75.6-81l-48.1-27L872,7.4C879.7,2.8,889.3,0,897.2,0z"/></symbol>
<symbol id="b5" viewBox="490 0 220 200"><path fill="#3296C8" d="M1142.2,0c32,0,57.8,25.4,57.8,56.7c0,61.6-67.9,80.8-110,143.3c-44.6-62.9-110-79.6-110-143.3c0-31.3,25.9-56.7,57.7-56.7c13,0,24.9,5.8,34.5,14.3l-16.7,26.2l48.1,27l-27.5,67.5l75.6-81l-48.1-27L1117,7.4C1124.7,2.8,1134.3,0,1142.2,0z"/></symbol>
<symbol id="gn2" viewBox="490 0 220 200"><path fill="#AAAAAA" d="M407.2,0c-23.1,0-43,18.5-52.2,37.8C345.8,18.5,325.9,0,302.7,0C270.9,0,245,25.4,245,56.7c0,63.7,65.4,80.4,110,143.3c42.1-62.5,110-81.7,110-143.3C465,25.4,439.1,0,407.2,0z"/></symbol>
<symbol id="gn3" viewBox="490 0 220 200"><path fill="#AAAAAA" d="M652.2,0c-23.1,0-43,18.5-52.2,37.8C590.8,18.5,570.9,0,547.7,0C515.9,0,490,25.4,490,56.7c0,63.7,65.4,80.4,110,143.3c42.1-62.5,110-81.7,110-143.3C710,25.4,684.1,0,652.2,0z"/></symbol>
<symbol id="gn4" viewBox="490 0 220 200"><path fill="#AAAAAA" d="M897.2,0c-23.1,0-43,18.5-52.2,37.8C835.8,18.5,815.9,0,792.7,0C760.9,0,735,25.4,735,56.7c0,63.7,65.4,80.4,110,143.3c42.1-62.5,110-81.7,110-143.3C955,25.4,929.1,0,897.2,0z"/></symbol>
<symbol id="gn5" viewBox="490 0 220 200"><path fill="#AAAAAA" d="M1142.2,0c-23.1,0-43,18.5-52.2,37.8c-9.2-19.3-29.1-37.8-52.3-37.8C1005.9,0,980,25.4,980,56.7c0,63.7,65.4,80.4,110,143.3c42.1-62.5,110-81.7,110-143.3C1200,25.4,1174.1,0,1142.2,0z"/></symbol>
<symbol id="bn2" viewBox="490 0 220 200"><path fill="#AAAAAA" d="M407.2,0c32,0,57.8,25.4,57.8,56.7c0,61.6-67.9,80.8-110,143.3c-44.6-62.9-110-79.6-110-143.3C245,25.4,270.9,0,302.7,0c13,0,24.9,5.8,34.5,14.3l-16.7,26.2l48.1,27L341.2,135l75.6-81l-48.1-27L382,7.4C389.7,2.8,399.3,0,407.2,0z"/></symbol>
<symbol id="bn3" viewBox="490 0 220 200"><path fill="#AAAAAA" d="M652.2,0c32,0,57.8,25.4,57.8,56.7c0,61.6-67.9,80.8-110,143.3c-44.6-62.9-110-79.6-110-143.3C490,25.4,515.9,0,547.7,0c13,0,24.9,5.8,34.5,14.3l-16.7,26.2l48.1,27L586.3,135l75.6-81l-48.1-27L627,7.4C634.7,2.8,644.3,0,652.2,0z"/></symbol>
<symbol id="bn4" viewBox="490 0 220 200"><path fill="#AAAAAA" d="M897.2,0c32,0,57.8,25.4,57.8,56.7c0,61.6-67.9,80.8-110,143.3c-44.6-62.9-110-79.6-110-143.3C735,25.4,760.9,0,792.7,0c13,0,24.9,5.8,34.5,14.3l-16.7,26.2l48.1,27L831.3,135l75.6-81l-48.1-27L872,7.4C879.7,2.8,889.3,0,897.2,0z"/></symbol>
<symbol id="bn5" viewBox="490 0 220 200"><path fill="#AAAAAA" d="M1142.2,0c32,0,57.8,25.4,57.8,56.7c0,61.6-67.9,80.8-110,143.3c-44.6-62.9-110-79.6-110-143.3c0-31.3,25.9-56.7,57.7-56.7c13,0,24.9,5.8,34.5,14.3l-16.7,26.2l48.1,27l-27.5,67.5l75.6-81l-48.1-27L1117,7.4C1124.7,2.8,1134.3,0,1142.2,0z"/></symbol>
</defs>
</svg>