<?xml version="1.0" encoding="utf-8"?>
<!-- Generator: Adobe Illustrator 16.0.0, SVG Export Plug-In . SVG Version: 6.00 Build 0)  -->
<!DOCTYPE svg PUBLIC "-//W3C//DTD SVG 1.1//EN" "http://www.w3.org/Graphics/SVG/1.1/DTD/svg11.dtd">
<svg version="1.1" id="レイヤー_1" xmlns="http://www.w3.org/2000/svg" xmlns:xlink="http://www.w3.org/1999/xlink" x="0px"
	 y="0px" width="200px" height="200px" viewBox="0 0 200 200" enable-background="new 0 0 200 200" xml:space="preserve">
<g>
	<path fill="#3E3E40" d="M187.478,16.524l-5.025,68.204l-106.576,98.86l-63.359-68.327l106.576-98.848L187.478,16.524 M187.96,4.012
		c-0.156-0.007-0.313-0.007-0.456-0.007l-68.398-0.104c-3.164,0-6.211,1.185-8.528,3.34L4.015,106.082
		c-5.078,4.701-5.378,12.631-0.678,17.695l63.359,68.32c2.266,2.429,5.404,3.881,8.711,3.991c3.32,0.13,6.55-1.062,8.984-3.327
		l106.576-98.854c2.317-2.155,3.737-5.104,3.958-8.256l5.039-68.21c0.261-3.47-0.938-6.895-3.307-9.434
		C194.393,5.567,191.267,4.136,187.96,4.012L187.96,4.012z"/>
	<path fill="#3E3E40" d="M159.835,71.108c-8.581,7.981-22.006,7.474-29.987-1.14c-7.969-8.58-7.448-21.998,1.133-29.98
		c8.581-7.962,22.031-7.461,29.987,1.12C168.937,49.695,168.441,63.14,159.835,71.108z"/>
</g>
</svg>
