<?xml version="1.0" encoding="utf-8"?>
<!-- Generator: Adobe Illustrator 16.0.0, SVG Export Plug-In . SVG Version: 6.00 Build 0)  -->
<!DOCTYPE svg PUBLIC "-//W3C//DTD SVG 1.1//EN" "http://www.w3.org/Graphics/SVG/1.1/DTD/svg11.dtd">
<svg version="1.1" id="レイヤー_1" xmlns="http://www.w3.org/2000/svg" xmlns:xlink="http://www.w3.org/1999/xlink" x="0px"
	 y="0px" width="200px" height="200px" viewBox="0 0 200 200" enable-background="new 0 0 200 200" xml:space="preserve">
<g>
	<path fill="#3E3E40" d="M99.998,66.888c1.611,0,3.232,0.576,4.521,1.719l43.211,38.479c2.793,2.495,3.047,6.782,0.547,9.585
		c-2.49,2.798-6.777,3.047-9.58,0.552l-38.7-34.457l-38.69,34.457c-2.803,2.495-7.1,2.246-9.59-0.552
		c-2.49-2.803-2.246-7.09,0.557-9.585l43.211-38.479C96.775,67.464,98.386,66.888,99.998,66.888z"/>
	<path fill="#3E3E40" d="M100,15c46.869,0,85,38.131,85,85s-38.131,85-85,85s-85-38.131-85-85S53.131,15,100,15 M100,0
		C44.771,0,0,44.771,0,100s44.771,100,100,100s100-44.771,100-100S155.229,0,100,0L100,0z"/>
</g>
</svg>
