<?xml version="1.0" encoding="utf-8"?>
<!-- Generator: Adobe Illustrator 16.0.0, SVG Export Plug-In . SVG Version: 6.00 Build 0)  -->
<!DOCTYPE svg PUBLIC "-//W3C//DTD SVG 1.1//EN" "http://www.w3.org/Graphics/SVG/1.1/DTD/svg11.dtd">
<svg version="1.1" id="レイヤー_1" xmlns="http://www.w3.org/2000/svg" xmlns:xlink="http://www.w3.org/1999/xlink" x="0px"
	 y="0px" width="200px" height="200px" viewBox="0 0 200 200" enable-background="new 0 0 200 200" xml:space="preserve">
<path fill="#3E3E40" d="M200,40.294c-7.354,3.142-15.269,5.265-23.564,6.225c8.466-4.892,14.971-12.636,18.045-21.858
	c-7.932,4.526-16.713,7.813-26.062,9.587c-7.481-7.676-18.147-12.474-29.951-12.474c-22.66,0-41.032,17.688-41.032,39.495
	c0,3.1,0.361,6.114,1.062,9.001c-34.104-1.639-64.339-17.366-84.575-41.262c-3.533,5.825-5.554,12.619-5.554,19.854
	c0,13.706,7.244,25.79,18.253,32.872c-6.726-0.204-13.057-1.979-18.584-4.942c-0.004,0.17-0.004,0.331-0.004,0.501
	c0,19.141,14.143,35.097,32.915,38.731c-3.444,0.899-7.07,1.376-10.81,1.376c-2.646,0-5.214-0.247-7.719-0.705
	c5.218,15.692,20.372,27.114,38.328,27.429c-14.041,10.598-31.734,16.907-50.959,16.907c-3.312,0-6.577-0.188-9.787-0.553
	c18.155,11.21,39.725,17.748,62.899,17.748c75.467,0,116.746-60.182,116.746-112.381c0-1.707-0.042-3.414-0.119-5.104
	C187.543,55.172,194.497,48.217,200,40.294z"/>
</svg>
