<?xml version="1.0" encoding="utf-8"?>
<!-- Generator: Adobe Illustrator 16.0.0, SVG Export Plug-In . SVG Version: 6.00 Build 0)  -->
<!DOCTYPE svg PUBLIC "-//W3C//DTD SVG 1.1//EN" "http://www.w3.org/Graphics/SVG/1.1/DTD/svg11.dtd">
<svg version="1.1" id="レイヤー_1" xmlns="http://www.w3.org/2000/svg" xmlns:xlink="http://www.w3.org/1999/xlink" x="0px"
	 y="0px" width="200px" height="200px" viewBox="0 0 200 200" enable-background="new 0 0 200 200" xml:space="preserve">
<path fill="#3E3E40" d="M100.006,0.006C44.867,0.006,0,44.867,0,100c0,32.303,15.416,61.057,39.255,79.35
	c11.965-1.093,22.928-5.638,31.886-12.649c-13.215-0.247-24.36-8.971-28.201-20.962c1.849,0.352,3.737,0.54,5.677,0.54
	c2.76,0,5.429-0.364,7.955-1.054c-13.801-2.773-24.204-14.973-24.204-29.588c0-0.13,0-0.26,0-0.384
	c4.063,2.259,8.724,3.62,13.671,3.776c-8.099-5.417-13.424-14.647-13.424-25.122c0-5.534,1.484-10.715,4.076-15.168
	C51.585,96.999,73.823,109.01,98.9,110.266c-0.521-2.207-0.781-4.511-0.781-6.875c0-16.666,13.515-30.174,30.18-30.174
	c8.685,0,16.522,3.659,22.03,9.524c6.875-1.354,13.333-3.867,19.166-7.324c-2.252,7.05-7.044,12.961-13.267,16.698
	c6.093-0.729,11.913-2.356,17.329-4.752c-4.049,6.054-9.166,11.366-15.064,15.617c0.065,1.302,0.091,2.598,0.091,3.906
	c0,39.887-30.363,85.867-85.867,85.867c-4.114,0-8.163-0.306-12.121-0.866c12.095,5.208,25.428,8.105,39.411,8.105
	C155.146,199.994,200,155.14,200,100C200,44.867,155.146,0.006,100.006,0.006z"/>
</svg>
