<?xml version="1.0" encoding="utf-8"?>
<!-- Generator: Adobe Illustrator 16.0.0, SVG Export Plug-In . SVG Version: 6.00 Build 0)  -->
<!DOCTYPE svg PUBLIC "-//W3C//DTD SVG 1.1//EN" "http://www.w3.org/Graphics/SVG/1.1/DTD/svg11.dtd">
<svg version="1.1" id="レイヤー_1" xmlns="http://www.w3.org/2000/svg" xmlns:xlink="http://www.w3.org/1999/xlink" x="0px"
	 y="0px" width="200px" height="200px" viewBox="0 0 200 200" enable-background="new 0 0 200 200" xml:space="preserve">
<g>
	<ellipse fill="#3E3E40" cx="178.236" cy="81.246" rx="21.764" ry="32.062"/>
	<ellipse fill="#3E3E40" cx="133.141" cy="32.062" rx="21.764" ry="32.061"/>
	<ellipse fill="#3E3E40" cx="21.763" cy="81.246" rx="21.763" ry="32.062"/>
	<ellipse fill="#3E3E40" cx="66.858" cy="32.062" rx="21.764" ry="32.061"/>
	<path fill="#3E3E40" d="M99.612,96.462c4.328,0,9.468,4.071,13.753,10.892l33.606,53.489c4.681,7.449,5.108,12.606,4.279,14.108
		c-0.83,1.501-5.425,3.883-14.223,3.883H62.195c-8.797,0-13.392-2.382-14.222-3.883c-0.83-1.502-0.401-6.659,4.278-14.108
		l33.607-53.489C90.143,100.533,95.284,96.462,99.612,96.462 M99.612,75.295c-11.483,0-22.965,6.932-31.677,20.797l-33.606,53.49
		C16.906,177.313,29.446,200,62.195,200h74.833c32.749,0,45.289-22.688,27.866-50.417l-33.606-53.49
		C122.577,82.228,111.095,75.295,99.612,75.295L99.612,75.295z"/>
</g>
</svg>
