<?xml version="1.0" encoding="utf-8"?>
<!-- Generator: Adobe Illustrator 16.0.0, SVG Export Plug-In . SVG Version: 6.00 Build 0)  -->
<!DOCTYPE svg PUBLIC "-//W3C//DTD SVG 1.1//EN" "http://www.w3.org/Graphics/SVG/1.1/DTD/svg11.dtd">
<svg version="1.1" id="レイヤー_1" xmlns="http://www.w3.org/2000/svg" xmlns:xlink="http://www.w3.org/1999/xlink" x="0px"
	 y="0px" width="200px" height="200px" viewBox="0 0 200 200" enable-background="new 0 0 200 200" xml:space="preserve">
<path fill-rule="evenodd" clip-rule="evenodd" fill="#3E3E40" d="M84.323,168.425l-3.945,1.484l-44.023,16.602l-22.773-22.253
	l18.021-48.567L84.323,168.425z M22.617,162.292c1.81,1.783,13.711,13.411,15.482,15.143c2.356-0.885,26.68-10.052,32.122-12.096
	c-4.258-4.258-31.25-31.264-35.521-35.534C32.656,135.273,23.516,159.883,22.617,162.292z M11.471,171.367L0,199.961l28.581-11.328
	L11.471,171.367z M71.966,145.078L54.948,128.06L163.477,19.506l17.031,17.031L71.966,145.078z M91.445,164.558l-12.656-12.656
	L187.344,43.359L200,56.016L91.445,164.558z M156.667,12.695L48.112,121.237l-12.656-12.656L144.01,0.039L156.667,12.695z"/>
</svg>
