<?xml version="1.0" encoding="utf-8"?>
<!-- Generator: Adobe Illustrator 16.0.0, SVG Export Plug-In . SVG Version: 6.00 Build 0)  -->
<!DOCTYPE svg PUBLIC "-//W3C//DTD SVG 1.1//EN" "http://www.w3.org/Graphics/SVG/1.1/DTD/svg11.dtd">
<svg version="1.1" id="レイヤー_1" xmlns="http://www.w3.org/2000/svg" xmlns:xlink="http://www.w3.org/1999/xlink" x="0px"
	 y="0px" width="600px" height="100px" viewBox="0 0 600 100" enable-background="new 0 0 600 100" xml:space="preserve">
<path fill="#3296C8" d="M81.1,0c16,0,28.9,12.7,28.9,28.3c0,30.8-33.9,40.4-55,71.7C32.7,68.5,0,60.2,0,28.3C0,12.7,12.9,0,28.9,0
	c6.5,0,12.5,2.9,17.3,7.2l-8.3,13.1l24.1,13.5L48.1,67.5L85.9,27L61.9,13.5l6.6-9.8C72.3,1.4,77.1,0,81.1,0z M191,3.7l-6.6,9.8
	L208.4,27l-37.8,40.5l13.8-33.7l-24.1-13.5l8.3-13.1C163.8,2.9,157.9,0,151.4,0c-15.9,0-28.9,12.7-28.9,28.3
	c0,31.8,32.7,40.2,55,71.7c21.1-31.3,55-40.8,55-71.7c0-15.6-12.9-28.3-28.9-28.3C199.6,0,194.8,1.4,191,3.7z"/>
<path fill="#AAAAAA" d="M326.1,0c16,0,28.9,12.7,28.9,28.3c0,30.8-33.9,40.4-55,71.7c-22.3-31.5-55-39.8-55-71.7
	C245,12.7,257.9,0,273.9,0c6.5,0,12.5,2.9,17.3,7.2l-8.3,13.1l24.1,13.5l-13.8,33.7L330.9,27l-24.1-13.5l6.6-9.8
	C317.3,1.4,322.1,0,326.1,0z M448.6,0c16,0,28.9,12.7,28.9,28.3c0,30.8-33.9,40.4-55,71.7c-22.3-31.5-55-39.8-55-71.7
	c0-15.6,12.9-28.3,28.9-28.3c6.5,0,12.5,2.9,17.3,7.2l-8.3,13.1l24.1,13.5l-13.8,33.7L453.4,27l-24.1-13.5l6.6-9.8
	C439.8,1.4,444.6,0,448.6,0z M571.1,0c16,0,28.9,12.7,28.9,28.3c0,30.8-33.9,40.4-55,71.7c-22.3-31.5-55-39.8-55-71.7
	C490,12.7,502.9,0,518.9,0c6.5,0,12.5,2.9,17.3,7.2l-8.3,13.1l24.1,13.5l-13.8,33.7L575.9,27l-24.1-13.5l6.6-9.8
	C562.3,1.4,567.1,0,571.1,0z"/>
</svg>
