<?xml version="1.0" encoding="utf-8"?>
<!-- Generator: Adobe Illustrator 16.0.0, SVG Export Plug-In . SVG Version: 6.00 Build 0)  -->
<!DOCTYPE svg PUBLIC "-//W3C//DTD SVG 1.1//EN" "http://www.w3.org/Graphics/SVG/1.1/DTD/svg11.dtd">
<svg version="1.1" id="レイヤー_1" xmlns="http://www.w3.org/2000/svg" xmlns:xlink="http://www.w3.org/1999/xlink" x="0px"
	 y="0px" width="600px" height="100px" viewBox="0 0 600 100" enable-background="new 0 0 600 100" xml:space="preserve">
<path fill="#FA5064" d="M110,28.3c0,30.8-33.9,40.4-55,71.7C32.7,68.5,0,60.2,0,28.3C0,12.7,12.9,0,28.9,0C40.4,0,50.4,9.2,55,18.9
	C59.6,9.2,69.6,0,81.1,0C97.1,0,110,12.7,110,28.3z M232.5,28.3c0,30.8-33.9,40.4-55,71.7c-22.3-31.5-55-39.8-55-71.7
	c0-15.6,12.9-28.3,28.9-28.3c11.6,0,21.5,9.2,26.1,18.9C182.1,9.2,192.1,0,203.6,0C219.6,0,232.5,12.7,232.5,28.3z M355,28.3
	c0,30.8-33.9,40.4-55,71.7c-22.3-31.5-55-39.8-55-71.7C245,12.7,257.9,0,273.9,0c11.6,0,21.5,9.2,26.1,18.9
	C304.6,9.2,314.6,0,326.1,0C342.1,0,355,12.7,355,28.3z"/>
<path fill="#AAAAAA" d="M448.6,0c-11.6,0-21.5,9.2-26.1,18.9C417.9,9.2,407.9,0,396.4,0c-15.9,0-28.9,12.7-28.9,28.3
	c0,31.8,32.7,40.2,55,71.7c21.1-31.3,55-40.8,55-71.7C477.5,12.7,464.6,0,448.6,0z M571.1,0c-11.6,0-21.5,9.2-26.1,18.9
	C540.4,9.2,530.4,0,518.9,0C502.9,0,490,12.7,490,28.3c0,31.8,32.7,40.2,55,71.7c21.1-31.3,55-40.8,55-71.7
	C600,12.7,587.1,0,571.1,0z"/>
</svg>
