<?xml version="1.0" encoding="utf-8"?>
<!-- Generator: Adobe Illustrator 16.0.0, SVG Export Plug-In . SVG Version: 6.00 Build 0)  -->
<!DOCTYPE svg PUBLIC "-//W3C//DTD SVG 1.1//EN" "http://www.w3.org/Graphics/SVG/1.1/DTD/svg11.dtd">
<svg version="1.1" id="レイヤー_1" xmlns="http://www.w3.org/2000/svg" xmlns:xlink="http://www.w3.org/1999/xlink" x="0px"
	 y="0px" width="600px" height="100px" viewBox="0 0 600 100" enable-background="new 0 0 600 100" xml:space="preserve">
<path fill="#FA5064" d="M81.1,0C69.6,0,59.6,9.2,55,18.9C50.4,9.2,40.4,0,28.9,0C12.9,0,0,12.7,0,28.3C0,60.2,32.7,68.5,55,100
	c21.1-31.3,55-40.8,55-71.7C110,12.7,97.1,0,81.1,0z"/>
<path fill="#AAAAAA" d="M203.6,0c-11.6,0-21.5,9.2-26.1,18.9C172.9,9.2,162.9,0,151.4,0c-15.9,0-28.9,12.7-28.9,28.3
	c0,31.8,32.7,40.2,55,71.7c21.1-31.3,55-40.8,55-71.7C232.5,12.7,219.6,0,203.6,0z M326.1,0c-11.6,0-21.5,9.2-26.1,18.9
	C295.4,9.2,285.4,0,273.9,0C257.9,0,245,12.7,245,28.3c0,31.8,32.7,40.2,55,71.7c21.1-31.3,55-40.8,55-71.7
	C355,12.7,342.1,0,326.1,0z M448.6,0c-11.6,0-21.5,9.2-26.1,18.9C417.9,9.2,407.9,0,396.4,0c-15.9,0-28.9,12.7-28.9,28.3
	c0,31.8,32.7,40.2,55,71.7c21.1-31.3,55-40.8,55-71.7C477.5,12.7,464.6,0,448.6,0z M571.1,0c-11.6,0-21.5,9.2-26.1,18.9
	C540.4,9.2,530.4,0,518.9,0C502.9,0,490,12.7,490,28.3c0,31.8,32.7,40.2,55,71.7c21.1-31.3,55-40.8,55-71.7
	C600,12.7,587.1,0,571.1,0z"/>
</svg>
