<?xml version="1.0" encoding="utf-8"?><svg version="1.1" xmlns="http://www.w3.org/2000/svg" width="200px" height="200px" viewBox="0 0 200 200"><path d="M38.6,42c0,10.7-8.6,19.3-19.3,19.3C8.7,61.4,0,52.7,0,42c0-10.7,8.7-19.3,19.3-19.3C30,22.7,38.6,31.4,38.6,42zM19.3,80.7C8.7,80.7,0,89.3,0,100s8.7,19.3,19.3,19.3c10.7,0,19.3-8.6,19.3-19.3S30,80.7,19.3,80.7zM19.3,138.6C8.7,138.6,0,147.3,0,158c0,10.7,8.7,19.3,19.3,19.3c10.7,0,19.3-8.7,19.3-19.3C38.6,147.3,30,138.6,19.3,138.6zM200,22.7v38.6H69.6c-9.7,0-17.6-7.9-17.6-17.6v-3.5c0-9.7,7.9-17.6,17.6-17.6H200zM189.5,33.3H69.6c-3.8,0-7,3.2-7,7v3.5c0,3.8,3.2,7,7,7h119.9V33.3zM200,80.7v38.6H69.6c-9.7,0-17.6-7.9-17.6-17.6v-3.5c0-9.7,7.9-17.6,17.6-17.6H200zM69.6,91.2c-3.8,0-7,3.2-7,7v3.5c0,3.8,3.2,7,7,7h119.9V91.2H69.6zM200,138.6v38.6H69.6c-9.7,0-17.6-7.9-17.6-17.6v-3.5c0-9.7,7.9-17.6,17.6-17.6H200zM69.6,149.2c-3.8,0-7,3.2-7,7v3.5c0,3.8,3.2,7,7,7h119.9v-17.6H69.6z"/></svg>