<?xml version="1.0" encoding="utf-8"?><svg version="1.1" xmlns="http://www.w3.org/2000/svg" width="200px" height="200px" viewBox="0 0 200 200"><path d="M54.5,36.4H0V0h54.5V36.4zM127.3,0H72.7v36.4h54.5V0zM200,0h-54.5v36.4H200V0zM54.5,54.5H0v36.4h54.5V54.5zM127.3,54.5H72.7v36.4h54.5V54.5zM200,54.5h-54.5v36.4H200V54.5zM54.5,109.1H0v36.4h54.5V109.1zM127.3,109.1H72.7v36.4h54.5V109.1zM200,109.1h-54.5v36.4H200V109.1zM54.5,163.6H0V200h54.5V163.6zM127.3,163.6H72.7V200h54.5V163.6zM200,163.6h-54.5V200H200V163.6z"/></svg>