<?xml version="1.0" encoding="utf-8"?><svg version="1.1" xmlns="http://www.w3.org/2000/svg" width="200px" height="200px" viewBox="0 0 200 200"><path d="M200,81.2c0,17.7-9.7,32.1-21.8,32.1c-12,0-21.8-14.4-21.8-32.1c0-17.7,9.7-32.1,21.8-32.1C190.3,49.2,200,63.5,200,81.2zM133.1,0c-12,0-21.8,14.4-21.8,32.1s9.7,32.1,21.8,32.1c12,0,21.8-14.4,21.8-32.1S145.2,0,133.1,0zM0,81.2c0,17.7,9.7,32.1,21.8,32.1S43.5,99,43.5,81.2c0-17.7-9.7-32.1-21.8-32.1S0,63.5,0,81.2zM45.1,32.1c0,17.7,9.7,32.1,21.8,32.1s21.8-14.4,21.8-32.1S78.9,0,66.9,0S45.1,14.4,45.1,32.1zM99.6,96.5c-4.3,0-9.5,4.1-13.8,10.9l-33.6,53.5c-4.7,7.4-5.1,12.6-4.3,14.1c0.8,1.5,5.4,3.9,14.2,3.9H137c8.8,0,13.4-2.4,14.2-3.9c0.8-1.5,0.4-6.7-4.3-14.1l-33.6-53.5C109.1,100.5,103.9,96.5,99.6,96.5M99.6,75.3c11.5,0,23,6.9,31.7,20.8l33.6,53.5c17.4,27.7,4.9,50.4-27.9,50.4H62.2c-32.7,0-45.3-22.7-27.9-50.4l33.6-53.5C76.6,82.2,88.1,75.3,99.6,75.3L99.6,75.3z"/></svg>