<?xml version="1.0" encoding="utf-8"?><svg version="1.1" xmlns="http://www.w3.org/2000/svg" width="200px" height="200px" viewBox="0 0 200 200"><path d="M169.2,40.6V10h-10.1v30.6h-30.8v10.1h30.8v30.6h10.1V50.7H200V40.6H169.2zM118.3,10H69.5C56.7,10,40.6,11.9,27,23c-10.2,8.7-15.2,20.8-15.2,31.7c0,18.4,14.2,37.1,39.4,37.1c2.4,0,5-0.2,7.6-0.5c-1.2,2.8-2.4,5.2-2.4,9.2c0,7.3,3.8,11.8,7.1,16.1c-10.7,0.7-30.6,1.9-45.3,10.9C4.3,135.7,0,147.7,0,156.2C0,173.7,16.6,190,51,190c40.8,0,62.4-22.4,62.4-44.6c0-16.3-9.5-24.3-19.9-33.1l-8.5-6.6c-2.6-2.1-6.2-5-6.2-10.2c0-5.2,3.6-8.5,6.6-11.6c9.9-7.8,19.9-16.1,19.9-33.6c0-18-11.4-27.4-16.8-31.9h14.7L118.3,10zM97.5,154.6c0,14.7-12.1,25.5-34.9,25.5c-25.4,0-41.7-12.1-41.7-28.8c0-16.8,15.2-22.4,20.4-24.3c10-3.3,22.8-3.8,24.9-3.8c2.4,0,3.6,0,5.5,0.2C89.6,136.2,97.5,142.5,97.5,154.6zM78.5,78.5c-3.8,3.8-10.2,6.6-16.1,6.6c-20.4,0-29.6-26.2-29.6-42.1c0-6.1,1.2-12.5,5.2-17.5c3.8-4.7,10.4-7.8,16.6-7.8c19.7,0,29.9,26.5,29.9,43.5C84.4,65.5,83.9,73.1,78.5,78.5z"/></svg>