<?xml version="1.0" encoding="utf-8"?><svg version="1.1" xmlns="http://www.w3.org/2000/svg" width="200px" height="200px" viewBox="0 0 200 200"><path d="M56.3,82.2c0,3.7-0.4,10.1-5.1,14.8c-3.3,3.2-8.7,5.7-13.8,5.7c-17.4,0-25.3-22.5-25.3-36.1c0-5.3,1-10.8,4.5-15c3.2-4.1,8.9-6.7,14.2-6.7C47.6,44.8,56.3,67.6,56.3,82.2zM67.5,162.3c0-10.3-6.7-15.8-22.1-26.8c-1.6-0.2-2.6-0.2-4.7-0.2c-1.8,0-12.8,0.4-21.3,3.2c-2,0.7-5.9,2.2-9.4,4.9c7.9,16.4,20.2,30.3,35.4,40.2C59.8,181.5,67.5,173.1,67.5,162.3zM6.6,135.6c11.4-4.6,24.3-5.4,31.9-5.9c-2.8-3.6-6.1-7.5-6.1-13.8c0-3.5,1-5.5,2-7.9c-2.2,0.2-4.5,0.4-6.5,0.4c-12.7,0-22.2-5.6-27.8-13.5C0.1,96.5,0,98.3,0,100C0,112.5,2.3,124.5,6.6,135.6zM200,100c0,55.1-44.9,100-100,100c-16.8,0-32.6-4.2-46.5-11.5C71.6,181.7,81,168,81,154.4c0-14-8.1-20.9-17-28.4l-7.3-5.7c-2.2-1.8-5.3-4.3-5.3-8.7c0-4.5,3-7.3,5.7-9.9c8.5-6.7,17-13.8,17-28.8c0-15.4-9.7-23.5-14.4-27.4h12.6l13-7.3H43.5c-7.7,0-16.7,0.8-25.4,4.5C36.2,16.9,66.2,0,100,0C155.1,0,200,44.9,200,100zM155.2,64.5h-26.3V38.2h-8.7v26.3H93.9v8.7h26.3v26.3h8.7V73.1h26.3V64.5z"/></svg>