<?xml version="1.0" encoding="utf-8"?><svg version="1.1" xmlns="http://www.w3.org/2000/svg" width="200px" height="200px" viewBox="0 0 200 200"><path d="M200,85.9c0-44.7-44.9-81.1-100-81.1C44.9,4.7,0,41.1,0,85.9c0,40.1,35.6,73.7,83.6,80.1c3.3,0.7,7.7,2.2,8.8,4.9c1,2.5,0.7,6.5,0.3,9c0,0-1.2,7.1-1.4,8.6c-0.4,2.5-2,9.9,8.7,5.4c10.7-4.5,57.6-33.9,78.6-58.1h0C193.1,119.9,200,103.8,200,85.9zM60.9,112.5H41c-2.9,0-5.2-2.3-5.2-5.2V67.5c0-2.9,2.4-5.2,5.2-5.2c2.9,0,5.2,2.4,5.2,5.2V102h14.6c2.9,0,5.2,2.4,5.2,5.2C66.1,110.1,63.8,112.5,60.9,112.5zM81.4,107.2c0,2.9-2.4,5.2-5.2,5.2c-2.9,0-5.2-2.3-5.2-5.2V67.5c0-2.9,2.3-5.2,5.2-5.2c2.9,0,5.2,2.4,5.2,5.2V107.2zM129.2,107.2c0,2.3-1.4,4.3-3.6,5c-0.5,0.2-1.1,0.3-1.7,0.3c-1.6,0-3.2-0.8-4.2-2.1L99.4,82.7v24.6c0,2.9-2.3,5.2-5.2,5.2c-2.9,0-5.2-2.3-5.2-5.2V67.5c0-2.3,1.4-4.3,3.6-5c0.5-0.2,1.1-0.3,1.7-0.3c1.6,0,3.2,0.8,4.2,2.1l20.4,27.7V67.5c0-2.9,2.4-5.2,5.2-5.2c2.9,0,5.2,2.4,5.2,5.2V107.2zM161.4,82.1c2.9,0,5.2,2.3,5.2,5.2c0,2.9-2.4,5.2-5.2,5.2h-14.6v9.4h14.6c2.9,0,5.2,2.4,5.2,5.2c0,2.9-2.4,5.2-5.2,5.2h-19.9c-2.9,0-5.2-2.3-5.2-5.2V87.4c0,0,0,0,0,0c0,0,0,0,0,0V67.5c0,0,0,0,0,0c0-2.9,2.4-5.2,5.2-5.2h19.9c2.9,0,5.2,2.4,5.2,5.2c0,2.9-2.4,5.2-5.2,5.2h-14.6v9.4H161.4z"/></svg>