<?xml version="1.0" encoding="utf-8"?><svg version="1.1" xmlns="http://www.w3.org/2000/svg" width="200px" height="200px" viewBox="0 0 200 200"><path d="M85.6,124.8c-2.7,0-5.3-1-7.4-3c-19-19-19-50,0-69l38.4-38.4C125.9,5.1,138.2,0,151.2,0s25.3,5.1,34.5,14.3c19,19,19,50,0,69l-17.6,17.6c-4.1,4.1-10.6,4.1-14.7,0c-4.1-4.1-4.1-10.6,0-14.7L171,68.6c10.9-10.9,10.9-28.7,0-39.6c-5.3-5.3-12.3-8.2-19.8-8.2c-7.5,0-14.5,2.9-19.8,8.2L93,67.4C82.1,78.3,82.1,96.1,93,107c4.1,4.1,4.1,10.6,0,14.7C91,123.7,88.3,124.8,85.6,124.8zM83.3,185.7l38.4-38.4c19-19,19-50,0-69c-4.1-4.1-10.7-4.1-14.7,0s-4.1,10.6,0,14.7c10.9,10.9,10.9,28.7,0,39.6L68.6,171c-5.3,5.3-12.3,8.2-19.8,8.2c-7.5,0-14.5-2.9-19.8-8.2c-10.9-10.9-10.9-28.7,0-39.6l17.6-17.6c4.1-4.1,4.1-10.6,0-14.7c-4.1-4.1-10.6-4.1-14.7,0l-17.6,17.6c-19,19-19,50,0,69c9.2,9.2,21.5,14.3,34.5,14.3S74.1,194.9,83.3,185.7z"/></svg>