<?xml version="1.0" encoding="utf-8"?><svg version="1.1" xmlns="http://www.w3.org/2000/svg" width="200px" height="200px" viewBox="0 0 200 200"><path d="M50,69.4c0-4.8,3.9-8.7,8.7-8.7h82.6c4.8,0,8.7,3.9,8.7,8.7v4c0,4.8-3.9,8.7-8.7,8.7H58.7c-4.8,0-8.7-3.9-8.7-8.7V69.4zM50,98c0-4.8,3.9-8.7,8.7-8.7h82.6c4.8,0,8.7,3.9,8.7,8.7v4c0,4.8-3.9,8.7-8.7,8.7H58.7c-4.8,0-8.7-3.9-8.7-8.7V98zM50,126.6c0-4.8,3.9-8.7,8.7-8.7h82.6c4.8,0,8.7,3.9,8.7,8.7v4c0,4.8-3.9,8.7-8.7,8.7H58.7c-4.8,0-8.7-3.9-8.7-8.7V126.6zM100,15c46.9,0,85,38.1,85,85s-38.1,85-85,85s-85-38.1-85-85S53.1,15,100,15M100,0C44.8,0,0,44.8,0,100s44.8,100,100,100s100-44.8,100-100S155.2,0,100,0L100,0z"/></svg>