<?xml version="1.0" encoding="utf-8"?><svg version="1.1" xmlns="http://www.w3.org/2000/svg" width="200px" height="200px" viewBox="0 0 200 200"><path d="M100,66.9c1.6,0,3.2,0.6,4.5,1.7l43.2,38.5c2.8,2.5,3,6.8,0.5,9.6c-2.5,2.8-6.8,3-9.6,0.6L100,82.8l-38.7,34.5c-2.8,2.5-7.1,2.2-9.6-0.6c-2.5-2.8-2.2-7.1,0.6-9.6l43.2-38.5C96.8,67.5,98.4,66.9,100,66.9zM100,15c-46.9,0-85,38.1-85,85s38.1,85,85,85s85-38.1,85-85S146.9,15,100,15M100,0c55.2,0,100,44.8,100,100s-44.8,100-100,100S0,155.2,0,100S44.8,0,100,0L100,0z"/></svg>