<?xml version="1.0" encoding="utf-8"?><svg version="1.1" xmlns="http://www.w3.org/2000/svg" width="200px" height="200px" viewBox="0 0 200 200"><path d="M199.9,92.7c-0.3-1.5-1.3-2.8-2.7-3.3l-39.4-14.7l-21.4-24.2l-20.6-27.2c-0.6-0.7-1.3-1.3-2.2-1.5L87.9,14c0,0,0,0-0.1,0c0,0-0.1,0-0.1,0c0,0,0,0-0.1,0c-0.3-0.1-0.6-0.1-1-0.1c0,0-0.1,0-0.1,0c0,0-0.1,0-0.1,0c0,0-0.1,0-0.1,0c-0.1,0-0.3,0.1-0.4,0.1c-0.1,0-0.1,0-0.2,0c-0.1,0-0.2,0-0.4,0.1c0,0,0,0,0,0l-31,9.5c-0.1,0-0.3,0.1-0.4,0.2c-0.1,0-0.2,0.1-0.3,0.1c-0.3,0.2-0.6,0.3-0.8,0.5c0,0,0,0,0,0c-0.3,0.2-0.5,0.5-0.7,0.8c0,0-0.1,0.1-0.1,0.1l-19.5,29l-12.8,5.3l-16.3,3c-1.3,0.2-2.5,1.1-3.1,2.3c-0.6,1.2-0.6,2.7,0,3.9l6,11.6c0,0,0,0,0,0c0,0,0,0,0,0l10.8,20.7c0.7,1.4,2.1,2.2,3.6,2.3l24.3,1.2l8.4,5c0.7,0.4,1.4,0.6,2.2,0.6c0.6,0,1.2-0.1,1.7-0.4l8.1-3.6h0.1l0.4,5.1c0.1,1.5,1,2.9,2.4,3.6l13,6.5c0.6,0.3,1.3,0.5,1.9,0.5c0.2,0,0.4,0,0.7-0.1l9.6-1.5c0.5-0.1,1-0.3,1.5-0.5l1.3-0.7l19,29l9.9,23.5c0.2,0.6,0.6,1.1,1,1.5l12.9,12c0.8,0.8,1.9,1.2,2.9,1.2c0.4,0,0.8-0.1,1.2-0.2c1.5-0.4,2.6-1.6,3-3l14.7-55.3l37.2-30.9C199.6,95.8,200.2,94.2,199.9,92.7zM104.4,110.2L119,82.7l32.1,0l1.7,37.2l-21.8-4.4L104.4,110.2zM129.6,55.8c0.1,0.1,0.1,0.2,0.2,0.3l15.9,18l-26.6,0L98.5,32.3l-3.6-7.2l14.8,4.5L129.6,55.8zM70.5,53.3l-4.8-12.1l-4.3-10.8l18.5-5.7L70.5,53.3zM37.2,61.7c0.8-0.3,1.5-0.9,1.9-1.6l15.6-23.3l1.4,3.6L66,65.3L51.6,85.6l-5.1,7.2L27.7,65.7L37.2,61.7zM23.8,94.9l-8.4-16.1l5.6-7.6l17,24.5L23.8,94.9zM63.1,98l-7,3.1l-3.4-2l13.4-19l-0.3,11.4l-0.2,6.2h-0.9C64.2,97.6,63.6,97.7,63.1,98zM84.2,113.1l-9.6-4.8l-0.5-6.5l0.9-35.2l12.3-37.2l14.4,29.2l9.7,19.7l-16.9,31.8l-3,1.8L84.2,113.1zM140,173.8l-7-6.5l-9.7-23c-0.1-0.2-0.2-0.5-0.4-0.7l-15.8-24.1l39.4,8l5.5,1.1L140,173.8zM161.3,116.4l-1.5-31.7l27.4,10.2L161.3,116.4z"/></svg>