<?xml version="1.0" encoding="utf-8"?><svg version="1.1" xmlns="http://www.w3.org/2000/svg" width="200px" height="200px" viewBox="0 0 200 200"><path d="M43.9,81.3c24.1,0,43.7,19.6,43.7,43.7S68,168.7,43.9,168.7c-24.1,0-43.7-19.6-43.7-43.7L0,118.7c0-48.3,39.1-87.4,87.4-87.4v25c-16.7,0-32.4,6.5-44.1,18.3c-2.3,2.3-4.3,4.7-6.2,7.2C39.3,81.5,41.6,81.3,43.9,81.3zM156.3,81.3c24.1,0,43.7,19.6,43.7,43.7s-19.6,43.7-43.7,43.7c-24.1,0-43.7-19.6-43.7-43.7l-0.2-6.2c0-48.3,39.1-87.4,87.4-87.4v25c-16.7,0-32.4,6.5-44.1,18.3c-2.3,2.3-4.3,4.7-6.2,7.2C151.7,81.5,154,81.3,156.3,81.3L156.3,81.3z"/></svg>