<?xml version="1.0" encoding="utf-8"?><svg version="1.1" xmlns="http://www.w3.org/2000/svg" width="200px" height="200px" viewBox="0 0 200 200"><path d="M156.1,118.7c-24.1,0-43.7-19.6-43.7-43.7s19.6-43.7,43.7-43.7s43.7,19.6,43.7,43.7l0.2,6.2c0,48.3-39.1,87.4-87.4,87.4v-25c16.7,0,32.4-6.5,44.1-18.3c2.3-2.3,4.3-4.7,6.2-7.2C160.7,118.5,158.4,118.7,156.1,118.7zM43.7,118.7C19.6,118.7,0,99.2,0,75s19.6-43.7,43.7-43.7S87.4,50.9,87.4,75l0.2,6.2c0,48.3-39.1,87.4-87.4,87.4v-25c16.7,0,32.4-6.5,44.1-18.3c2.3-2.3,4.3-4.7,6.2-7.2C48.3,118.5,46,118.7,43.7,118.7z"/></svg>