<?xml version="1.0" encoding="utf-8"?><svg version="1.1" xmlns="http://www.w3.org/2000/svg" width="200px" height="200px" viewBox="0 0 200 200"><path d="M188.8,117.7c0-59.8-48.6-108.4-108.3-108.4V0.2C34.6,9.6,0,50.3,0,99c0,55.6,45.3,100.9,100.9,100.9c49.2,0,90.3-35.4,99.1-82.1H188.8zM93.1,117.6c-7,0-12.6-5.6-12.6-12.6c0-6.9,5.7-12.6,12.6-12.6c7,0,12.7,5.7,12.7,12.6C105.8,112,100.1,117.6,93.1,117.6zM124.9,117.7c0-11.9-4.6-23.1-13-31.5c-8.4-8.4-19.5-13-31.4-13V55c34.5,0,62.7,28.1,62.7,62.7H124.9zM157.2,117.7c0-42.3-34.4-76.7-76.7-76.7V22.8c52.3,0,94.9,42.6,94.9,94.9H157.2z"/></svg>