<?xml version="1.0" encoding="utf-8"?><svg version="1.1" xmlns="http://www.w3.org/2000/svg" width="200px" height="200px" viewBox="0 0 200 200"><path d="M77.7,39.3c21.2,0,38.4,17.2,38.4,38.4s-17.2,38.4-38.4,38.4c-21.2,0-38.4-17.2-38.4-38.4S56.5,39.3,77.7,39.3M77.7,25C48.6,25,25,48.6,25,77.7c0,29.1,23.6,52.7,52.7,52.7c29.1,0,52.7-23.6,52.7-52.7C130.4,48.6,106.8,25,77.7,25L77.7,25zM169.9,199.9l-3.9-0.2l-52.9-52.9c-11,5.7-23.1,8.6-35.4,8.6C34.8,155.4,0,120.6,0,77.7S34.8,0.1,77.7,0.1c42.8,0,77.7,34.8,77.7,77.7c0,12.3-3,24.5-8.6,35.4l53.2,53.2l-0.1,3.1c0,1.3-0.6,13.1-9.5,22C182.7,199.1,173.5,199.9,169.9,199.9zM115.4,128.9l56.6,56.6c2.2-0.4,5.4-1.3,8.3-4.2c3-3,4.3-6.9,4.9-9.5l-56.3-56.3l2.9-4.8c6.1-10,9.3-21.3,9.3-32.9c0-35-28.5-63.4-63.4-63.4c-35,0-63.4,28.4-63.4,63.4s28.4,63.4,63.4,63.4c11.6,0,23-3.2,32.9-9.3L115.4,128.9z"/></svg>