<?xml version="1.0" encoding="utf-8"?>
<svg version="1.1" xmlns="http://www.w3.org/2000/svg" width="200px" height="200px" viewBox="0 0 200 200"><path d="M187.5,16.5l-5,68.2L75.9,183.6l-63.4-68.3l106.6-98.8L187.5,16.5M188,4c-0.2,0-0.3,0-0.5,0l-68.4-0.1c-3.2,0-6.2,1.2-8.5,3.3L4,106.1c-5.1,4.7-5.4,12.6-0.7,17.7l63.4,68.3c2.3,2.4,5.4,3.9,8.7,4c3.3,0.1,6.5-1.1,9-3.3L191,93.9c2.3-2.2,3.7-5.1,4-8.3l5-68.2c0.3-3.5-0.9-6.9-3.3-9.4C194.4,5.6,191.3,4.1,188,4L188,4zM161,41.1c-8-8.6-21.4-9.1-30-1.1c-8.6,8-9.1,21.4-1.1,30c8,8.6,21.4,9.1,30,1.1C168.4,63.1,168.9,49.7,161,41.1z"/></svg>