<?xml version="1.0" encoding="utf-8"?><svg version="1.1" xmlns="http://www.w3.org/2000/svg" width="200px" height="200px" viewBox="0 0 200 200"><path d="M200,40.3c-7.4,3.1-15.3,5.3-23.6,6.2c8.5-4.9,15-12.6,18-21.9c-7.9,4.5-16.7,7.8-26.1,9.6c-7.5-7.7-18.1-12.5-30-12.5c-22.7,0-41,17.7-41,39.5c0,3.1,0.4,6.1,1.1,9C64.4,68.6,34.2,52.9,13.9,29c-3.5,5.8-5.6,12.6-5.6,19.9c0,13.7,7.2,25.8,18.3,32.9c-6.7-0.2-13.1-2-18.6-4.9c0,0.2,0,0.3,0,0.5c0,19.1,14.1,35.1,32.9,38.7c-3.4,0.9-7.1,1.4-10.8,1.4c-2.6,0-5.2-0.2-7.7-0.7c5.2,15.7,20.4,27.1,38.3,27.4C46.7,154.7,29,161,9.8,161c-3.3,0-6.6-0.2-9.8-0.6c18.2,11.2,39.7,17.7,62.9,17.7c75.5,0,116.7-60.2,116.7-112.4c0-1.7,0-3.4-0.1-5.1C187.5,55.2,194.5,48.2,200,40.3z"/></svg>