<?xml version="1.0" encoding="utf-8"?><svg version="1.1" xmlns="http://www.w3.org/2000/svg" width="200px" height="200px" viewBox="0 0 200 200"><path d="M100,0C44.9,0,0,44.9,0,100c0,32.3,15.4,61.1,39.3,79.4c12-1.1,22.9-5.6,31.9-12.6c-13.2-0.2-24.4-9-28.2-21c1.8,0.4,3.7,0.5,5.7,0.5c2.8,0,5.4-0.4,8-1.1c-13.8-2.8-24.2-15-24.2-29.6c0-0.1,0-0.3,0-0.4c4.1,2.3,8.7,3.6,13.7,3.8c-8.1-5.4-13.4-14.6-13.4-25.1c0-5.5,1.5-10.7,4.1-15.2C51.6,97,73.8,109,98.9,110.3c-0.5-2.2-0.8-4.5-0.8-6.9c0-16.7,13.5-30.2,30.2-30.2c8.7,0,16.5,3.7,22,9.5c6.9-1.4,13.3-3.9,19.2-7.3c-2.3,7-7,13-13.3,16.7c6.1-0.7,11.9-2.4,17.3-4.8c-4,6.1-9.2,11.4-15.1,15.6c0.1,1.3,0.1,2.6,0.1,3.9c0,39.9-30.4,85.9-85.9,85.9c-4.1,0-8.2-0.3-12.1-0.9C72.7,197.1,86,200,100,200c55.1,0,100-44.9,100-100C200,44.9,155.1,0,100,0z"/></svg>