<?xml version="1.0" encoding="utf-8"?><svg version="1.1" xmlns="http://www.w3.org/2000/svg" width="200px" height="200px" viewBox="0 0 200 200"><path d="M113.7,100c0,3.2-1.2,6.5-3.4,9l-77,86.4c-5,5.6-13.6,6.1-19.2,1.1c-5.6-5-6.1-13.6-1.1-19.2L82,100L13.1,22.6C8.1,17,8.6,8.4,14.2,3.4c5.6-5,14.2-4.5,19.2,1.1l77,86.4C112.6,93.5,113.7,96.8,113.7,100zM187,91L110,4.5c-5-5.6-13.6-6.1-19.2-1.1c-5.6,5-6.1,13.6-1.1,19.2l68.9,77.4l-68.9,77.4c-5,5.6-4.5,14.2,1.1,19.2c5.6,5,14.2,4.5,19.2-1.1l77-86.4c2.3-2.6,3.4-5.8,3.4-9C190.4,96.8,189.2,93.5,187,91z"/></svg>