<?xml version="1.0" encoding="utf-8"?><svg version="1.1" xmlns="http://www.w3.org/2000/svg" width="200px" height="200px" viewBox="0 0 200 200"><path d="M84.3,168.4l-3.9,1.5l-44,16.6l-22.8-22.3l18-48.6L84.3,168.4zM22.6,162.3c1.8,1.8,13.7,13.4,15.5,15.1c2.4-0.9,26.7-10.1,32.1-12.1c-4.3-4.3-31.3-31.3-35.5-35.5C32.7,135.3,23.5,159.9,22.6,162.3zM11.5,171.4L0,200l28.6-11.3L11.5,171.4zM72,145.1l-17-17L163.5,19.5l17,17L72,145.1zM91.4,164.6l-12.7-12.7L187.3,43.4L200,56L91.4,164.6zM156.7,12.7L48.1,121.2l-12.7-12.7L144,0L156.7,12.7z"/></svg>