<?xml version="1.0" encoding="utf-8"?>
<!-- Generator: Adobe Illustrator 16.0.0, SVG Export Plug-In . SVG Version: 6.00 Build 0)  -->
<!DOCTYPE svg PUBLIC "-//W3C//DTD SVG 1.1//EN" "http://www.w3.org/Graphics/SVG/1.1/DTD/svg11.dtd">
<svg version="1.1" id="レイヤー_1" xmlns="http://www.w3.org/2000/svg" xmlns:xlink="http://www.w3.org/1999/xlink" x="0px"
	 y="0px" width="500px" height="100px" viewBox="0 0 500 100" enable-background="new 0 0 500 100" xml:space="preserve">
<g>
	<g>
		<g>
			<g>
				<path fill="#3E3E3F" d="M244.518,51.398c0,7.955-2.661,14.008-7.991,18.158c-4.786,3.729-11.225,5.594-19.31,5.594v16.314
					c0,0.959-0.483,1.441-1.448,1.441h-7.124c-0.966,0-1.449-0.482-1.449-1.441V29.147c0-0.999,0.48-1.499,1.441-1.499h8.926
					c8.411,0,14.917,1.882,19.523,5.65C242.042,37.332,244.518,43.367,244.518,51.398z M233.922,51.494
					c0-6.375-1.151-10.809-3.445-13.306c-2.451-2.649-6.869-3.974-13.26-3.974v34.153h0.346
					C228.468,68.367,233.922,62.744,233.922,51.494z"/>
				<path fill="#3E3E3F" d="M265.667,16.416c0,0.96-0.479,1.441-1.44,1.441h-6.967c-0.963,0-1.441-0.481-1.441-1.441V6.453
					c0-0.959,0.479-1.441,1.441-1.441h6.967c0.962,0,1.44,0.482,1.44,1.441V16.416z M265.667,74.069
					c0,0.999-0.474,1.499-1.425,1.499h-6.998c-0.952,0-1.426-0.5-1.426-1.499V29.203c0-0.999,0.474-1.499,1.426-1.499h6.998
					c0.951,0,1.425,0.5,1.425,1.499V74.069z"/>
				<path fill="#3E3E3F" d="M316.48,51.398c0,7.955-2.666,14.008-7.989,18.158c-4.792,3.729-11.226,5.594-19.313,5.594v16.314
					c0,0.959-0.481,1.441-1.448,1.441h-7.125c-0.969,0-1.449-0.482-1.449-1.441V29.147c0-0.999,0.479-1.499,1.441-1.499h8.928
					c8.408,0,14.914,1.882,19.523,5.65C314,37.332,316.48,43.367,316.48,51.398z M305.88,51.494c0-6.375-1.146-10.809-3.445-13.306
					c-2.445-2.649-6.868-3.974-13.257-3.974v34.153h0.347C300.425,68.367,305.88,62.744,305.88,51.494z"/>
				<path fill="#3E3E3F" d="M366.811,50.052c0,1.998-0.484,2.996-1.438,2.996h-28.228v2.592c0,3.726,1.056,6.796,3.161,9.216
					c2.298,2.648,5.459,3.973,9.481,3.973h9.594c0.996,0,1.498,0.482,1.498,1.441v3.744c0,0.959-0.503,1.441-1.501,1.441h-9.102
					c-6.793,0-12.343-1.92-16.642-5.762c-4.456-4.031-6.626-9.406-6.512-16.128v-5.703c0.119-6.717,2.122-11.94,6.007-15.663
					c3.658-3.573,8.568-5.358,14.732-5.358c5.66,0,10.232,1.872,13.717,5.615c3.489,3.744,5.231,8.689,5.231,14.833V50.052z
					 M357.189,46.769v-1.785c0-3.647-0.827-6.604-2.482-8.871c-1.771-2.379-4.215-3.569-7.338-3.569
					c-3.154,0-5.652,1.143-7.48,3.426c-1.829,2.285-2.743,5.29-2.743,9.014v1.785H357.189z"/>
				<path fill="#3E3E3F" d="M388.505,16.416c0,0.96-0.484,1.441-1.441,1.441h-6.972c-0.958,0-1.436-0.481-1.436-1.441V6.453
					c0-0.959,0.478-1.441,1.436-1.441h6.972c0.957,0,1.441,0.482,1.441,1.441V16.416z M388.505,74.069
					c0,0.999-0.473,1.499-1.426,1.499h-7.003c-0.946,0-1.42-0.5-1.42-1.499V29.203c0-0.999,0.474-1.499,1.42-1.499h7.003
					c0.953,0,1.426,0.5,1.426,1.499V74.069z"/>
				<path fill="#3E3E3F" d="M448.242,69.982l-0.349,4.031c-0.074,0.959-0.612,1.402-1.614,1.324
					c-4.784-0.422-8.08-1.938-9.893-4.551c-1.544-2.342-2.311-6.275-2.311-11.807v-7.717c0-6.184-0.598-10.521-1.783-13.019
					c-1.378-2.918-3.884-4.377-7.519-4.377c-3.68,0-6.226,1.459-7.638,4.377c-1.266,2.575-1.897,6.913-1.897,13.019v22.635
					c0,0.961-0.479,1.439-1.441,1.439h-7.081c-0.998,0-1.499-0.479-1.499-1.439V51.263c0-5.376-0.442-9.236-1.321-11.578
					c-0.772-1.997-2.171-3.399-4.211-4.204c-0.879-0.385-1.243-0.923-1.094-1.614l0.98-3.86c0.27-0.959,0.867-1.325,1.788-1.094
					c4.604,1.193,7.66,3.495,9.155,6.912c3.073-5.566,8.18-8.351,15.32-8.351c6.451,0,11.135,1.842,14.053,5.529
					c2.804,3.534,4.209,9.158,4.209,16.877v11.461c0,2.841,0.227,4.764,0.688,5.759c0.348,0.692,1.017,1.181,2.016,1.472
					C447.798,68.858,448.283,69.328,448.242,69.982z"/>
				<path fill="#3E3E3F" d="M499.992,69.624l-0.347,3.981c-0.078,0.963-0.593,1.406-1.555,1.328c-4.76-0.382-8.024-1.88-9.789-4.49
					c-3.038,3.379-7.373,5.067-13.019,5.067c-6.451,0-11.134-1.845-14.053-5.528c-2.805-3.533-4.208-9.158-4.208-16.877V28.973
					c0-0.959,0.485-1.441,1.448-1.441h7.13c0.962,0,1.442,0.482,1.442,1.441v22.75c0,6.184,0.598,10.522,1.784,13.02
					c1.377,2.918,3.887,4.377,7.519,4.377c3.679,0,6.225-1.464,7.638-4.393c1.265-2.578,1.896-6.93,1.896-13.052v-22.64
					c0-1.001,0.502-1.503,1.501-1.503h7.026c0.998,0,1.495,0.501,1.495,1.502v31.869c0,2.89,0.233,4.832,0.693,5.832
					c0.342,0.695,1.016,1.186,2.016,1.475C499.609,68.498,500.07,68.968,499.992,69.624z"/>
			</g>
		</g>
		<g>
			<g>
				<path fill="#3E3E3F" d="M382.261,97.789c-2.383,0-3.604-0.822-3.604-3.209v-9.414h1.67v2.928h9.542v1.517h-9.542v4.71
					c0,1.455,0.679,1.949,2.248,1.949h7.587v1.533L382.261,97.789z M388.692,87.537c-0.836,0-1.536-0.697-1.536-1.535
					c0-0.867,0.7-1.563,1.536-1.563c0.85,0,1.549,0.696,1.549,1.563C390.241,86.839,389.542,87.537,388.692,87.537z M388.692,85.166
					c-0.45,0-0.808,0.387-0.808,0.836c0,0.465,0.357,0.805,0.808,0.805c0.464,0,0.835-0.34,0.835-0.805
					C389.527,85.552,389.156,85.166,388.692,85.166z"/>
				<path fill="#3E3E3F" d="M420.853,90.74c-1.426-2.631-1.826-2.895-3.24-2.895h-0.512l-1.764,3.887
					c-0.571,1.225-1.378,2.139-2.599,2.477v-1.67c0.585-0.373,1.007-1.148,1.328-1.906l1.954-4.382h1.25
					c2.263,0,3.255,0.216,4.961,3.47c1.549,2.88,2.926,5.172,4.611,6.131v1.813C424.458,96.783,422.739,94.208,420.853,90.74z
					 M423.594,88.292c-0.885,0-1.598-0.71-1.598-1.596c0-0.865,0.713-1.609,1.598-1.609c0.879,0,1.593,0.744,1.593,1.609
					C425.187,87.583,424.473,88.292,423.594,88.292z M423.594,85.863c-0.465,0-0.855,0.371-0.855,0.834
					c0,0.482,0.391,0.854,0.855,0.854c0.464,0,0.835-0.371,0.835-0.854C424.429,86.234,424.058,85.863,423.594,85.863z"/>
				<path fill="#3E3E3F" d="M457.057,89.919v8.426h-1.721v-7.342c-1.935,1.021-4.183,1.703-6.566,2.153v-1.579
					c5.681-1.176,8.814-3.563,10.435-6.476h1.927C460.139,87.146,458.742,88.714,457.057,89.919z"/>
				<path fill="#3E3E3F" d="M492.687,93.806c-1.862,2.154-4.539,3.454-7.779,4.135V96.38c2.712-0.668,4.789-1.676,6.416-3.471
					c-1.32-0.807-2.697-1.52-4.167-2.122v-1.642c1.876,0.76,3.404,1.549,5.081,2.555c0.914-1.424,1.441-3.145,1.72-4.6h-8.379
					v-1.502h10.328c-0.357,2.479-0.929,4.785-2.307,6.939c1.364,0.896,2.542,1.811,3.685,2.803v2.123
					C495.799,96.146,494.436,95.015,492.687,93.806z"/>
			</g>
		</g>
	</g>
	<g>
		<g>
			<polygon fill="#ED7700" points="0,20.325 2.559,25.265 7.16,19.013 			"/>
			<polygon fill="#ED7700" points="77.111,91.44 78.936,95.927 80.935,94.761 82.431,96.919 85.918,90.447 83.098,82.464 
				78.116,78.32 72.129,84.292 			"/>
			<polygon fill="#ED7700" points="160.029,43.256 165.163,38.95 164.407,31.059 158.679,27.648 155.773,28.585 156.853,30.144 
				159.919,31.867 161.001,36.451 155.576,39.312 146.891,39.913 152.382,45.008 			"/>
			<polygon fill="#ED7700" points="122.794,79.144 118.501,89.535 113.887,90.328 111.521,93.933 122.626,94.095 137.418,82.802 
				133.759,70.013 121.3,74.931 			"/>
		</g>
		<g>
			<polygon fill="#FFE8A9" points="2.559,25.265 7.16,34.091 17.979,34.628 7.16,19.013 			"/>
			<polygon fill="#FFE8A9" points="35.085,-0.422 28.357,19.939 27.947,35.289 28.219,39.18 33.757,41.933 37.856,41.296 
				39.899,40.11 47.774,25.265 			"/>
			<polygon fill="#FFE8A9" points="81.563,31.662 64.32,25.244 65.259,45.224 			"/>
			<polygon fill="#FFE8A9" points="146.891,39.913 81.563,31.662 110.046,51.109 			"/>
			<polygon fill="#FFE8A9" points="166.322,71.335 141.732,76.16 154.856,80.806 156.516,88.948 151.87,93.269 149.043,94.259 
				150.031,97.09 162.326,96.757 166.481,80.144 			"/>
			<polygon fill="#FFE8A9" points="58.674,89.776 55.354,93.435 51.695,95.595 49.708,98.744 56.853,99.578 67.312,98.417 
				68.143,93.099 72.129,84.292 78.116,78.32 78.116,73.499 59.502,80.307 			"/>
		</g>
		<g>
			<polygon fill="#F9BE00" points="64.32,25.244 47.774,25.265 39.899,40.11 65.259,45.224 			"/>
			<polygon fill="#F9BE00" points="110.046,51.109 81.563,31.662 65.259,45.224 			"/>
			<polygon fill="#F9BE00" points="58.837,69.35 59.502,80.307 78.116,73.499 65.259,45.224 			"/>
			<polygon fill="#F9BE00" points="157.516,64.864 152.382,45.008 141.732,76.16 166.322,71.335 			"/>
			<polygon fill="#F9BE00" points="21.894,3.643 13.291,16.459 7.16,19.013 17.979,34.628 28.357,19.939 			"/>
		</g>
		<g>
			<polygon fill="#BF4D96" points="93.922,67.49 121.3,74.931 133.759,70.013 110.046,51.109 			"/>
			<polygon fill="#BF4D96" points="78.116,73.499 93.922,67.49 65.259,45.224 			"/>
			<polygon fill="#BF4D96" points="64.32,25.244 54.854,14.529 46.021,2.863 35.085,-0.422 47.774,25.265 			"/>
			<polygon fill="#BF4D96" points="17.979,34.628 21.961,36.974 25.785,35.289 27.947,35.289 28.357,19.939 			"/>
			<polygon fill="#BF4D96" points="35.085,-0.422 21.894,3.643 28.357,19.939 			"/>
		</g>
		<g>
			<polygon fill="#60C0BD" points="146.891,39.913 110.046,51.109 133.759,70.013 141.732,76.16 152.382,45.008 			"/>
			<polygon fill="#60C0BD" points="65.259,45.224 93.922,67.49 110.046,51.109 			"/>
			<polygon fill="#60C0BD" points="39.899,40.11 49.043,54.062 53.337,64.224 58.837,69.35 65.259,45.224 			"/>
		</g>
	</g>
</g>
</svg>
