<?xml version="1.0" encoding="utf-8"?>
<!-- Generator: Adobe Illustrator 16.0.0, SVG Export Plug-In . SVG Version: 6.00 Build 0)  -->
<!DOCTYPE svg PUBLIC "-//W3C//DTD SVG 1.1//EN" "http://www.w3.org/Graphics/SVG/1.1/DTD/svg11.dtd">
<svg class="defs" version="1.1" xmlns="http://www.w3.org/2000/svg" xmlns:xlink="http://www.w3.org/1999/xlink" width="0" height="0" >

<defs>

<symbol id="logo-h" viewBox="0 0 500 100"><path style="fill:#3E3E40;" d="M244.518,51.821c0,7.953-2.661,14.007-7.991,18.157c-4.786,3.729-11.225,5.594-19.31,5.594v16.314c0,0.959-0.483,1.441-1.448,1.441h-7.124c-0.966,0-1.449-0.482-1.449-1.441V29.57c0-0.999,0.48-1.499,1.441-1.499h8.926c8.411,0,14.917,1.882,19.523,5.65C242.042,37.754,244.518,43.79,244.518,51.821z M233.922,51.915c0-6.375-1.151-10.808-3.445-13.305c-2.451-2.649-6.869-3.974-13.26-3.974v34.153h0.346C228.468,68.789,233.922,63.166,233.922,51.915z"/><path style="fill:#3E3E40;" d="M265.666,16.838c0,0.96-0.479,1.441-1.44,1.441h-6.967c-0.963,0-1.441-0.481-1.441-1.441V6.875c0-0.959,0.479-1.441,1.441-1.441h6.967c0.962,0,1.44,0.482,1.44,1.441V16.838z M265.666,74.491c0,0.999-0.474,1.499-1.425,1.499h-6.998c-0.952,0-1.426-0.5-1.426-1.499V29.625c0-0.999,0.474-1.499,1.426-1.499h6.998c0.951,0,1.425,0.5,1.425,1.499V74.491z"/><path style="fill:#3E3E40;" d="M316.479,51.821c0,7.953-2.666,14.007-7.989,18.157c-4.792,3.729-11.226,5.594-19.313,5.594v16.314c0,0.959-0.481,1.441-1.448,1.441h-7.125c-0.969,0-1.449-0.482-1.449-1.441V29.57c0-0.999,0.479-1.499,1.441-1.499h8.928c8.408,0,14.914,1.882,19.523,5.65C314,37.754,316.479,43.79,316.479,51.821z M305.88,51.915c0-6.375-1.146-10.808-3.445-13.305c-2.445-2.649-6.868-3.974-13.257-3.974v34.153h0.347C300.425,68.789,305.88,63.166,305.88,51.915z"/><path style="fill:#3E3E40;" d="M366.811,50.474c0,1.998-0.484,2.996-1.438,2.996h-28.228v2.592c0,3.727,1.056,6.796,3.161,9.216c2.298,2.648,5.459,3.973,9.481,3.973h9.594c0.996,0,1.498,0.482,1.498,1.441v3.744c0,0.959-0.503,1.441-1.501,1.441h-9.102c-6.793,0-12.343-1.92-16.642-5.762c-4.456-4.031-6.626-9.407-6.512-16.128v-5.703c0.119-6.717,2.122-11.94,6.007-15.663c3.658-3.573,8.568-5.358,14.732-5.358c5.66,0,10.232,1.872,13.717,5.615c3.489,3.744,5.231,8.689,5.231,14.833V50.474zM357.188,47.191v-1.785c0-3.647-0.827-6.604-2.482-8.871c-1.771-2.379-4.215-3.569-7.338-3.569c-3.154,0-5.652,1.143-7.48,3.426c-1.829,2.285-2.743,5.29-2.743,9.014v1.785H357.188z"/><path style="fill:#3E3E40;" d="M388.505,16.838c0,0.96-0.484,1.441-1.441,1.441h-6.972c-0.958,0-1.436-0.481-1.436-1.441V6.875c0-0.959,0.478-1.441,1.436-1.441h6.972c0.957,0,1.441,0.482,1.441,1.441V16.838z M388.505,74.491c0,0.999-0.473,1.499-1.426,1.499h-7.003c-0.946,0-1.42-0.5-1.42-1.499V29.625c0-0.999,0.474-1.499,1.42-1.499h7.003c0.953,0,1.426,0.5,1.426,1.499V74.491z"/><path style="fill:#3E3E40;" d="M448.241,70.404l-0.349,4.031c-0.074,0.959-0.612,1.402-1.614,1.324c-4.784-0.422-8.08-1.938-9.893-4.551c-1.544-2.342-2.311-6.275-2.311-11.808v-7.717c0-6.183-0.598-10.52-1.783-13.018c-1.378-2.918-3.884-4.377-7.519-4.377c-3.68,0-6.226,1.459-7.638,4.377c-1.266,2.575-1.897,6.913-1.897,13.018V74.32c0,0.961-0.479,1.439-1.441,1.439h-7.081c-0.998,0-1.499-0.479-1.499-1.439V51.685c0-5.375-0.442-9.235-1.321-11.577c-0.772-1.997-2.171-3.399-4.211-4.204c-0.879-0.385-1.243-0.923-1.094-1.614l0.98-3.86c0.27-0.959,0.867-1.325,1.788-1.094c4.604,1.193,7.66,3.495,9.155,6.912c3.073-5.566,8.18-8.351,15.32-8.351c6.451,0,11.135,1.842,14.053,5.529c2.804,3.534,4.209,9.158,4.209,16.877v11.461c0,2.841,0.227,4.764,0.688,5.759c0.348,0.692,1.017,1.181,2.016,1.472C447.798,69.28,448.282,69.75,448.241,70.404z"/><path style="fill:#3E3E40;" d="M499.991,70.046l-0.347,3.981c-0.078,0.963-0.593,1.406-1.555,1.328c-4.76-0.382-8.024-1.88-9.789-4.49c-3.038,3.379-7.373,5.067-13.019,5.067c-6.451,0-11.134-1.845-14.053-5.528c-2.805-3.533-4.208-9.158-4.208-16.878V29.395c0-0.959,0.485-1.441,1.448-1.441h7.13c0.962,0,1.442,0.482,1.442,1.441v22.75c0,6.184,0.598,10.521,1.784,13.019c1.377,2.918,3.887,4.377,7.519,4.377c3.679,0,6.225-1.464,7.638-4.393c1.265-2.578,1.896-6.929,1.896-13.052v-22.64c0-1.001,0.502-1.503,1.501-1.503h7.026c0.998,0,1.495,0.501,1.495,1.502v31.869c0,2.89,0.233,4.832,0.693,5.832c0.342,0.695,1.016,1.186,2.016,1.475C499.608,68.92,500.069,69.391,499.991,70.046z"/><path style="fill:#3E3E40;" d="M382.261,98.211c-2.383,0-3.604-0.822-3.604-3.209v-9.414h1.67v2.928h9.542v1.517h-9.542v4.71c0,1.455,0.679,1.949,2.248,1.949h7.587v1.533L382.261,98.211z M388.691,87.959c-0.836,0-1.536-0.697-1.536-1.535c0-0.867,0.7-1.563,1.536-1.563c0.85,0,1.549,0.696,1.549,1.563C390.24,87.262,389.541,87.959,388.691,87.959z M388.691,85.588c-0.45,0-0.808,0.387-0.808,0.836c0,0.465,0.357,0.805,0.808,0.805c0.464,0,0.835-0.34,0.835-0.805C389.526,85.975,389.155,85.588,388.691,85.588z"/><path style="fill:#3E3E40;" d="M420.853,91.162c-1.426-2.631-1.826-2.895-3.24-2.895h-0.512l-1.764,3.887c-0.571,1.225-1.378,2.139-2.599,2.477v-1.67c0.585-0.373,1.007-1.148,1.328-1.906l1.954-4.382h1.25c2.263,0,3.255,0.216,4.961,3.47c1.549,2.88,2.926,5.172,4.611,6.131v1.813C424.457,97.205,422.738,94.631,420.853,91.162zM423.594,88.715c-0.885,0-1.598-0.71-1.598-1.596c0-0.865,0.713-1.609,1.598-1.609c0.879,0,1.593,0.744,1.593,1.609C425.187,88.005,424.473,88.715,423.594,88.715z M423.594,86.285c-0.465,0-0.855,0.371-0.855,0.834c0,0.482,0.391,0.854,0.855,0.854c0.464,0,0.835-0.371,0.835-0.854C424.429,86.656,424.058,86.285,423.594,86.285z"/><path style="fill:#3E3E40;" d="M457.057,90.342v8.426h-1.721v-7.342c-1.935,1.021-4.183,1.703-6.566,2.153V92c5.681-1.176,8.814-3.563,10.435-6.476h1.927C460.139,87.568,458.741,89.137,457.057,90.342z"/><path style="fill:#3E3E40;" d="M492.687,94.229c-1.862,2.154-4.539,3.454-7.779,4.135v-1.561c2.712-0.668,4.789-1.676,6.416-3.471c-1.32-0.807-2.697-1.52-4.167-2.122v-1.642c1.876,0.76,3.404,1.549,5.081,2.555c0.914-1.424,1.441-3.145,1.72-4.6h-8.379v-1.502h10.328c-0.357,2.479-0.929,4.785-2.307,6.939c1.364,0.896,2.542,1.811,3.685,2.803v2.123C495.799,96.568,494.436,95.438,492.687,94.229z"/><polygon style="fill:#EE7800;" points="0,20.748 2.559,25.687 7.16,19.436"/><polygon style="fill:#EE7800;" points="77.111,91.862 78.936,96.35 80.935,95.184 82.43,97.342 85.917,90.869 83.098,82.887 78.115,78.742 72.128,84.714"/><polygon style="fill:#EE7800;" points="160.028,43.679 165.162,39.372 164.406,31.481 158.679,28.071 155.772,29.007 156.853,30.566 159.919,32.29 161.001,36.874 155.575,39.734 146.891,40.335 152.382,45.43"/><polygon style="fill:#EE7800;" points="122.794,79.566 118.501,89.957 113.887,90.75 111.521,94.355 122.626,94.518 137.418,83.225 133.759,70.436 121.3,75.354"/><polygon style="fill:#FFE9A9;" points="2.559,25.687 7.16,34.513 17.979,35.05 7.16,19.436"/><polygon style="fill:#FFE9A9;" points="35.085,0 28.356,20.361 27.946,35.711 28.218,39.603 33.756,42.355 37.856,41.718 39.899,40.532 47.773,25.687"/><polygon style="fill:#FFE9A9;" points="81.563,32.084 64.32,25.666 65.258,45.646"/><polygon style="fill:#FFE9A9;" points="146.891,40.335 81.563,32.084 110.046,51.532"/><polygon style="fill:#FFE9A9;" points="166.321,71.758 141.731,76.582 154.855,81.229 156.516,89.37 151.869,93.691 149.043,94.682 150.03,97.513 162.325,97.18 166.48,80.566"/><polygon style="fill:#FFE9A9;" points="58.673,90.198 55.354,93.857 51.694,96.018 49.708,99.166 56.853,100 67.312,98.84 68.142,93.521 72.128,84.714 78.115,78.742 78.115,73.921 59.502,80.729"/><polygon style="fill:#FABE00;" points="64.32,25.666 47.773,25.687 39.899,40.532 65.258,45.646"/><polygon style="fill:#FABE00;" points="110.046,51.532 81.563,32.084 65.258,45.646"/><polygon style="fill:#FABE00;" points="58.836,69.772 59.502,80.729 78.115,73.921 65.258,45.646"/><polygon style="fill:#FABE00;" points="157.516,65.286 152.382,45.43 141.731,76.582 166.321,71.758"/><polygon style="fill:#FABE00;" points="21.893,4.065 13.291,16.881 7.16,19.436 17.979,35.05 28.356,20.361"/><polygon style="fill:#C14D97;" points="93.921,67.912 121.3,75.354 133.759,70.436 110.046,51.532"/><polygon style="fill:#C14D97;" points="78.115,73.921 93.921,67.912 65.258,45.646"/><polygon style="fill:#C14D97;" points="64.32,25.666 54.854,14.952 46.02,3.286 35.085,0 47.773,25.687"/><polygon style="fill:#C14D97;" points="17.979,35.05 21.961,37.396 25.785,35.711 27.946,35.711 28.356,20.361"/><polygon style="fill:#C14D97;" points="35.085,0 21.893,4.065 28.356,20.361"/><polygon style="fill:#61C1BE;" points="146.891,40.335 110.046,51.532 133.759,70.436 141.731,76.582 152.382,45.43"/><polygon style="fill:#61C1BE;" points="65.258,45.646 93.921,67.912 110.046,51.532"/><polygon style="fill:#61C1BE;" points="39.899,40.532 49.043,54.484 53.337,64.646 58.836,69.772 65.258,45.646"/></symbol>

<symbol id="logo-v" viewBox="0 0 200 190"><path style="fill:#413F40;" d="M25.493,159.133c0,5.435-1.819,9.567-5.457,12.402c-3.271,2.547-7.669,3.82-13.191,3.82v11.144c0,0.655-0.331,0.983-0.989,0.983H0.989c-0.661,0-0.99-0.328-0.99-0.983v-42.566c0-0.683,0.328-1.023,0.983-1.023h6.099c5.743,0,10.189,1.286,13.336,3.859C23.801,149.524,25.493,153.646,25.493,159.133z M18.254,159.196c0-4.354-0.784-7.382-2.353-9.088c-1.673-1.809-4.692-2.713-9.056-2.713v23.328h0.235C14.529,170.724,18.254,166.882,18.254,159.196z"/><path style="fill:#413F40;" d="M39.938,135.238c0,0.655-0.328,0.983-0.983,0.983h-4.76c-0.655,0-0.983-0.328-0.983-0.983v-6.807c0-0.656,0.328-0.982,0.983-0.982h4.76c0.655,0,0.983,0.326,0.983,0.982V135.238z M39.938,174.619c0,0.681-0.323,1.022-0.972,1.022h-4.782c-0.649,0-0.973-0.342-0.973-1.022v-30.647c0-0.683,0.324-1.023,0.973-1.023h4.782c0.648,0,0.972,0.341,0.972,1.023V174.619z"/><path style="fill:#413F40;" d="M74.645,159.133c0,5.435-1.818,9.567-5.457,12.402c-3.271,2.547-7.668,3.82-13.189,3.82v11.144c0,0.655-0.33,0.983-0.989,0.983h-4.867c-0.66,0-0.989-0.328-0.989-0.983v-42.566c0-0.683,0.328-1.023,0.983-1.023h6.099c5.742,0,10.188,1.286,13.335,3.859C72.954,149.524,74.645,153.646,74.645,159.133z M67.406,159.196c0-4.354-0.784-7.382-2.353-9.088c-1.673-1.809-4.69-2.713-9.055-2.713v23.328h0.235C63.68,170.724,67.406,166.882,67.406,159.196z"/><path style="fill:#413F40;" d="M109.021,158.213c0,1.364-0.327,2.045-0.981,2.045H88.762v1.771c0,2.545,0.719,4.644,2.158,6.296c1.568,1.81,3.727,2.714,6.475,2.714h6.553c0.681,0,1.021,0.329,1.021,0.984v2.557c0,0.655-0.342,0.983-1.022,0.983h-6.216c-4.643,0-8.432-1.312-11.368-3.934c-3.043-2.754-4.525-6.426-4.446-11.016v-3.895c0.079-4.592,1.446-8.157,4.104-10.703c2.498-2.438,5.852-3.657,10.06-3.657c3.866,0,6.99,1.279,9.371,3.835c2.38,2.559,3.57,5.934,3.57,10.132V158.213zM102.452,155.971v-1.219c0-2.493-0.566-4.511-1.696-6.06c-1.21-1.625-2.881-2.439-5.011-2.439c-2.157,0-3.861,0.781-5.108,2.342c-1.25,1.561-1.874,3.613-1.874,6.157v1.219H102.452z"/><path style="fill:#413F40;" d="M123.839,135.238c0,0.655-0.328,0.983-0.983,0.983h-4.76c-0.656,0-0.983-0.328-0.983-0.983v-6.807c0-0.656,0.327-0.982,0.983-0.982h4.76c0.655,0,0.983,0.326,0.983,0.982V135.238z M123.839,174.619c0,0.681-0.324,1.022-0.972,1.022h-4.782c-0.648,0-0.973-0.342-0.973-1.022v-30.647c0-0.683,0.324-1.023,0.973-1.023h4.782c0.647,0,0.972,0.341,0.972,1.023V174.619z"/><path style="fill:#413F40;" d="M164.643,171.825l-0.238,2.754c-0.053,0.655-0.422,0.957-1.105,0.904c-3.266-0.288-5.518-1.323-6.754-3.107c-1.055-1.6-1.58-4.289-1.58-8.064v-5.272c0-4.223-0.406-7.186-1.217-8.891c-0.941-1.992-2.654-2.99-5.137-2.99c-2.511,0-4.249,0.998-5.216,2.99c-0.863,1.758-1.295,4.722-1.295,8.891V174.5c0,0.655-0.328,0.983-0.984,0.983h-4.838c-0.684,0-1.023-0.328-1.023-0.983v-15.461c0-3.672-0.301-6.308-0.904-7.907c-0.525-1.363-1.481-2.321-2.872-2.872c-0.604-0.262-0.852-0.63-0.746-1.102l0.668-2.636c0.184-0.655,0.59-0.905,1.219-0.747c3.147,0.812,5.233,2.387,6.255,4.721c2.1-3.803,5.586-5.705,10.464-5.705c4.406,0,7.607,1.259,9.6,3.776c1.914,2.414,2.871,6.256,2.871,11.528v7.828c0,1.941,0.158,3.253,0.473,3.936c0.236,0.471,0.695,0.805,1.377,1.002S164.668,171.38,164.643,171.825z"/><path style="fill:#413F40;" d="M199.99,171.581l-0.236,2.72c-0.053,0.659-0.408,0.96-1.063,0.908c-3.254-0.263-5.482-1.284-6.689-3.069c-2.07,2.309-5.035,3.462-8.891,3.462c-4.406,0-7.604-1.259-9.597-3.776c-1.916-2.413-2.873-6.255-2.873-11.527v-16.483c0-0.655,0.328-0.984,0.988-0.984h4.866c0.658,0,0.988,0.329,0.988,0.984v15.54c0,4.223,0.406,7.187,1.217,8.891c0.941,1.994,2.654,2.99,5.139,2.99c2.51,0,4.248-1,5.217-2.998c0.861-1.761,1.293-4.733,1.293-8.917v-15.463c0-0.685,0.342-1.027,1.023-1.027h4.801c0.68,0,1.021,0.343,1.021,1.025v21.771c0,1.971,0.158,3.3,0.473,3.983c0.236,0.472,0.695,0.809,1.377,1.004C199.726,170.811,200.041,171.134,199.99,171.581z"/><path style="fill:#413F40;" d="M119.575,189.617c-1.627,0-2.462-0.56-2.462-2.188v-6.427h1.142V183h6.51v1.036h-6.51v3.214c0,0.994,0.465,1.332,1.531,1.332h5.18v1.047L119.575,189.617z M123.96,182.62c-0.57,0-1.045-0.475-1.045-1.047c0-0.592,0.475-1.067,1.045-1.067c0.582,0,1.058,0.476,1.058,1.067C125.018,182.146,124.542,182.62,123.96,182.62z M123.96,181.003c-0.306,0-0.549,0.264-0.549,0.57c0,0.319,0.243,0.551,0.549,0.551c0.318,0,0.572-0.231,0.572-0.551C124.533,181.267,124.279,181.003,123.96,181.003z"/><path style="fill:#413F40;" d="M145.921,184.808c-0.973-1.796-1.248-1.976-2.209-1.976h-0.35l-1.203,2.652c-0.393,0.835-0.943,1.459-1.777,1.691v-1.142c0.402-0.254,0.688-0.782,0.91-1.3l1.33-2.991h0.857c1.543,0,2.219,0.149,3.383,2.367c1.056,1.966,1.995,3.53,3.149,4.187v1.236C148.383,188.931,147.21,187.176,145.921,184.808z M147.792,183.138c-0.601,0-1.087-0.485-1.087-1.088c0-0.592,0.486-1.1,1.087-1.1c0.604,0,1.088,0.508,1.088,1.1C148.879,182.652,148.395,183.138,147.792,183.138z M147.792,181.479c-0.315,0-0.581,0.254-0.581,0.571c0,0.327,0.266,0.582,0.581,0.582c0.316,0,0.57-0.255,0.57-0.582C148.362,181.732,148.108,181.479,147.792,181.479z"/><path style="fill:#413F40;" d="M170.639,184.248v5.751h-1.174v-5.011c-1.32,0.697-2.854,1.162-4.482,1.469v-1.077c3.881-0.804,6.018-2.432,7.127-4.419h1.311C172.745,182.355,171.792,183.424,170.639,184.248z"/><path style="fill:#413F40;" d="M194.966,186.901c-1.268,1.47-3.096,2.357-5.305,2.822v-1.067c1.85-0.455,3.266-1.142,4.375-2.367c-0.898-0.551-1.838-1.037-2.844-1.448v-1.121c1.279,0.518,2.326,1.057,3.469,1.743c0.623-0.973,0.98-2.146,1.174-3.139h-5.719V181.3h7.049c-0.242,1.691-0.633,3.265-1.576,4.734c0.932,0.613,1.734,1.236,2.516,1.913v1.448C197.091,188.498,196.16,187.726,194.966,186.901z"/><polygon style="fill:#EE7800;" points="0,24.923 3.075,30.858 8.601,23.347"/><polygon style="fill:#EE7800;" points="92.633,110.355 94.831,115.748 97.231,114.344 99.024,116.939 103.211,109.163 99.827,99.575 93.838,94.592 86.652,101.768"/><polygon style="fill:#EE7800;" points="192.242,52.47 198.412,47.297 197.501,37.817 190.623,33.72 187.13,34.847 188.429,36.718 192.115,38.788 193.41,44.298 186.894,47.733 176.462,48.455 183.054,54.575"/><polygon style="fill:#EE7800;" points="147.513,95.582 142.357,108.065 136.812,109.02 133.972,113.349 147.31,113.545 165.081,99.98 160.686,84.612 145.718,90.521"/><polygon style="fill:#FFE9A9;" points="3.075,30.858 8.601,41.462 21.598,42.105 8.601,23.347"/><polygon style="fill:#FFE9A9;" points="42.15,0 34.064,24.458 33.573,42.899 33.901,47.573 40.555,50.882 45.479,50.116 47.93,48.692 57.395,30.858"/><polygon style="fill:#FFE9A9;" points="97.985,38.544 77.273,30.833 78.394,54.835"/><polygon style="fill:#FFE9A9;" points="176.462,48.455 97.985,38.544 132.202,61.906"/><polygon style="fill:#FFE9A9;" points="199.804,86.202 170.264,91.997 186.027,97.583 188.025,107.364 182.441,112.552 179.048,113.741 180.232,117.145 195,116.745 199.996,96.788"/><polygon style="fill:#FFE9A9;" points="70.488,108.358 66.496,112.75 62.104,115.351 59.719,119.13 68.3,120.132 80.863,118.738 81.861,112.348 86.652,101.768 93.838,94.592 93.838,88.805 71.482,96.984"/><polygon style="fill:#FABE00;" points="77.273,30.833 57.395,30.858 47.93,48.692 78.394,54.835"/><polygon style="fill:#FABE00;" points="132.202,61.906 97.985,38.544 78.394,54.835"/><polygon style="fill:#FABE00;" points="70.683,83.818 71.482,96.984 93.838,88.805 78.394,54.835"/><polygon style="fill:#FABE00;" points="189.226,78.432 183.054,54.575 170.264,91.997 199.804,86.202"/><polygon style="fill:#FABE00;" points="26.3,4.883 15.968,20.28 8.601,23.347 21.598,42.105 34.064,24.458"/><polygon style="fill:#C14D97;" points="112.833,81.585 145.718,90.521 160.686,84.612 132.202,61.906"/><polygon style="fill:#C14D97;" points="93.838,88.805 112.833,81.585 78.394,54.835"/><polygon style="fill:#C14D97;" points="77.273,30.833 65.894,17.962 55.286,3.945 42.15,0 57.395,30.858"/><polygon style="fill:#C14D97;" points="21.598,42.105 26.382,44.924 30.976,42.899 33.573,42.899 34.064,24.458"/><polygon style="fill:#C14D97;" points="42.15,0 26.3,4.883 34.064,24.458"/><polygon style="fill:#61C1BE;" points="176.462,48.455 132.202,61.906 160.686,84.612 170.264,91.997 183.054,54.575"/><polygon style="fill:#61C1BE;" points="78.394,54.835 112.833,81.585 132.202,61.906"/><polygon style="fill:#61C1BE;" points="47.93,48.692 58.92,65.452 64.076,77.662 70.683,83.818 78.394,54.835"/></symbol>

<symbol id="home" viewBox="0 0 200 200"><path id="home" d="M83.815,145.893h32.369v-37.918H83.815V145.893z M99.987,18.724L0,116.205h30.456v65.07H169.52v-65.07H200L99.987,18.724z M148.945,97.162v65.07H51.042v-65.07h-0.508l49.453-48.223l49.466,48.223H148.945z"/></symbol>

<symbol id="cat" viewBox="0 0 200 200"><path d="M38.633,42.044c0,10.67-8.646,19.316-19.323,19.316C8.659,61.361,0,52.715,0,42.044C0,31.38,8.659,22.728,19.31,22.728C29.987,22.728,38.633,31.38,38.633,42.044z M19.31,80.684C8.659,80.684,0,89.33,0,100s8.659,19.316,19.31,19.316c10.678,0,19.323-8.646,19.323-19.316S29.987,80.684,19.31,80.684z M19.31,138.639C8.66,138.639,0,147.285,0,157.955c0,10.664,8.659,19.316,19.31,19.316c10.678,0,19.323-8.652,19.323-19.316C38.633,147.285,29.987,138.639,19.31,138.639z M200,22.728v38.633H69.558c-9.662,0-17.565-7.897-17.565-17.559v-3.516c0-9.655,7.903-17.559,17.565-17.559L200,22.728L200,22.728z M189.453,33.262H69.558c-3.803,0-7.019,3.223-7.019,7.025v3.516c0,3.809,3.216,7.024,7.019,7.024h119.896L189.453,33.262L189.453,33.262z M200,80.684v38.632H69.558c-9.662,0-17.565-7.903-17.565-17.559v-3.516c0-9.655,7.903-17.559,17.565-17.559L200,80.684L200,80.684z M69.558,91.217c-3.803,0-7.019,3.216-7.019,7.025v3.516c0,3.809,3.216,7.025,7.019,7.025h119.896V91.217H69.558z M200,138.639v38.633H69.558c-9.662,0-17.565-7.902-17.565-17.559v-3.516c0-9.661,7.903-17.559,17.565-17.559H200L200,138.639z M69.558,149.173c-3.803,0-7.019,3.216-7.019,7.024v3.516c0,3.803,3.216,7.025,7.019,7.025h119.896v-17.565H69.558z"/></symbol>

<symbol id="dogs" viewBox="0 0 200 200"><path d="M200,81.246c0,17.707-9.744,32.063-21.766,32.063c-12.02,0-21.764-14.354-21.764-32.063c0-17.706,9.744-32.061,21.764-32.061C190.256,49.185,200,63.54,200,81.246z M133.141,0c-12.02,0-21.764,14.355-21.764,32.062s9.744,32.061,21.764,32.061c12.021,0,21.764-14.354,21.764-32.061S145.161,0,133.141,0z M0,81.246c0,17.707,9.743,32.063,21.763,32.063s21.764-14.354,21.764-32.063c0-17.706-9.744-32.061-21.764-32.061S0,63.54,0,81.246z M45.095,32.062c0,17.707,9.744,32.061,21.764,32.061s21.764-14.354,21.764-32.061S78.878,0,66.858,0S45.095,14.355,45.095,32.062z M99.612,96.462c-4.328,0-9.47,4.071-13.754,10.892l-33.607,53.489c-4.68,7.449-5.107,12.606-4.278,14.108c0.83,1.501,5.425,3.883,14.222,3.883h74.834c8.798,0,13.393-2.382,14.223-3.883c0.829-1.502,0.4-6.659-4.279-14.108l-33.605-53.489C109.08,100.533,103.939,96.462,99.612,96.462 M99.612,75.295c11.482,0,22.965,6.932,31.676,20.797l33.606,53.49c17.422,27.73,4.883,50.418-27.867,50.418H62.194c-32.748,0-45.288-22.688-27.865-50.417l33.605-53.49C76.646,82.228,88.129,75.295,99.612,75.295L99.612,75.295z"/></symbol>

<symbol id="pipeinu" viewBox="0 0 200 200"><path d="M199.939,92.699c-0.26-1.516-1.307-2.78-2.748-3.316L157.748,74.7l-21.391-24.21L115.73,23.247c-0.554-0.729-1.32-1.264-2.196-1.526l-25.658-7.709c-0.02-0.006-0.039-0.004-0.058-0.009c-0.026-0.008-0.052-0.018-0.078-0.024c-0.021-0.006-0.043-0.014-0.064-0.021c-0.311-0.075-0.632-0.11-0.96-0.116c-0.043-0.001-0.085-0.007-0.128-0.006c-0.038,0-0.075,0.002-0.114,0.004c-0.046,0.002-0.092-0.004-0.139-0.001c-0.138,0.009-0.26,0.064-0.393,0.088c-0.064,0.01-0.127,0.018-0.191,0.031c-0.119,0.024-0.244,0.022-0.361,0.058c-0.008,0.003-0.017,0.002-0.024,0.004l-30.952,9.541c-0.134,0.041-0.255,0.109-0.382,0.162c-0.089,0.037-0.177,0.069-0.263,0.112c-0.304,0.15-0.59,0.327-0.848,0.542c-0.013,0.012-0.026,0.018-0.039,0.028c-0.269,0.229-0.5,0.499-0.706,0.79c-0.021,0.03-0.052,0.051-0.073,0.082L32.641,54.271l-12.76,5.316L3.534,62.581c-1.344,0.246-2.493,1.116-3.094,2.344c-0.603,1.228-0.587,2.668,0.043,3.882l6.005,11.59c0.001,0.002,0.002,0.003,0.003,0.004c0.001,0.002,0.001,0.005,0.002,0.006l10.795,20.709c0.708,1.356,2.081,2.237,3.61,2.313l24.324,1.207l8.43,4.967c0.673,0.396,1.429,0.596,2.188,0.596c0.591,0,1.184-0.121,1.738-0.367l8.142-3.586h0.144l0.358,5.119c0.106,1.525,1.013,2.881,2.382,3.561l12.994,6.461c0.599,0.297,1.256,0.449,1.919,0.449c0.221,0,0.442-0.018,0.662-0.051l9.619-1.496c0.529-0.081,1.039-0.264,1.503-0.53l1.262-0.731l19.001,28.994l9.926,23.484c0.234,0.559,0.586,1.061,1.029,1.475l12.903,12.027c0.81,0.754,1.864,1.158,2.94,1.158c0.396,0,0.799-0.055,1.191-0.168c1.457-0.42,2.584-1.571,2.975-3.035l14.717-55.281l37.197-30.94C199.628,95.755,200.197,94.216,199.939,92.699z M104.448,110.159l14.554-27.438l32.114-0.041l1.749,37.243l-21.783-4.394L104.448,110.159z M129.581,55.826c0.065,0.087,0.135,0.17,0.208,0.252l15.889,17.986l-26.592,0.033L98.462,32.346l-3.567-7.221l14.81,4.45L129.581,55.826z M70.479,53.291l-4.79-12.078l-4.277-10.785l18.508-5.704L70.479,53.291z M37.155,61.731c0.781-0.325,1.45-0.874,1.922-1.576l15.618-23.267l1.412,3.558l9.87,24.89L51.648,85.617l-5.116,7.243L27.694,65.673L37.155,61.731z M23.794,94.938l-8.41-16.134l5.622-7.641l16.961,24.479L23.794,94.938z M63.075,97.987l-6.95,3.061l-3.402-2.003l13.435-19.016L65.854,91.41l-0.166,6.21h-0.874C64.215,97.62,63.622,97.745,63.075,97.987z M84.21,113.051l-9.557-4.75l-0.451-6.461l0.939-35.173l12.287-37.184l14.427,29.21l9.707,19.65l-16.863,31.79l-3.026,1.76L84.21,113.051z M140.047,173.796l-6.972-6.497l-9.718-22.994c-0.102-0.24-0.224-0.47-0.365-0.685l-15.799-24.108l39.438,7.951l5.456,1.1L140.047,173.796z M161.334,116.391l-1.488-31.708l27.361,10.187L161.334,116.391z"/></symbol>

<symbol id="mail" viewBox="0 0 200 200"><path d="M177.604,143.197l-11.926,5.566l-28.086-60.235l-37.578,18.802L62.383,88.529l-28.086,60.208l-11.953-5.539L50.6,82.643L0,57.357v102.668h200V57.331l-50.6,25.313L177.604,143.197z M0,39.974v2.663l100.014,49.98L200,42.637v-2.663H0z"/></symbol>

<symbol id="fb2" viewBox="0 0 200 200"><path d="M100.007,0.006C44.866,0.006,0,44.867,0,100c0,55.141,44.866,99.994,100.007,99.994c4.777,0,9.466-0.358,14.062-1.01v-67.657H91.218v-28.384h22.851V88.666c0-20.467,15.377-37.126,34.27-37.126h22.85v28.292h-22.85c-2.695,0-5.717,3.665-5.717,8.567v14.542h28.566v28.385H142.62v59.109C176.512,174.402,200,139.906,200,100C200,44.867,155.146,0.006,100.007,0.006z"/></symbol>

<symbol id="tw2" viewBox="0 0 200 200"><path d="M100.007,0.006C44.866,0.006,0,44.867,0,100c0,32.303,15.415,61.057,39.255,79.35c11.966-1.093,22.929-5.638,31.887-12.648c-13.216-0.247-24.361-8.971-28.201-20.962c1.848,0.352,3.736,0.54,5.676,0.54c2.761,0,5.43-0.364,7.955-1.055c-13.801-2.772-24.203-14.973-24.203-29.588c0-0.13,0-0.26,0-0.384c4.063,2.259,8.723,3.62,13.67,3.776c-8.098-5.418-13.424-14.647-13.424-25.122c0-5.534,1.484-10.715,4.076-15.168C51.586,97,73.824,109.01,98.9,110.268c-0.521-2.207-0.781-4.512-0.781-6.875c0-16.667,13.516-30.175,30.181-30.175c8.685,0,16.522,3.659,22.03,9.524c6.874-1.354,13.332-3.867,19.165-7.324c-2.253,7.05-7.044,12.961-13.267,16.698c6.092-0.729,11.912-2.356,17.328-4.752c-4.05,6.054-9.166,11.366-15.063,15.617c0.065,1.303,0.091,2.599,0.091,3.906c0,39.887-30.361,85.867-85.867,85.867c-4.113,0-8.162-0.306-12.121-0.865c12.096,5.207,25.428,8.104,39.412,8.104C155.146,199.994,200,155.141,200,100C200,44.867,155.146,0.006,100.007,0.006z"/></symbol>

<symbol id="gplus2" viewBox="0 0 200 200"><path d="M56.312,82.176c0,3.652-0.416,10.143-5.064,14.816c-3.256,3.236-8.736,5.684-13.814,5.684c-17.447,0-25.35-22.525-25.35-36.118c0-5.273,1.002-10.754,4.465-15.019c3.242-4.056,8.92-6.692,14.192-6.692C47.588,44.847,56.312,67.567,56.312,82.176z M67.47,162.313c0-10.344-6.692-15.813-22.121-26.769c-1.615-0.208-2.643-0.208-4.661-0.208c-1.823,0-12.786,0.403-21.313,3.249c-2.031,0.735-5.859,2.174-9.414,4.882c7.942,16.393,20.246,30.278,35.375,40.199C59.827,181.505,67.47,173.12,67.47,162.313z M6.562,135.564c11.38-4.623,24.335-5.41,31.887-5.918c-2.838-3.646-6.08-7.5-6.08-13.781c0-3.457,1.016-5.481,2.031-7.916c-2.24,0.195-4.467,0.404-6.498,0.404c-12.732,0-22.16-5.646-27.758-13.516C0.052,96.55,0,98.269,0,100C0,112.525,2.343,124.503,6.562,135.564z M200,100c0,55.141-44.854,99.994-99.993,99.994c-16.797,0-32.641-4.18-46.547-11.529c18.123-6.73,27.59-20.428,27.59-34.054c0-13.997-8.1-20.904-17.031-28.41l-7.303-5.683c-2.227-1.823-5.273-4.258-5.273-8.725c0-4.459,3.047-7.304,5.676-9.941c8.516-6.691,17.043-13.793,17.043-28.806c0-15.422-9.738-23.534-14.399-27.388H72.34l12.98-7.304H43.526c-7.656,0-16.691,0.8-25.39,4.524c18.11-25.773,48.044-42.673,81.87-42.673C155.146,0.006,200,44.867,200,100z M155.211,64.475h-26.313v-26.32h-8.672v26.32H93.913v8.665h26.313v26.313h8.672V73.14h26.313V64.475z"/></symbol>

<symbol id="rss" viewBox="0 0 200 200"><path d="M188.835,117.707C188.835,57.94,140.234,9.3,80.533,9.3V0.158C34.625,9.589,0,50.309,0,98.962c0,55.628,45.265,100.88,100.893,100.88c49.219,0,90.293-35.439,99.107-82.136L188.835,117.707L188.835,117.707z M93.131,117.602c-6.976,0-12.637-5.621-12.637-12.597c0-6.935,5.661-12.61,12.637-12.61c7,0,12.662,5.675,12.662,12.61C105.793,111.979,100.131,117.602,93.131,117.602z M124.904,117.707c0-11.889-4.623-23.079-13.004-31.459c-8.394-8.394-19.531-13.03-31.394-13.03V55.024c34.545,0,62.668,28.11,62.668,62.682L124.904,117.707L124.904,117.707z M157.191,117.707c0-42.309-34.401-76.737-76.658-76.737V22.764c52.332,0,94.916,42.611,94.916,94.943H157.191z"/></symbol>

<symbol id="like" viewBox="0 0 200 200"><path d="M89.262,90.501l47.306-65.583h22.574l-18.274,49.456H200l-14.848,91.387h-95.89V90.501z M0,175.082h71.656v-85.3H0V175.082z"/></symbol>

<symbol id="fb1" viewBox="0 0 200 200"><path d="M123.807,38.107h31.75V0h-31.75C97.554,0,76.188,22.439,76.188,50v19.228H44.444v38.227h31.744V200h39.687v-92.546h39.682V69.228h-39.682V49.631C115.875,43.034,120.063,38.107,123.807,38.107z"/></symbol>

<symbol id="tw1" viewBox="0 0 200 200"><path d="M200,40.294c-7.354,3.142-15.27,5.265-23.564,6.225c8.467-4.892,14.972-12.636,18.045-21.858c-7.932,4.526-16.713,7.813-26.062,9.587c-7.481-7.676-18.147-12.474-29.951-12.474c-22.659,0-41.032,17.688-41.032,39.495c0,3.1,0.36,6.114,1.062,9.001c-34.104-1.639-64.339-17.366-84.574-41.262c-3.533,5.825-5.555,12.619-5.555,19.854c0,13.706,7.244,25.79,18.254,32.872c-6.726-0.204-13.057-1.979-18.584-4.942c-0.005,0.17-0.005,0.331-0.005,0.501c0,19.141,14.144,35.098,32.915,38.73c-3.444,0.899-7.07,1.377-10.811,1.377c-2.646,0-5.215-0.248-7.719-0.705c5.218,15.691,20.371,27.113,38.327,27.429c-14.041,10.599-31.733,16.907-50.96,16.907c-3.311,0-6.576-0.188-9.786-0.553c18.155,11.209,39.725,17.748,62.899,17.748c75.467,0,116.746-60.183,116.746-112.381c0-1.707-0.043-3.414-0.119-5.104C187.543,55.172,194.497,48.217,200,40.294z"/></symbol>

<symbol id="line" viewBox="0 0 200 200"><path d="M200,85.865c0-44.743-44.857-81.148-99.999-81.148C44.865,4.717,0,41.122,0,85.865c0,40.111,35.578,73.719,83.631,80.07c3.255,0.696,7.688,2.154,8.812,4.935c1.011,2.522,0.661,6.479,0.324,9.034c0,0-1.171,7.06-1.426,8.568c-0.438,2.523-2.012,9.883,8.66,5.385c10.673-4.494,57.587-33.912,78.565-58.063h-0.006C193.059,119.908,200,103.775,200,85.865z M60.854,112.486H40.986c-2.887,0-5.238-2.35-5.238-5.247V67.504c0-2.888,2.352-5.245,5.238-5.245c2.894,0,5.241,2.357,5.241,5.245v34.494h14.627c2.896,0,5.241,2.354,5.241,5.241C66.096,110.139,63.751,112.486,60.854,112.486z M81.405,107.239c0,2.897-2.352,5.247-5.241,5.247c-2.891,0-5.238-2.35-5.238-5.247V67.504c0-2.888,2.348-5.245,5.238-5.245s5.241,2.357,5.241,5.245V107.239z M129.238,107.239c0,2.268-1.438,4.267-3.586,4.979c-0.539,0.181-1.104,0.269-1.666,0.269c-1.637,0-3.201-0.779-4.188-2.1L99.432,82.662v24.577c0,2.897-2.349,5.247-5.242,5.247c-2.89,0-5.245-2.35-5.245-5.247V67.504c0-2.258,1.445-4.255,3.59-4.975c0.538-0.178,1.099-0.271,1.662-0.271c1.634,0,3.205,0.784,4.187,2.103l20.366,27.735V67.504c0-2.888,2.354-5.245,5.244-5.245c2.895,0,5.244,2.357,5.244,5.245V107.239L129.238,107.239z M161.389,82.133c2.893,0,5.243,2.349,5.243,5.245c0,2.887-2.353,5.241-5.243,5.241h-14.623v9.379h14.623c2.887,0,5.243,2.354,5.243,5.241c0,2.897-2.356,5.247-5.243,5.247h-19.871c-2.889,0-5.242-2.35-5.242-5.247V87.391c0-0.007,0-0.007,0-0.013c0,0,0-0.01,0-0.013V67.527c0-0.013,0-0.018,0-0.023c0-2.888,2.352-5.245,5.242-5.245h19.871c2.893,0,5.243,2.357,5.243,5.245c0,2.895-2.353,5.248-5.243,5.248h-14.623v9.381H161.389z"/></symbol>

<symbol id="gplus1" viewBox="0 0 200 200"><path d="M169.234,40.625V9.979h-10.118v30.647h-30.761v10.095h30.761v30.647h10.118V50.721h30.771V40.625H169.234z M118.314,9.979H69.475c-12.806,0-28.923,1.885-42.441,12.992c-10.198,8.742-15.18,20.791-15.18,31.663c0,18.422,14.222,37.094,39.365,37.094c2.363,0,4.981-0.238,7.59-0.469c-1.192,2.838-2.374,5.191-2.374,9.217c0,7.32,3.79,11.805,7.111,16.053c-10.667,0.714-30.594,1.896-45.285,10.873c-13.987,8.272-18.266,20.326-18.266,28.834c0,17.484,16.605,33.787,50.979,33.787c40.781,0,62.358-22.445,62.358-44.648c0-16.313-9.465-24.342-19.917-33.094l-8.537-6.613c-2.598-2.125-6.153-4.957-6.153-10.164c0-5.191,3.556-8.498,6.642-11.574c9.944-7.795,19.906-16.064,19.906-33.554c0-17.954-11.379-27.404-16.83-31.893h14.701L118.314,9.979z M97.45,154.574c0,14.652-12.083,25.523-34.852,25.523c-25.367,0-41.739-12.054-41.739-28.824c0-16.782,15.18-22.447,20.396-24.332c9.964-3.322,22.76-3.791,24.899-3.791c2.373,0,3.564,0,5.46,0.244C89.626,136.152,97.45,142.531,97.45,154.574z M78.491,78.496c-3.8,3.775-10.208,6.617-16.137,6.617c-20.387,0-29.637-26.231-29.637-42.06c0-6.145,1.182-12.528,5.217-17.485c3.799-4.728,10.432-7.8,16.605-7.8c19.683,0,29.87,26.461,29.87,43.478C84.41,65.5,83.932,73.055,78.491,78.496z"/></symbol>

<symbol id="search" viewBox="0 0 200 200"><path d="M77.695,39.31c21.185,0,38.424,17.24,38.424,38.425S98.88,116.16,77.695,116.16c-21.198,0-38.438-17.24-38.438-38.425S56.497,39.31,77.695,39.31 M77.695,25.026c-29.115,0-52.722,23.606-52.722,52.708c0,29.127,23.606,52.708,52.722,52.708c29.114,0,52.708-23.58,52.708-52.708C130.402,48.633,106.811,25.026,77.695,25.026L77.695,25.026z M169.947,199.948l-3.932-0.248l-52.892-52.903c-10.978,5.664-23.112,8.62-35.43,8.62C34.844,155.417,0,120.573,0,77.734C0,34.895,34.844,0.052,77.695,0.052c42.838,0,77.696,34.844,77.696,77.683c0,12.331-2.97,24.453-8.621,35.417L200,166.38l-0.092,3.086c-0.039,1.304-0.639,13.086-9.531,21.979C182.695,199.128,173.527,199.948,169.947,199.948z M115.416,128.895l56.615,56.602c2.174-0.352,5.43-1.342,8.255-4.167c3.021-3.021,4.349-6.94,4.922-9.544l-56.341-56.342l2.93-4.791c6.08-9.961,9.311-21.328,9.311-32.917c0-34.961-28.45-63.398-63.412-63.398c-34.975,0-63.412,28.438-63.412,63.398c0,34.96,28.438,63.398,63.412,63.398c11.563,0,22.955-3.216,32.93-9.31L115.416,128.895z"/></symbol>

<symbol id="date" viewBox="0 0 200 200"><path d="M54.544,36.367H0V0h54.544V36.367z M127.266,0H72.722v36.367h54.543V0z M200,0h-54.544v36.367H200V0z M54.544,54.544H0v36.367h54.544V54.544z M127.266,54.544H72.722v36.367h54.543V54.544z M200,54.544h-54.544v36.367H200V54.544z M54.544,109.096H0v36.36h54.544V109.096z M127.266,109.096H72.722v36.36h54.543V109.096z M200,109.096h-54.544v36.36H200V109.096z M54.544,163.641H0V200h54.544V163.641z M127.266,163.641H72.722V200h54.543V163.641z M200,163.641h-54.544V200H200V163.641z"/></symbol>

<symbol id="write" viewBox="0 0 200 200"><path d="M84.323,168.425l-3.945,1.484l-44.023,16.602l-22.773-22.253l18.021-48.566L84.323,168.425z M22.617,162.292c1.81,1.783,13.711,13.411,15.481,15.144c2.357-0.886,26.68-10.053,32.123-12.097c-4.258-4.258-31.25-31.264-35.521-35.534C32.656,135.273,23.516,159.883,22.617,162.292z M11.472,171.367L0,199.961l28.581-11.328L11.472,171.367z M71.966,145.078l-17.018-17.018L163.477,19.506l17.031,17.031L71.966,145.078z M91.445,164.559l-12.656-12.656L187.344,43.359L200,56.016L91.445,164.559z M156.667,12.695L48.112,121.236l-12.656-12.655L144.012,0.039L156.667,12.695z"/></symbol>

<symbol id="tag" viewBox="0 0 200 200"><path d="M187.479,16.524l-5.025,68.204l-106.576,98.86l-63.359-68.326l106.576-98.849L187.479,16.524 M187.96,4.012c-0.155-0.007-0.313-0.007-0.456-0.007l-68.398-0.104c-3.164,0-6.211,1.185-8.527,3.34L4.015,106.082c-5.078,4.701-5.378,12.631-0.678,17.695l63.359,68.32c2.266,2.428,5.404,3.881,8.711,3.99c3.32,0.13,6.55-1.063,8.984-3.327l106.576-98.854c2.317-2.155,3.737-5.104,3.958-8.256l5.039-68.21c0.261-3.47-0.938-6.895-3.307-9.434C194.393,5.567,191.268,4.136,187.96,4.012L187.96,4.012z M160.968,41.108c-7.956-8.581-21.405-9.082-29.987-1.12c-8.58,7.982-9.102,21.4-1.133,29.98c7.981,8.613,21.406,9.121,29.987,1.14C168.441,63.14,168.938,49.695,160.968,41.108z"/></symbol>

<symbol id="top" viewBox="0 0 200 200"><path d="M99.995,47.944c3.223,0,6.465,1.152,9.043,3.438l86.423,76.96c5.586,4.99,6.094,13.564,1.094,19.17c-4.979,5.596-13.555,6.094-19.158,1.104l-77.4-68.914l-77.38,68.914c-5.605,4.989-14.199,4.491-19.18-1.104c-4.98-5.604-4.492-14.18,1.113-19.17l86.423-76.96C93.55,49.097,96.772,47.944,99.995,47.944z"/></symbol>

<symbol id="right" viewBox="0 0 200 200"><path d="M152.055,99.997c0,3.224-1.152,6.455-3.438,9.032l-76.952,86.426c-5,5.596-13.574,6.094-19.18,1.104c-5.586-4.979-6.094-13.563-1.094-19.16l68.905-77.4L51.391,22.606c-5-5.605-4.492-14.189,1.094-19.17c5.605-4.98,14.18-4.492,19.18,1.113l76.952,86.425C150.902,93.543,152.055,96.775,152.055,99.997z"/></symbol>

<symbol id="bottom" viewBox="0 0 200 200"><path d="M100.005,152.057c-3.223,0-6.465-1.152-9.043-3.438L4.539,71.657c-5.586-4.989-6.094-13.563-1.094-19.169c4.98-5.596,13.555-6.094,19.16-1.104l77.399,68.914l77.381-68.914c5.604-4.99,14.198-4.492,19.18,1.104c4.979,5.605,4.492,14.18-1.113,19.169l-86.424,76.961C106.45,150.902,103.229,152.057,100.005,152.057z"/></symbol>

<symbol id="left" viewBox="0 0 200 200"><path d="M47.941,100.002c0-3.223,1.152-6.454,3.438-9.032l76.973-86.425c4.979-5.596,13.553-6.094,19.158-1.104c5.605,4.98,6.094,13.564,1.113,19.16l-68.925,77.4l68.925,77.392c4.98,5.605,4.492,14.189-1.113,19.17c-5.605,4.981-14.18,4.492-19.158-1.112l-76.973-86.425C49.094,106.457,47.941,103.225,47.941,100.002z"/></symbol>

<symbol id="w-right" viewBox="0 0 200 200"><path d="M113.721,99.997c0,3.224-1.152,6.455-3.438,9.032L33.33,195.455c-5,5.596-13.574,6.094-19.18,1.104c-5.586-4.979-6.094-13.563-1.094-19.16l68.906-77.4L13.057,22.606c-5-5.605-4.492-14.189,1.094-19.17c5.605-4.98,14.18-4.492,19.18,1.113l76.952,86.425C112.568,93.543,113.721,96.775,113.721,99.997z M186.951,90.975L110,4.55c-5-5.605-13.574-6.094-19.181-1.113c-5.586,4.98-6.094,13.564-1.094,19.17l68.905,77.391l-68.905,77.4c-5,5.597-4.492,14.181,1.094,19.16c5.606,4.99,14.181,4.492,19.181-1.104l76.951-86.426c2.285-2.577,3.438-5.811,3.438-9.032C190.389,96.775,189.236,93.543,186.951,90.975z"/></symbol>

<symbol id="menu" viewBox="0 0 200 200"><path d="M50,69.427c0-4.792,3.921-8.713,8.713-8.713h82.574c4.792,0,8.713,3.921,8.713,8.713v4.003c0,4.792-3.921,8.713-8.713,8.713H58.713c-4.792,0-8.713-3.921-8.713-8.713V69.427z M50,97.998c0-4.791,3.921-8.712,8.713-8.712h82.574c4.792,0,8.713,3.921,8.713,8.712v4.004c0,4.791-3.921,8.712-8.713,8.712H58.713c-4.792,0-8.713-3.921-8.713-8.712V97.998z M50,126.568c0-4.791,3.921-8.713,8.713-8.713h82.574c4.792,0,8.713,3.922,8.713,8.713v4.005c0,4.792-3.921,8.713-8.713,8.713H58.713c-4.792,0-8.713-3.921-8.713-8.713V126.568z M100,15c46.869,0,85,38.131,85,85s-38.131,85-85,85s-85-38.131-85-85S53.131,15,100,15 M100,0C44.771,0,0,44.771,0,100c0,55.229,44.771,100,100,100c55.229,0,100-44.771,100-100C200,44.771,155.229,0,100,0L100,0z"/></symbol>

<symbol id="heart" viewBox="0 0 200 200"><path d="M150,86.62c0,28.538-30.841,37.389-49.996,66.351C79.738,123.824,50,116.1,50,86.62c0-14.489,11.76-26.254,26.25-26.254c10.513,0,19.561,8.551,23.754,17.48c4.189-8.93,13.234-17.48,23.746-17.48C138.238,60.366,150,72.131,150,86.62z M100,15c-46.869,0-85,38.131-85,85s38.131,85,85,85s85-38.131,85-85S146.869,15,100,15 M100,0c55.229,0,100,44.771,100,100c0,55.229-44.771,100-100,100C44.771,200,0,155.229,0,100C0,44.771,44.771,0,100,0L100,0z"/></symbol>

<symbol id="pagetop" viewBox="0 0 200 200"><path d="M99.997,66.888c1.61,0,3.231,0.576,4.521,1.719l43.213,38.479c2.793,2.495,3.047,6.782,0.547,9.585c-2.49,2.798-6.777,3.047-9.579,0.552L99.997,82.766l-38.689,34.457c-2.803,2.495-7.1,2.246-9.59-0.552c-2.49-2.803-2.246-7.09,0.557-9.585l43.211-38.479C96.774,67.464,98.386,66.888,99.997,66.888z M100,15c-46.869,0-85,38.131-85,85s38.131,85,85,85s85-38.131,85-85S146.869,15,100,15 M100,0c55.229,0,100,44.771,100,100c0,55.229-44.771,100-100,100C44.771,200,0,155.229,0,100C0,44.771,44.771,0,100,0L100,0z"/></symbol>

<symbol id="link1" viewBox="0 0 200 200"><path d="M85.644,124.754c-2.663,0-5.326-1.02-7.354-3.044c-19.029-19.03-19.029-49.988,0-69.014l38.397-38.401C125.906,5.076,138.163,0,151.201,0s25.289,5.076,34.514,14.295c19.025,19.025,19.025,49.982,0,69.015l-17.563,17.551c-4.063,4.063-10.639,4.063-14.7,0c-4.068-4.063-4.068-10.638,0-14.708l17.551-17.556c10.919-10.913,10.919-28.676,0-39.595c-5.288-5.288-12.317-8.201-19.801-8.201c-7.481,0-14.513,2.913-19.802,8.201L93,67.402c-10.919,10.92-10.919,28.683,0,39.596c4.063,4.063,4.063,10.645,0,14.712C90.969,123.734,88.306,124.754,85.644,124.754z M83.309,185.713l38.404-38.402c19.025-19.031,19.025-49.987,0-69.014c-4.068-4.063-10.65-4.063-14.713,0s-4.063,10.638,0,14.706c10.919,10.919,10.919,28.683,0,39.597l-38.401,38.399c-5.291,5.287-12.319,8.201-19.8,8.201c-7.482,0-14.517-2.914-19.802-8.201c-10.918-10.912-10.918-28.676,0-39.595l17.554-17.557c4.066-4.063,4.06-10.646,0-14.708c-4.056-4.068-10.644-4.068-14.706,0l-17.558,17.557c-19.028,19.025-19.028,49.982,0,69.016C23.504,194.925,35.761,200,48.799,200C61.837,200,74.093,194.925,83.309,185.713z"/></symbol>

<symbol id="link2" viewBox="0 0 200 200"><path d="M28.571,0v171.43H200V0H28.571z M185.715,157.143H42.857V14.286h142.857L185.715,157.143L185.715,157.143z M14.286,185.714v-150L0,21.429V200h178.57l-14.285-14.286H14.286z M157.143,42.857v92.856L121.43,100l-42.858,42.857l-21.429-21.43L100,78.571L64.286,42.857H157.143z"/></symbol>

<symbol id="quo1" viewBox="0 0 200 200"><path d="M43.902,81.269c24.135,0,43.707,19.566,43.707,43.708c0,24.141-19.572,43.707-43.707,43.707c-24.141,0-43.707-19.566-43.707-43.707L0,118.73c0-48.279,39.135-87.414,87.414-87.414v24.976c-16.676,0-32.354,6.493-44.146,18.292c-2.279,2.269-4.341,4.684-6.219,7.22C39.28,81.451,41.573,81.269,43.902,81.269z M156.293,81.269c24.134,0,43.707,19.566,43.707,43.708c0,24.141-19.573,43.707-43.707,43.707c-24.141,0-43.707-19.566-43.707-43.707l-0.195-6.244c0-48.28,39.135-87.415,87.414-87.415v24.976c-16.677,0-32.354,6.493-44.146,18.292c-2.28,2.269-4.343,4.684-6.22,7.22C151.677,81.451,153.963,81.269,156.293,81.269L156.293,81.269z"/></symbol>

<symbol id="quo2" viewBox="0 0 200 200"><path d="M156.098,118.73c-24.141,0-43.707-19.565-43.707-43.707s19.566-43.707,43.707-43.707c24.142,0,43.707,19.566,43.707,43.707L200,81.269c0,48.28-39.135,87.415-87.414,87.415v-24.977c16.676,0,32.354-6.493,44.146-18.292c2.272-2.269,4.341-4.685,6.219-7.22C160.721,118.549,158.427,118.73,156.098,118.73z M43.707,118.73C19.566,118.73,0,99.165,0,75.024s19.566-43.707,43.707-43.707s43.707,19.566,43.707,43.707l0.195,6.244c0,48.28-39.134,87.414-87.414,87.414v-24.976c16.677,0,32.354-6.493,44.146-18.292c2.273-2.27,4.342-4.684,6.219-7.221C48.329,118.549,46.037,118.73,43.707,118.73z"/></symbol>

<symbol id="check" viewBox="0 0 200 200"><polygon points="200,40.005 70,180.005 0,90.005 25.63,68.13 70.01,114.38 180.01,19.995  "/></symbol>

</defs>
</svg>